<svg xmlns="http://www.w3.org/2000/svg" width="2.58in" height="1.34in" viewBox="0 0 185.67 96.44"><defs><style>.a,.b,.f{fill:#00a0af;}.a,.f{stroke:#00a0af;}.a{stroke-width:0.62px;}.c{fill:#f3901d;stroke:#f47d30;}.c,.d{stroke-width:0.9px;}.d{fill:#fdbb30;stroke:#ffda78;}.e{fill:#fff;}.f{stroke-width:0.4px;}</style></defs><title>daytona-beach</title><path class="a" d="M63.37,95.67a6.6,6.6,0,0,1-1.44-.15A4.4,4.4,0,0,1,60.61,95a10.71,10.71,0,0,0-1.74-.41c-.71,0-1.52-.91-1.93-.91-.2,0-.3-.1-.51-.2-.92-.51-1.93-.62-2.85-1.12s-5.7-4.79-6-4.79a3.83,3.83,0,0,1-1.12-1.93.52.52,0,0,1,.2-.41c1-1.73,1.43-4,3.26-5.19a7,7,0,0,1,1.83-1.22l.1.2-.1.21a6.21,6.21,0,0,0-2.24,5c0,2.34,1.73,1.84,2.55,3.26.4.71.81.81,1.52,1.22,2,1.53,4.38,3.06,7.13,3.06a7.23,7.23,0,0,0,3.15-1.13c1-.6.92-2.23,1.43-3.15,1.32-3,2.95-6,3.56-9.16.51-2.75,2-5.19,2.75-7.84.92-3.56,2.85-6.61,3.86-10.18v-.2a.44.44,0,0,0-.4-.41c-.51,0-1.33.92-1.94,1.23-.4.1-.51.81-.81.91-.1-.1-.3-.2-.3-.41,0-.4.81-.81,1.11-1,2-1.53,3.36-4.18,5.19-6,.31-.31.92-.91.92-1.12a5.13,5.13,0,0,1,.51-1.63A4.36,4.36,0,0,1,83,49.11a9.75,9.75,0,0,1,1.53-.61c0,.1.11.1.11.2a.1.1,0,0,1-.11.1c-.3.92-1.93,2.14-2.54,3.16a44.18,44.18,0,0,0-2,4.78c0,.41.2,1,.5.72,2-1.79,3.54-4.2,7.21-4.2.51,0,1.65.23,1.65.63,0,.72,1,.72,1,1.32,0,.41-2.85,6.11-3.87,6.52-1.94.61-8.14,5.93-10.07,5.93-.41,0-.7-.73-.7-1.14,0-2,7.71-3.26,9.34-6.83a7.75,7.75,0,0,0,1-2.95c0-.71,0-1.12-.81-1.12-1.53,0-2.75,1.12-4,1.94a15,15,0,0,0-5.81,9l-.09.21c0,.81,1.62,1.12,2.13,1.63a32.42,32.42,0,0,0,4.27,3.46c1.94.71,3.47,2.13,5.4,3C89,75.47,90.73,76,91.55,78a4.88,4.88,0,0,1,1,2.34c0,1.94-1.73,4.68-1.73,5,0,.92-1,1.53-1.73,1.84-1.58.86-2.76,3.18-4.1,3.91-.82.51-4.8,2.83-5.71,2.93-.1-.1.51-1,.51-1,2.14-1.73,9.92-7.06,9.92-10.11a3.28,3.28,0,0,0-1.33-3,35.07,35.07,0,0,1-3.15-3c-.31-.41-4.48-2.65-5.29-3.16-.31-.2-1.23-.71-1.23-.71a33.4,33.4,0,0,1-4-2.45,2.17,2.17,0,0,0-.6-.2h-.21c-.71.51-.71,1.53-1.12,2.24-.92,1.73-1.32,3.66-2.34,5.4-.41.81-.71,1.73-1.12,2.54a38.49,38.49,0,0,0-1.22,3.67c-.61,1.42-3.36,7.53-3.36,8.65,0,1.32,5.7,1.32,6.72,1.32,2,0,6.81-.41,8.45-1.43.1,0,.71-.1.5.21,0,.51-1.83,1.22-2.23,1.43a27.34,27.34,0,0,1-10.29,1.62,30.07,30.07,0,0,1-3.05-.1c-.2-.1-.41-.42-.71-.41S63.67,95.67,63.37,95.67Zm9.57-.25v-.1a.37.37,0,0,0-.3.1l.3.1Zm1.73-25.14c-.1,0-.3,0-.3.2a.47.47,0,0,0,.3.31c.1,0,.2-.31.2-.41S74.77,70.28,74.67,70.28Zm2.65.81c-.1,0-.21.21-.21.31s.21.1.21.1l.1-.31C77.42,71.09,77.42,71.09,77.32,71.09Z"/><path class="a" d="M96.57,88.19c-.71,0-2.13-.61-2.13-1.42,0,0-.11-4-.11-4.17v-.51l.11-.62c1.22-1.42,3.36-4.78,5.39-4.78.1,0,.3.1.41.1l.2.11c-1,1.32-3,4.88-3.87,5.59A7.87,7.87,0,0,0,96.26,84c0,.31.52.67.52,1.18s.91,1.22,1.52,1.22c2.85,0,5.91-3.46,6.31-3.56l.11.1C103.19,84.43,98.5,88.19,96.57,88.19Zm6.93-8.8c-.62.41-1.09,1.14-1.81,1.14a18.09,18.09,0,0,1-1.86.13c-.1,0-.61-.2-.61-.41s3.53-.59,4.28-2.61c.17-.47-3.91-.62-3.91-1s2.89-1,3.29-1a3,3,0,0,1,1.63.41c-.1.3.53,0,.53.32s.52-.27.31.83l-.21,1.23C104.74,79,104.1,78.88,103.5,79.39Zm-.31-2.6-.31.11a.1.1,0,0,0-.1.1c0,.2.31.3.41.3s.2-.1.2-.3A.22.22,0,0,0,103.19,76.79Z"/><path class="a" d="M126.12,79.74c-.1,0-.41-.3-.41-.3,0-.31.31-.71.31-1.12a.79.79,0,0,0-.82-.71c-1.73,0-3,2.85-3.76,4.07-1.66,2.59-1.23,4.17-1.23,4.27,0,.72,1.33,1.32,1.84,1.32,2.24,0,6.21-4.47,6.41-4.47a.1.1,0,0,1,.1.1c-.3,1.83-6.72,5.39-8.75,5.39-1.22,0-1.83-.4-1.83-1.62,0-2,1.12-3.57,1.32-5.4.1-.21.1-.41.31-.61-.11,0,0-.31.2-.61.81-1.22,1.63-1.32,2.74-2.24A18.69,18.69,0,0,1,127.64,76,1.41,1.41,0,0,1,129,77.2,7.64,7.64,0,0,1,126.12,79.74Zm1.12-2.54c-.1,0-.21.21-.21.21l.21.2a.22.22,0,0,0,.21-.2Z"/><path class="a" d="M152.09,51.59c.71,0,2.37-.57,2.37.25a11.92,11.92,0,0,1-3.59,1.94c-.61,0-.65-.1-1.36-.1-1.84,0-5.6,5-6.21,6.61-.21.71-5.71,9.57-6.31,11.3-.41,1.32-.92,2.65-1.43,3.87-.2.51-1.73,4.07-1.73,5.29,0,.31.1.71.41.71.81,0,7-4.68,8.34-4.68.72,0,1.33.31,1.33,1.12s-1.12,1.22-1.43,2.44A8.19,8.19,0,0,1,141,84a6,6,0,0,0-.2,1.32c0,.51.71.71,1.12.71,1.33,0,5.8-4.07,6.82-5.19.31-.3.71-1.63,1.12-1.63a.91.91,0,0,1,.51.82c0,1.83-10.08,8.14-12,8.14-.61,0-.61-1.22-.61-1.63,0-2.44,2.34-5.6,2.34-6.82a.37.37,0,0,0-.41-.4c-1.22,0-4.78,2.64-5.8,3.15a3.57,3.57,0,0,1-.91,1.73c-1.33.82-1.13,2.65-1.13,3a.48.48,0,0,1-.5.51h-.21c-.4,0-2.13-.1-2.64-.1a.22.22,0,0,1-.21-.2c0-.82,1.12-1.83,1.42-2.65.42-1.42,2.25-4.28,2.25-5.39s2.34-5.81,2.64-7.33c.21-1,.61-1.84.82-2.85.2-1.63,2.85-6.72,3.87-8a35.37,35.37,0,0,1,7.12-6.41,9.41,9.41,0,0,1,2.14-1.43,14.36,14.36,0,0,0,1.53-.88C150.08,52.35,152.09,51.59,152.09,51.59Z"/><path class="a" d="M119.58,83.54a19.64,19.64,0,0,1-1.84,1.52c-1.12.72-2.13,1.23-3.25,1.84-.82.41-1.43,1.42-2.55,1.42s-1.32-1.22-1.32-2.14c0-.61.51-1.83.31-1.83s-1,.92-1.33,1.12c-.91.41-1.7,1.65-2.63,2.07a6.34,6.34,0,0,1-3.17.48,1,1,0,0,1-1-.92c0-2.44,3.77-8.55,5.91-9.06,1.11-.2,3.78-1.63,4.91-1.63a19.27,19.27,0,0,1-2.67,1.53c-1.53.71-2.88,2.47-3.9,3.8a15.28,15.28,0,0,0-1.5,2.82c0,.3-.1,1.11-.1,1.32,0,.51.91.71,1.32.71,1.32,0,2.44-1.62,3.36-2.44,1.32-1.12,3.36-4.28,3.36-6.11,0-.41-.21-.71-.21-1.12s1-.51,1.33-.51.81.61,1.32.61.71-.61,1.33-.61c0,0,.3.31.3.41a17.79,17.79,0,0,1-2.44,3.36,4.36,4.36,0,0,0-1.22,2.24,4.61,4.61,0,0,0-.62,1.53c0,.4-.2,1.32-.2,1.52s.72.61,1,.61c.82,0,4.48-2.44,5.19-3s1.53-2.85,2.34-2.85c.31,0-.27.23-.27.54C121.34,81.54,120.19,82.93,119.58,83.54Zm-11.3-4.38.2.1a.57.57,0,0,0,.11-.41A.46.46,0,0,0,108.28,79.16Z"/><path class="b" d="M151.33,85.39h-1.11v-.77h3.14v.77h-1.11v3.3h-.92Z"/><path class="b" d="M157.27,87.14c0-.49,0-1.08,0-1.68h0c-.13.52-.3,1.1-.46,1.58l-.49,1.59h-.72l-.44-1.57c-.13-.49-.26-1.06-.37-1.6h0c0,.55,0,1.18-.06,1.69l-.08,1.54h-.86l.26-4.07h1.23l.4,1.37c.13.46.25,1,.34,1.45h0c.11-.47.25-1,.39-1.47l.43-1.35H158l.21,4.07h-.89Z"/><path class="c" d="M164,34.88c7.39-6.17,13.27,3.8,20.65-5.46-12.46,1.81-8.94-5.24-19.19-5.84-3.38-9,8-11.26,1.67-21.29-2.41,12.36-7.89,6.7-11.84,16.18-9.63.2-8-11.26-19.54-8.64,10.86,6.37,3.77,9.89,11.4,16.77-2.58,9.27-13.21,4.63-14,16.45,9.23-8.57,10.56-.76,19.34-6.1,8.05,5.28.24,13.92,11.24,18.29-5.35-11.39,2.49-10.29.09-20.27"/><path class="d" d="M156.46,38.59c-5.36,8.76-10.12,2.43-14.39,14.27C137.38,42,149,41.41,147.05,32c-10-2.43-5.4-8.9-18-9.36,8.93-7.78,13.17,3,21.55-1.72-.53-10.25,7-7.73,3.8-19.91,10,6.32.76,13.25,7.7,19.92,9.5-3.91,9.38,4,19.82-3.07C179.3,29.39,169.68,23,165.7,31.72c6.83,7.67-.65,10.17,9.44,17.69-11.77,1.33-8.87-9.87-18.46-10.73Z"/><path class="e" d="M156.07,23.82a1.06,1.06,0,1,1-1.18-.74A1,1,0,0,1,156.07,23.82Z"/><path class="e" d="M152.52,27.68c.07.42-.34.83-.91.93a1,1,0,0,1-1.16-.6c-.06-.41.34-.83.92-.92A.94.94,0,0,1,152.52,27.68Z"/><path class="e" d="M154.44,32.08c.07.42-.34.83-.91.92a1,1,0,0,1-1.16-.59c-.06-.42.34-.83.91-.93A1,1,0,0,1,154.44,32.08Z"/><path class="e" d="M160.17,31.38c.06.39-.33.78-.88.87s-1-.16-1.11-.55.33-.79.88-.87S160.11,31,160.17,31.38Z"/><path class="e" d="M161.05,27c.07.41-.34.83-.91.92a1,1,0,0,1-1.16-.59c-.06-.42.34-.84.91-.93S161,26.59,161.05,27Z"/><path class="e" d="M165.92,25.05c0,.26-.21.51-.55.56s-.66-.1-.7-.35.2-.51.55-.57S165.88,24.8,165.92,25.05Z"/><path class="e" d="M171.37,23.29c0,.21-.17.41-.44.45s-.53-.08-.56-.29.16-.4.44-.45S171.34,23.09,171.37,23.29Z"/><path class="e" d="M150.73,37.43a.66.66,0,1,1,.77-.12A.56.56,0,0,1,150.73,37.43Z"/><path class="e" d="M147.51,41a.44.44,0,0,1,.09-.62c.2-.21.48-.25.62-.1a.45.45,0,0,1-.09.62A.46.46,0,0,1,147.51,41Z"/><path class="e" d="M161.35,36.34c-.1-.24.08-.54.41-.67a.57.57,0,0,1,.76.19c.1.24-.08.54-.41.67S161.44,36.58,161.35,36.34Z"/><path class="e" d="M165.06,40.2c-.19.06-.42-.12-.5-.38a.47.47,0,0,1,.21-.6c.2-.06.43.12.51.38A.46.46,0,0,1,165.06,40.2Z"/><path class="e" d="M155.92,13.77a.46.46,0,0,1-.15-.62c.11-.26.35-.4.54-.32a.45.45,0,0,1,.15.61C156.35,13.7,156.11,13.85,155.92,13.77Z"/><path class="e" d="M144.33,25.79a.66.66,0,0,1,1,.73.67.67,0,0,1-1-.73Z"/><path class="e" d="M139.59,23.29a.53.53,0,1,1,.2.59C139.56,23.72,139.47,23.45,139.59,23.29Z"/><path class="e" d="M155.57,18.53c.21,0,.37.23.36.51s-.18.51-.39.5-.36-.23-.36-.51S155.36,18.52,155.57,18.53Z"/><path class="a" d="M71.24,35.45a8.67,8.67,0,0,0-1,2.73,19.53,19.53,0,0,1-1.32,2.44c-.51,1.23-.92,2.44-1.33,3.77-.51,1.63-1.22,3.36-1.83,5-1.63,4.28-1.83,5.71-4.78,9.47-.51.71-.92,1.43-1.43,2.14A35.1,35.1,0,0,1,56.88,64c-.81.71-2.45,2.21-3.26,2.92-2.44,2.34-4.78,2.78-7.63,4.41a4.4,4.4,0,0,1-1.83.92c-2.85.61-6.72,1.93-9.57,1.93-.51,0-3.73-.81-4.17-.92A14.58,14.58,0,0,1,25.33,71c-2.36-1.27-3.66-5.19-4.27-6.81a3.19,3.19,0,0,1-.31-1.43c0-1.12.41-2.34.51-3.46.1-1.32.72-1.93,1-3.15.41-1.52,2.54-4.08,3.56-5.3a1.49,1.49,0,0,1,.92-.61l.1.1c0,.61-.92,1-1.22,1.43-1,1-1.53,2.74-2.24,3.86a8.05,8.05,0,0,0-.71,3.77c0,.81.4,3.16.4,3.56a8.9,8.9,0,0,0,1,2.34c1.42,4.08,8.35,7.23,12.42,7.23,1.22,0,5.09-.61,5.6-.61a28.61,28.61,0,0,0,5-2c6.72-3.36,8.55-5.69,12.42-12.11a19.65,19.65,0,0,0,2-3.76c.3-1,1-1.84,1.32-2.85a54.07,54.07,0,0,1,2.44-5.5,10.23,10.23,0,0,0,.92-2.44c.2-.92,1.42-1.53,1.42-2.65,0-.51-.1-.41-.5-.41-.11,0,.61-1,.81-1.52.41-1,1.39-5.28,5.26-7.21l.41.55C71.86,35.1,72.86,33.41,71.24,35.45Zm-13.95,9c0-1,1-1.73,1-2.54,0-.61-.51-.61-.51-.72s.1-.1.1-.2c1.53-1.73,4.78-7.06,6.82-8.28L65.6,32l-2.33,3.49a5.23,5.23,0,0,1-1.49,2.18c-1.12,1-.89,1.75-1.5,3.07a4.91,4.91,0,0,0-.74,2,4.31,4.31,0,0,0,.09.5c0,.41.61.61.92.61,1.53,0,6-3.87,6.11-3.87l1.1-.22c-.1,1.53-3.27,2.59-4.28,3.4s-4,2.22-5.27,2.22A.82.82,0,0,1,57.29,44.49ZM61.36,56.3v.1l.31.1c.1-.1.2-.2.2-.31s-.1-.2-.2-.2A.28.28,0,0,0,61.36,56.3Z"/><path class="a" d="M89.64,15.4c-.31.61-1.63,3.87-2.44,4.68-.62.61-3.06,6.11-3.47,7.13a5,5,0,0,1-1,2.24c-.51.4-.82.71-.82,1.12,0,.91-1.12,1.42-1.32,2.44l.41.4c1.12,0,2.13.21,3.15.21,1.43,0,2.75-.31,4.18-.31.51,0,2-.2,2,.62,0,.61-1.12.61-1.63.61-1.22,0-2.44-.21-3.66-.21s-2.14-.2-3.26-.2c-.71,0-2.75,0-2.75,1a18.8,18.8,0,0,1-.81,4c0,.2-.61.81-.61,1.11a7.19,7.19,0,0,0-.51,1.13c0,1.32-.92,2.13-.71,3.66l-.21.1c-.4-.41-1.93-1.32-1.93-1.63,0-.81.71-1.12.92-1.73.5-1.32,2.13-4.58,2.13-5.7,0-.3,2.55-6.31,3.06-7.43.71-1.73,1.63-3.36,2.23-5.19A7.25,7.25,0,0,1,84,20.69c.92-1.12,1.22-2.64,1.93-3.76C86.89,15.5,90.45,13.47,89.64,15.4ZM79.77,32.81c-.11,0-.21.4-.21.5a.33.33,0,0,0,.31-.3l-.1-.1Zm9.46-18.43-.1-.1a.35.35,0,0,0-.1.21h.1C89.23,14.49,89.23,14.38,89.23,14.38Z"/><path class="a" d="M85.87,44.51c-.1,0-.3-.41-.51-.41-.4,0-.51.92-.91.92-.92,0-.92-1-.92-1.63a9.18,9.18,0,0,1,.71-2.85,18.93,18.93,0,0,1,1.12-3.36c.11-.1.11-.1.11-.2s-.21-.21-.21-.41c0-1.32.92-1.53,1.94-2.24,1.73-1.22,2.84-1,4.88-1,.51,0,1-.3,1.43-.3a1.44,1.44,0,0,1,1.42,1.32,2.06,2.06,0,0,1-.51,1.22c-1.22,1-1.52,3.16-2.85,4.49-.81.91-.91,1.62-2,2.23S87.4,44.41,86,44.51Zm4.89-10.79c-.61,0-4.38,4.07-4.38,4.68,0,.31-.2,1.94-.2,2.75,0,1,.51,1.32,1.53,1.32,2,0,4-4,4-5.9,0-.51-.11-1.12-.11-1.63S91.37,33.72,90.76,33.72Z"/><path class="a" d="M112.23,39.73c0,.2-.1.61-.3.71-1.23.81-6.21,4.48-7.33,4.48-.92,0-1.63-.31-1.63-1.33,0-1.83,3.16-5.49,3.16-7.53,0-.3-.21-.4-.51-.4-1.33,0-2.34,1.11-3.57,1.73A11.72,11.72,0,0,0,97.78,43c-.1.31-.61,1.53-.92,1.53-.1,0-1.93-.1-2.54-.1a.21.21,0,0,1-.21-.21,1,1,0,0,0,.11-.3c1.22-1.93,3.35-4.07,3.35-6.51,0-.62.62-.92.62-1.73a.82.82,0,0,0-.51-.82h-.61c-.61,0-2.14,1.12-2.45,1.12-.1,0-.3-.1-.3-.2l.2-.21c.41-.4,1.12-.51,1.53-.81a10.94,10.94,0,0,1,4.17-1.83c.72,0,1.43-.1,1.43.71a12.93,12.93,0,0,1-.71,2.14v.1c-.11.1-.11.3-.11.51s0,.51.31.51c1.42,0,2.24-1.22,3.56-1.63s2.54-1.73,3.87-1.73c.3,0,1.12.1,1.12.41a.72.72,0,0,1-.21.5,26,26,0,0,0-2.34,5c-.2.62-.71.92-1,1.53a8.12,8.12,0,0,0-.41,1.73c0,.61.51.71,1,.71,1.52,0,2.64-2.24,4.17-2.65l1.22-1.22C112.23,39.52,112.23,39.63,112.23,39.73Zm-11.8-6.42v.21a.57.57,0,0,0,.3.41h.1c.11,0,.21-.52.21-.62s-.1-.3-.31-.3A.45.45,0,0,0,100.43,33.31Z"/><path class="a" d="M127.6,39.93a19.36,19.36,0,0,1-1.84,1.53c-1.12.71-2.14,1.22-3.25,1.83-.82.41-1.43,1.42-2.55,1.42s-1.32-1.22-1.32-2.13c0-.61.51-1.84.3-1.84s-1,.92-1.32,1.12c-.92.41-1.7,1.65-2.63,2.07a6.34,6.34,0,0,1-3.17.48,1,1,0,0,1-1-.92c0-2.44,3.77-8.55,5.9-9.06,1.12-.2,3.79-1.63,4.91-1.63a18.14,18.14,0,0,1-2.67,1.53c-1.52.71-2.87,2.48-3.89,3.8a15.28,15.28,0,0,0-1.5,2.82c0,.3-.1,1.12-.1,1.32,0,.51.91.71,1.32.71,1.32,0,2.44-1.62,3.36-2.44,1.32-1.12,3.36-4.27,3.36-6.11,0-.4-.21-.71-.21-1.12s1-.5,1.33-.5.81.6,1.32.6.71-.6,1.32-.6c0,0,.31.3.31.4a17.36,17.36,0,0,1-2.44,3.36,4.4,4.4,0,0,0-1.22,2.24,4.7,4.7,0,0,0-.62,1.53c0,.4-.2,1.32-.2,1.52s.71.61,1,.61c.81,0,4.48-2.43,5.19-3s1.53-2.85,2.34-2.85a.56.56,0,0,1,.61.51C130.24,37.9,128.21,39.32,127.6,39.93Zm-11.3-4.38.2.11a.64.64,0,0,0,.1-.41A.45.45,0,0,0,116.3,35.55Z"/><path class="a" d="M27.26,7.46c-.27.15-.34.37-.5.61a15.67,15.67,0,0,1-5.14,4c-1.3.77-2.74,1.35-4.12,2.24-3.88,2.51-7.95,3.31-11.18,6.42s-2.85,0-3.93,4c-.07.22-.11.54-.4.6l-.21,0c-.1,0-.35-.24-.37-.34l0-.2c-.33-1.7.21-1,.92-2.67,1.66-3.74,4-3.56,6.89-6.39,1-1,2.33-1.38,3.39-2.31a1.86,1.86,0,0,1,.94-.49c.4-.08.6-.48,1-.56A4.9,4.9,0,0,0,16,11.9l7.56-4.35m6.19,1.63a7,7,0,0,0,1.81,2.05c1.25.59,3.12,2.74,4.39,3.43,1.87,1.09,4,1.82,5.93,2.79.89.35,1.61.84,2.41,1.2.33.14,1.44,1.07,1.65,1,1.19-.23,2.08,1.67,2.37,2.65.22.58.93.54,1.09,1.34a3.26,3.26,0,0,1-.13,1,19.11,19.11,0,0,1-1.9,5.76c-.46.81-7,8.15-7.74,8.7-.1,0-.08.13-.18.15s-.32,0-.34-.15c.35-1.41,5.68-7.06,6-8.48.73-2.11.13-4.17.62-5.4.06-.22.14-.34.12-.44-.1-.5-.78-.27-1.18-.71-2-2.93-8-5-11.21-6.55a13.46,13.46,0,0,1-2.9-1.82c-.51-.52-2.5-1.83-3.85-2.92a4,4,0,0,1-1.06-1.94c-.18-.9-.53-.11-.55-.21s-3,5.14-3.39,6.15c-.39,1.22-.76,2.32-1.24,3.55-.21.56-.45,1.65-.51,1.87-.75,1-2.08,5.89-2.25,7.17a19.09,19.09,0,0,1-1.41,4c-.51,1.65-1.12,3.33-1.73,5a26,26,0,0,0-.89,4.52c.21,1.1-1,2.37-.57,4.57,0,.3.93,0,1,0s5.5-.54,8.19-.54l.1,0A10.06,10.06,0,0,0,24,46.39a52.89,52.89,0,0,0,5.15-1.82c3-.58,10-6.28,10.58-6.39a.1.1,0,0,1,.12.08c.18.9-5.4,4.77-6.21,5.44a62.13,62.13,0,0,1-8.51,4.23c-.6.12-1.08.29-1.77.42s-3.56.4-4,.48l-.3.06A5.75,5.75,0,0,0,18,49c-.4.08-.82,0-1.22.13s-1.38.37-1.48.39c-1.1.21-1.19.85-1.49.91-.7.13-1.39-.25-2-.13-1.8.34-1.7,2.5-2.3,3.65a3.89,3.89,0,0,0-.85,1.36c-.09.12-.46-.13-.46-.13s-.2.1-.24-.1c-.08-.4-.43-.65-.51-1-.23-1.2,1.38-3.07,1.24-3.77-.09-.5-.37-.34-.67-.28a2.6,2.6,0,0,1-2.81-1.12C3.79,46.86.79,45.27.34,43c-.07-.4,0-2.38.36-2.46.1,0,.28.37.3.47a4.64,4.64,0,0,0,.72,1.61,5.77,5.77,0,0,0,2.11,1.78c1.23.48,4.77,2.71,6,2.48,1.6-.31,1.58-3.11,1.85-4.4.61-2.19.82-6,1.61-7.78,1-2.46,1.09-5.08,2.19-7.47S17,22,18.34,19.6a66.48,66.48,0,0,1,3.11-5.89c1.46-2.14.77-6.31,3.22-7.61C25.69,5.49,26.78,5,28,6A23.73,23.73,0,0,1,29.74,9.18ZM11.65,15.49a.27.27,0,0,0-.24.36c0,.09.12.08.22.06l.3-.06,0-.32A.37.37,0,0,0,11.65,15.49Zm6.64,7.64-4,25.13a.42.42,0,0,0-.32.47v.1l.32,0c.08-.11.26-.25.23-.45l-.12-.08A.1.1,0,0,0,14.32,48.26Zm32-19.86"/><path class="a" d="M59.55,40.36a21,21,0,0,1-1.84,1.53c-1.12.71-2.13,1.22-3.26,1.83-.81.41-1.42,1.42-2.54,1.42S50.59,43.93,50.59,43c0-.61.51-1.84.3-1.84s-1,.92-1.32,1.12c-.92.41-1.7,1.65-2.63,2.07a6.34,6.34,0,0,1-3.17.48,1,1,0,0,1-1-.91c0-2.45,3.77-8.56,5.9-9.06,1.12-.21,3.79-1.64,4.91-1.64a19,19,0,0,1-2.67,1.54c-1.52.71-2.87,2.47-3.89,3.79a15.6,15.6,0,0,0-1.5,2.82c0,.3-.1,1.12-.1,1.32,0,.51.91.72,1.32.72,1.33,0,2.44-1.63,3.36-2.45,1.32-1.12,3.36-4.27,3.36-6.1,0-.41-.2-.72-.2-1.13s1-.5,1.32-.5.81.61,1.32.61.71-.61,1.32-.61c0,0,.31.3.31.4A17.47,17.47,0,0,1,55.07,37a4.4,4.4,0,0,0-1.22,2.24,4.67,4.67,0,0,0-.61,1.53c0,.4-.21,1.32-.21,1.52s.71.61,1,.61c.81,0,4.48-2.44,5.19-3S60.77,37,61.58,37a.56.56,0,0,1,.61.51C62.19,38.33,60.16,39.75,59.55,40.36Z"/><path class="f" d="M78.67,33.68a2.07,2.07,0,0,0-.32,0c-.48,0-.91.2-1.38.2s-1,.2-1.55.2c-.22,0-.69,0-.69-.61,0-.81.65-.61.86-.61.6,0,1.16.31,1.77.31.43,0,.86-.21,1.33-.21"/></svg>