<svg xmlns="http://www.w3.org/2000/svg" xmlns:xlink="http://www.w3.org/1999/xlink" width="1646.45" height="619.94" viewBox="0 0 1646.45 619.94"><defs><style>.a,.i{fill:none;}.b{fill:#fff;}.c{clip-path:url(#a);}.d{fill:#ffe700;}.e,.h{fill:#e31319;}.f{fill:#13110c;}.g{fill:#ffd500;}.h{fill-rule:evenodd;}.i{stroke:#e31319;stroke-width:0.74px;}</style><clipPath id="a"><rect class="a" x="3.63" y="3.63" width="1658.7" height="634.3"/></clipPath></defs><title>legoland-florida</title><rect class="b" x="1228.91" y="149.1" width="174.93" height="108.7"/><g class="c"><path class="d" d="M1227.65,293.63h177.48V116.15H1227.65Zm165.67-103.71a70.42,70.42,0,0,1-3.59,17c-6.25,18.55-13.48,30-30.24,30-4.94,0-13.68-1.3-16.91-10.09l-.77-2.07-1.36,1.73a27.27,27.27,0,0,1-21.37,10.51c-6.39,0-11.52-2.11-14.85-6.19l-.91-1.13-1,1.07c-3.56,3.93-9.74,6.17-17,6.17-5.68,0-10.57-1.93-13.8-5.42l-.88-1-.91.94c-3.59,3.61-9.23,5.43-16.33,5.27-8.62-.2-13.88-5-14-12.87-.27-12.11,11.45-37.59,16.32-45.34,3.15-5.17,7.47-7.69,13.23-7.69,3.93,0,6.61.83,8.21,2.52,1.45,1.53,1.73,2.83,1.86,5.94l.16,4,2.13-3.43c5.16-8.29,13.68-9.42,22.13-9.42,5.87,0,11,2.15,13.06,5.5l.76,1.23,1.1-1c4.33-3.69,10.49-5.73,17.29-5.73,7.43,0,12.82,1.84,16,5.49a10.59,10.59,0,0,1,1.87,2.81l.84,1.73,1.24-1.46c4.7-5.57,11.14-8.4,19.12-8.4,6.31,0,11.11,1.68,14.26,5,3.93,4.17,4.49,10,4.27,14.17"/><path class="e" d="M1227.66,293.63h177.47V116.15H1227.66Zm170.67-96.9c-.81,6.45-5.17,18.43-7.49,23.21-6.23,12.82-14.53,22.68-30.56,22.68-8.56,0-15.59-2.74-19.71-8a32.17,32.17,0,0,1-21.5,8.06,25.16,25.16,0,0,1-15.85-5.1c-4.59,3.24-10.8,5-17.7,5a25.36,25.36,0,0,1-15-4.5c-4.48,3-10.35,4.46-17.24,4.29-11.46-.27-19.38-7.53-19.61-18.1-.3-14,11.52-39.69,17.07-48.58,4.17-6.84,10.53-10.52,18.33-10.52,8.45,0,11.52,2.41,13,5.49,6.52-5.54,15.17-5.87,21.34-5.87,6.8,0,11.06,1.81,14.68,4.7a33.43,33.43,0,0,1,17.61-4.57c8.75,0,15.25,2,19.79,6.52,5.3-4.4,11.91-6.41,19.34-6.41,9.8,0,16.25,3.55,20,8.81,5.36,7.43,4.4,14.92,3.41,22.83"/><path class="f" d="M1226.44,294.83h179.87V115H1226.44Zm177.4-2.48H1228.91V117.43h174.93Z"/><path class="f" d="M1397.46,168.92V167.7h.83c.62,0,.93.22.93.61s-.21.61-.83.61Zm3,2.55-.51-.9c-.46-.79-.58-.92-1-1v0a1.23,1.23,0,0,0,1.21-1.23c0-.72-.46-1.26-1.42-1.26h-2.22v4.47h.92v-1.83h.17c.39,0,.55,0,.73.22a4.43,4.43,0,0,1,.61.89l.36.72Zm-2.19-5.71a3.46,3.46,0,1,1-3.45,3.46,3.46,3.46,0,0,1,3.45-3.46m0-.86a4.32,4.32,0,1,0,4.32,4.32,4.31,4.31,0,0,0-4.32-4.32"/><path class="f" d="M1374.78,169.52c-9.3,0-15.72,3.69-20.06,8.84a11.54,11.54,0,0,0-2.08-3.11c-3.55-4-9.3-5.9-17-5.9-7.5,0-13.75,2.35-18.1,6-2.26-3.68-7.63-6.1-14.11-6.1-8.47,0-17.7,1.2-23.17,10-.13-3.18-.43-4.85-2.21-6.74-2.18-2.3-5.68-2.91-9.11-2.91-6.23,0-10.91,2.73-14.29,8.28-4.9,7.82-16.78,33.55-16.51,46,.18,8,5.59,13.85,15.25,14.08,7.55.18,13.48-1.84,17.24-5.65,3.38,3.67,8.54,5.84,14.71,5.84,6.88,0,13.8-2.07,17.88-6.58,3.45,4.22,8.88,6.69,15.82,6.65a28.51,28.51,0,0,0,22.34-11c2.86,7.8,10.13,10.91,18.07,10.91,17.41,0,25-12,31.41-30.89a72.24,72.24,0,0,0,3.66-17.35c.54-9.94-3.67-20.47-19.78-20.47M1259,217.08c9-1.56,11.25,1.7,11,4.71-.85,9-9.14,11-16.31,10.87-5.22-.12-9.9-2.51-10-8.56-.23-10.59,10.57-35.08,15.66-43.2,2.34-3.85,5.2-5.76,9.76-5.76,4.33,0,5.41,2.23,5.34,4.88-.18,7.08-11.64,28.64-15.38,37.06m29.29-8.31c-.58,1.62-1.71,5-2.64,8.57a29.75,29.75,0,0,1,9-1.17c4.34.12,7.1,1.9,7.1,5.48,0,8.67-9.58,11.22-16.23,11.22-7.3,0-13.72-4.16-13.72-12.15,0-9.35,5.08-23.55,9.85-33,5.84-11.61,11.81-13.15,22.1-13.15,4.52,0,9.73,1.94,9.73,6.2,0,5.92-5,8.18-10,8.45a69.73,69.73,0,0,1-7.34.11,40.52,40.52,0,0,0-3.4,7c9.18-1.3,13.09.79,11.54,6.12-2.09,7.19-8.33,7.67-16,6.3m45.27-22.38c-2.47,0-4.1,1.58-5.32,3.28-2.67,3.75-8.45,18.75-9.35,24.92-.61,4.23,1.21,5.09,3.19,5.09,3.21,0,6.81-3.38,8-9,0,0-6.1-.15-4.42-5.55,1.64-5.23,4.75-6.37,9.85-6.57,10.1-.42,9.11,7,8.31,11-2.63,12.92-11.82,23.3-24.83,23.3-8.89,0-14.42-4.93-14.42-14,0-6.47,3.2-16.63,5.74-22.58,5.41-12.64,11.09-21.5,25.57-21.5,8.68,0,15.53,3.12,14.52,11.26-.74,6-3.72,9.47-9.15,9.9-1.51.12-7.73,0-5.67-5.92.72-2.06,1-3.67-2-3.67m54.65,10.68a87.52,87.52,0,0,1-8.71,23.34c-6.09,11-13.48,12.49-20,12.42s-13.74-2.46-13.8-12.44c0-7.15,3.06-17.25,5.68-23.88,4.56-12,9.23-21.78,24-21.61,17.21.21,14.14,15.51,12.8,22.17m-12.27-7.5c-.19,4.58-6.92,23-9.32,27-1,1.75-2.2,3.21-4.3,3.21a2.61,2.61,0,0,1-2.71-2.8c-.13-4.15,7.47-24.94,10.08-28.31a4,4,0,0,1,3.92-2.06c2.16,0,2.38,1.59,2.33,2.93"/><path class="g" d="M158,508.8c.57-.66-.2-2.42.39-1.1-.11,1.13-.25,2-.39,1.1"/><path class="g" d="M18.31,558.78c-2.24-7.09,3.62-2.14,3-7.1,0-.38,2,3.42,1.94,2.34-1.21-5.82,3.2-4.5,7.36-1.94l.44,1c.78.47-.58-3,.09-2.79l1,1.8c-1-2,.24-1.3-.4-2.86.59.67,1.45,2.22,2.14,3l-1-2.33c-2.32-5.65,1.79-.54,1.17-3.77l.73,1.45c-.35-4,1.81-4.45,2.81-6.51l1.66,3.12c-1.2-2.38-1-3.26-.82-3.94,1.51,2.3-.43-2.63.8-1.59l.25.58c-1-2.75,1.35,1.14,0-2.07l1.27,1.77c-1.67-3.49,1.51,1.48.88-.42l-.37-.69c-.15-1,.93.64.89-.1l.23.37c.17-1.24,1.56.47.13-2.18,1.37,2-.12,1.3,1.9,4.22.66-3.9,3.19-4.49,5.32-5.65l1.7,2.19c-.06-.66.56-.91.06-2.39a4.78,4.78,0,0,0,1,1.38c.89.82-1.08-3.19,0-2.18l1.13,2.67c-.69-2.29,0-2.2.06-3.12l.64,1.66c-.73-2.65,1.12.06.78-1.66l.62,1.63c1.63,1.59-1.43-3.35-.27-2.52l.75,1.81c-.86-3.11.49-2.61.56-3.85l.3.68c.41-.67,1.47-.07,1.53-1.64.57.59,1.79,3.86,2.13,3-1.56-3.15.44-1.83-1.66-5.22.79.25,2.22,1,2.07-.23.33,1.32,2.11,3.73,1.78,4.22l1.27,1.78c.56,1.3-.57-.3.32,1.3.16-.25.21-1.82.66-1.4-.51-2.13-1.84-5.94-1.36-6.68.27,1.39,1.84,3.42,1.88,4.06l-1.91-6.52c.16-.25,1.22,2.49,1.17,1.52l-.73-2.16c.25.33.59-1.22,2.14,1.87.66,1.17-.07.82.7,1.82l.33-1.53.2.4c.49.35.21-1.69-.89-3.3-.24,0,.94,1.85.23,1.07-.64-1.9-.38-2.64,0-2.87l.84,2.31a12.37,12.37,0,0,1-.14-5.11c-.66-1.5,1,2.83.55,2.1,1.75,1.7.36-3.73,2.41-1,0,.3-1-2.11-.81-1.7.47,0,1.42,2.2,1.32,1.28.58,1.26.15-.56.23-1.09-.27-1,.34.61.17.85-.1-1.26.52-3.89,2.21-2.38-.4-.84-.81-3.33-.58-3.33l.77,2c.7,1.12.61-.45,1.37,1.23-.62-2.59-.75,2.74-1,.65.86,1.57-.56-3.5.48-.75.37-.24-.19-2.63,1-.94-.25-.27.85,2.89,1.12,2.61.41-.58-.25-1-.07-1.88l-.06-.92c-.8-2,.63.06-.51-2,.75,1.56.42-1.34,1.71,1.91l1,2.55c.17-.29-.72-2.83-1-4l.57,1.1c-1.59-3.91.72.08-.24-3,1.08,1.13,1.37-.44,2.61,1.88-.09-1.35-.29-2.9.5-2.24a4.32,4.32,0,0,0,.3,1.41c.75,1,.4,0,.41-.76a28.81,28.81,0,0,0,2.36,3.29c-.08-1.34-1.06-3.39-1.53-4.69,1.9,3.71.12-3,2,.38a6,6,0,0,0,.9,3c1.89,3.72-.39-3.13.92-1.5l-1.38-3.14c1,1.88.14-2.19,1.35,1.1-.25-1.24,1.12.79-.16-2.29,2,2.26,1.78-2.52,4.5,2.89-.06-.58.49-.19-.19-1.78-.89-1.66.15,1.38-.38.22A4.92,4.92,0,0,0,90.1,507c.56.59.88.74,1.58,3.46,1.4,1.68-1.31-5.62,0-4.72.44,1.33.69,1.78.86,1.49l-.34-2.41c.74.31,1.4,2.86,2.22,5.05.15-.48.56-.51.09-2.21l1.36,2.64c-1-1.91-.23-1.43-.29-2l.06.59c.39.92.51.22.59-.12a4.77,4.77,0,0,0-1.41-2.1c-.21-1,.12-.9-.09-2.14.7,2.21,1,1.37,1.35,1.52.43.36-.38-2-.28-2,.4,1.12.52.05.85,1.68,0,.4-.6-1-.4,0,.49.79,1.15,2.76,1,1.19-.11-1.17-1.6-4.27-.58-3.07l.51,2.28.89,1-.67-2,.38.92c-.57-2.15.55-.89-.15-3.29.18-.29,1,1.2,1.33,1.36v.17c.71,1.08.84.18.64-1.25l.12.44c.23.09.5-.33.32-1.57.93,1.38,2.66,7.49,2.27,4.82.39-.21-.57-3.87-1.15-5.1,1.19,1.11,1-2.42,2.69.44l-.31-1.88c1.36.43,1.61-3.15,3.72.51-.06,1,.59,2,1,3.17-.29-1.9.89,1.77,0-1.35-.59-1.81-.82-2.7-1.36-3.32.35-1.22,1.38-1.54,2.27.09l-.48-2c.82,2.92,1.45,3.23,1.52,2.09l-.46-1.78.78,1.75c0-.61-.92-3.77,0-2.17l.66,1.89c0-1.58-.17-4.2.68-2.8l1.08,2.49a4.47,4.47,0,0,0-.56-2.64c1.17,1.37,1.69,1.43,2.53,3.63-.24-5.81,1.57-6.56,3.14-6.56l.29,1.35c.71,1.16-.38-2.4.14-1.53l1.06,4.34c.9,1.28.15-2.52.37-3.23-.37-1.77,0,1.22-.48-1-.1-.66,1.1,1.17.54-1.53a26.68,26.68,0,0,1,1,4.11l0-1.38c1.15,3,.37,5.81,1.74,9.56l.21-.52c1,2.72,0,3.37.94,4.14a22.77,22.77,0,0,0-1.2-6.44c.54-.9-1.17-6.46-.32-6.38.58,1.51-.55.49.12,2.65.86,2.09.46-1.35,1-.67a9.71,9.71,0,0,1-.78-4.24c.71,1.2.32,2.6,1,2.76-.25-1.56,0-2.83-.67-3.81-.58-3.57.81.83.52-2,.73,2.43.67,5.84,1.57,6.94-.62-2.34.07-3.38-1-6.86a12.16,12.16,0,0,1,1,4c.66,1.41-.06-4.52,1,.18l-.38-2.47c.27.78.56,1.33,1,2.62.32,0,.34-3.52,1,.18,0-.39.76-.37,0-2.87-.75-1.46-.14,2-1.08-1.42.89,2.73.58-.51.66-1.5l.32,1.41c0-.57.47-.34.26-1.91a6.21,6.21,0,0,0,.48,2.12l-.25-2.21c.43-1.2.87,3.8,1.36,3.06l-.14,1.77c0-.39.62,1.62.78.87-.26-2-.48-4.43-.67-6,.19-.94.57,2.21.54.1v2.48c0,.67.89,3.22,1.34,3.09.15-.75.11-3.73-.56-4.71.23-.09.77,1.06.84,2.55.4-.79-.44-2.11-.21-3.45.42,1.29,1.32,3.07,2,4.93l.11,3.43.31,0c.06,2.74.53,2,.79,4.86.28.4.36-.61.44-1.39-1.36-4.42-.34-6.27-1.17-10.36.73-1.23,2.12,10,2,3.39-.32-1-.37-4.24-.74-3,.62.38-.24-4.16.68-2.55-.24,1.75,1.11,4.11.78,6.66-.15-1.37-.53-1-.57-.59.45,1.55.57,4.16,1.11,4.09.28-.43.7-.56.34-2.71-.35-2.36-.48.31-.6-2.09.56-.91,1.16,2.67.86-1.57-.37.39-.82-2-1-3.65l.38-1.06.11,1.59c1,1-.14-2.89.72-2.56l.78,3c.15,2.72-1.3-1-.59,3.31.52.11.4-2.12,1-1.05l-.24.9c.2.13,1.09,5.91,1.37,2.42.21-1.37-.08-1.58-.28-3.21.76-.58.81-2.29,1.32-2.6.24,3.2,1,.2.73,3.53-.46-1.84-1.63-1.51-1.55,1.58.74,3.74-.69-.47-.39,3.38.64,0,1,3.73,1.44,6.15.18.17.23-.89.28-1.27-.2-2.31-.41-2.26-.7-4.63.77.56,1.27-.82,1.44-3.1.36,1.12.52,3.41.27,3.68.75-.79,1.66-.56,2.51,0-.84-3.71.79-1,.18-4.08a12,12,0,0,1-1-5.13c.28.2.13,1.65.31,2.42.18-2.08.81,3.24.89,0-.69,1.32.22,4.6.32,7.56.4-1.73.15,2.09.66,2a8.82,8.82,0,0,1,1.56-3.64c.94,2.77,2,0,2.65-.12.41,1.47.28,4.83.68,5.4.44-.07-.44-3.61.26-2.08l0,.65c.19-.77,1.24,2.26,1.36-2.56l-.15,3.63c.13.33.23-.5.33-.88v3c.41,2.49.8-.41,1.25-.53l-.29-2.13c.75-1.69,1.25.43,2-.33l-.06,2.08.45-1.26c-.14,2,.21,3.34.48,1.64l-1.17,5.14c-.27-1.23.36-2.54.21-4.59-.14-1.81-.82-1.22-.92.81.24.22.26-.25.45-1,.05,2.92-.31,2.8-.51,4.77.13-.14.3.76.33-.17-.25,1.41-.5,1.64-.9,1.72l0-2.64c0,2.58-.42,3.38-.92,2.67-.39-3-.9,1.93-1.47,1.12a27.36,27.36,0,0,1,.77-5.75c-.4-1.29-.42.07-.84-1.23-.13,2-.17,4.92-.6,6.11l-.1-1.93c-.41,1-.28,3.84-.84,3.3a5.08,5.08,0,0,0-2.64-1.12l-.16-1.89c-.1,4.12-1.22,1.67-1.59,3.53-1.08-1.73-1.77,2-2.58-1.18-1.44,1.67-2.61,3.28-4.34,2.76l-.13-2.79c0,2.07-.42-1.56-.67-1.1.67,2.14,0,2.89.09,4.6-1.06-2.08-1.64.4-1.93,2.48l-.36-1.87c0,3.67-1.32.72-2.25.32-.24-.76-.72-2.52-.93-2.25a17.32,17.32,0,0,1-.39,5c-.47.09-1.37-.52-2.1-1.59-.84,4.63-3.21,2.17-4.4,5.21l-.67-2.13c-.57,5.14-3.79,1.49-4.64,4.27l-.87-3.74c-.79-1-.81,1.25,0,3.85-.79-1-.65,2.11-1.82-.86-.68-.54-.09,1.87-.33,2.48-1.36-1.13-1.63-.77-2.32.24l.3.15a6.69,6.69,0,0,0-.91-2.56c0,1.12-1.54-.59.14,3.68-1.74-2.22-1.55,2.8-3.57-.31a7.77,7.77,0,0,1,.47,2.31c-.81.32-2.49-1.83-2.48.42-.33-.56-.47-2.09-.85-2.11l.49,2.3c-.59,2.65-3.51-1.39-4.56-.41-1.35,3.11-4,2.82-6,4l-.31-.87c.57,3.55-2.93-2.74-1.58,2.4-.47-.74-.77-.14-1.3-1.84.37,2.53-2.42-1.6-2,1.67v-.56c-1.57-1.56-1.24,1.34-2.78,0a6.18,6.18,0,0,0-.34-1.6c-1-1.5.69,3.93-1.18-.11a4.56,4.56,0,0,0,.77,1.95c-2.51-.8-3.44,2.66-5,4.39-2.44-1.86-3-6.85-2.83-3.34-.43-.74.6,1.58.23.76.08,1.31-2.66-4.28-2-2,1.22,2.44.41,1.49,1.07,3-1.55-1.24-2.73-3.39-2.56-1.2l-.52-1.34c.86,4.07-.94,2.49.32,7.07-4,2.67-6.91,6.94-10.75,9.47-4.49,1.11-7.44,5.07-12.69,5-2.7-2.84-2.74-2.72-3.08-.8l-.59-1.19c1.41,2.76-.59.65.7,3.33-1.78.29-2.76,1.79-4.29,2.65.08-.42-1-2.72-1.2-2.39l.65,1.91-.46-.73a5.85,5.85,0,0,0,1.21,2.71c-2.54,4.46-9.36,1.14-12.72,4-1.54-.61-2.21,1.15-2.84,2.27-4.89-1.91-9.33-3.12-10.46,1,0,0-4-7-3.75-9.27"/><path class="g" d="M157.36,509.12a14.72,14.72,0,0,1-.07-4.45Z"/><path class="g" d="M146.07,493.49c0,.46-.22-.61-.27-.86.13-.14.17-1.44.34-.66a5.43,5.43,0,0,0-.07,1.52"/><path class="g" d="M143.06,492.91a3.6,3.6,0,0,1,.8-2.76Z"/><path class="g" d="M139.65,487.6c-.39-1.13-.39-1.77-.05-1.77Z"/><path class="g" d="M139.83,490.74c-.23.06-.44-.73-.65-1.51.16,1.18.45-.79.65,1.51"/><path class="g" d="M133.13,487.53c-.13.12-.25,1.32-.63-.17.32,1,.42-1.84.63.17"/><path class="g" d="M130.73,490.12c-.1-.06-.18-.3-.22.1a3.13,3.13,0,0,1-.17-1.76Z"/><polygon class="g" points="85.24 509.37 85.26 508.64 85.72 509.93 85.24 509.37"/><path class="g" d="M66,517.66c.1.9-.72-1.1-.84-1.26.17-.23.62,1.59.84,1.26"/><polygon class="g" points="58.88 528.64 58.93 528.56 60.14 531.12 58.88 528.64"/><path class="g" d="M141.76,353.92c.8-.28,1.05-2.17.88-.74-.67.91-1.2,1.57-.88.74"/><path class="g" d="M1.16,329.48c1.42-7.28,4.05-.1,5.82-4.75.21-.31.06,3.95.54,3,1.7-5.64,4.79-2.34,7.1,1.91l-.13,1.12c.44.79.93-2.9,1.39-2.39a12.75,12.75,0,0,0,0,2.07c.08-2.23.81-1,1-2.71.19.88.18,2.64.42,3.62l.24-2.53c.69-6,1.77.42,2.76-2.71l-.07,1.62c1.6-3.67,3.62-3,5.44-4.31l-.08,3.54c.12-2.67.68-3.34,1.16-3.86.2,2.76.87-2.49,1.43-1l-.06.62c.46-2.89.59,1.66,1-1.78l.23,2.15c.25-3.87.57,2,1,0v-.77c.35-.95.47,1,.79.36l0,.42c.73-1,1.1,1.17,1.14-1.85.21,2.43-.71,1.09-.39,4.61,2.39-3.08,4.8-2.34,7.14-2.33a12.92,12.92,0,0,1,.39,2.76c.26-.61.9-.53,1.18-2.07a5.27,5.27,0,0,0,.21,1.71c.37,1.15.6-3.31,1-1.92l-.3,2.88c.49-2.34,1-1.94,1.51-2.7a7.94,7.94,0,0,0-.24,1.77c.64-2.66.91.6,1.44-1l-.25,1.72c.62,2.16.39-3.64,1-2.35l-.21,2c.75-3.14,1.64-2,2.29-3.09l-.06.73c.65-.35,1.27.66,2.05-.69.21.81-.33,4.26.38,3.66.19-3.51,1.23-1.39,1.07-5.37.56.61,1.39,2,1.85.82-.35,1.31,0,4.29-.5,4.55l.22,2.17c-.14,1.41-.33-.53-.34,1.28.24-.12,1-1.47,1.2-.9.59-2.09,1.29-6.08,2-6.48-.44,1.34-.09,3.88-.36,4.45l1.5-6.61c.25-.14-.16,2.77.26,1.9l.41-2.25c.06.41,1.08-.78.91,2.67,0,1.36-.44.68-.27,1.95.44,0,.55-1.18,1-1.19l0,.46c.24.53,1-1.39.81-3.33-.19-.12-.09,2.09-.31,1.06.37-2,.94-2.5,1.39-2.49L59.8,322a12.35,12.35,0,0,1,2.33-4.52c.15-1.64-.52,3-.54,2.08.65,2.35,2.08-3.06,2.49.32-.15.27.16-2.34.12-1.87.4.23.15,2.62.5,1.77-.1,1.37.39-.43.71-.84.25-1,0,.68-.25.82.5-1.15,2.29-3.15,3-1,.07-.94.9-3.3,1.09-3.19l-.3,2.14c.06,1.31.72-.11.56,1.74.71-2.57-1.94,2-1.13.08,0,1.8,1.19-3.34.75-.41.43,0,1.09-2.4,1.28-.34-.08-.36-.67,2.94-.32,2.81.64-.3.28-1,.84-1.67l.4-.84c.26-2.08.5.37.55-2-.13,1.73,1-1,.51,2.5L72,322.3c.29-.18.76-2.82,1.11-4L73,319.54c.54-4.17.57.43,1.26-2.76.37,1.51,1.35.3,1.29,2.92.57-1.21,1.14-2.67,1.5-1.72a4.17,4.17,0,0,0-.43,1.38c.14,1.27.35.17.71-.47a29.3,29.3,0,0,0,.4,4,20.37,20.37,0,0,0,.95-4.83c-.17,4.15,1.53-2.51,1.5,1.31a6,6,0,0,0-.69,3c-.19,4.16,1.18-2.93,1.51-.87l.33-3.42c0,2.15,1.18-1.84.62,1.63.38-1.21.55,1.23,1-2.1.57,3,2.7-1.31,2.38,4.74.23-.55.5.07.69-1.63.06-1.9-.54,1.26-.42,0a4.91,4.91,0,0,0,.39-1.43c.19.8.4,1.09-.33,3.79.35,2.14,1.61-5.55,2.28-4.11-.26,1.39-.28,1.91,0,1.72l.87-2.26c.48.63-.21,3.18-.58,5.48.37-.35.72-.19,1.15-1.89l-.13,3c.09-2.14.48-1.37.72-1.91l-.24.54c-.11,1,.34.44.57.18a4.9,4.9,0,0,0-.18-2.51c.34-1,.53-.73,1-1.9-.46,2.25.21,1.69.4,2,.19.53.67-2,.75-1.91-.2,1.18.41.3-.1,1.9-.15.37,0-1.19-.34-.18,0,.92-.37,3,.28,1.55.48-1.08.73-4.51,1-3L92.4,322l.28,1.29.4-2.06-.12,1c.55-2.14.89-.51,1.46-2.94.3-.16.27,1.54.47,1.84l-.08.16c.07,1.28.61.55,1.14-.8l-.11.46c.14.19.57-.05,1-1.22.1,1.65-1.4,7.82-.43,5.31.42,0,1.4-3.65,1.5-5,.46,1.54,2-1.62,2,1.7l.66-1.8c.92,1.05,2.88-1.94,2.87,2.26l-.73,3.22c.66-1.78-.12,2,.68-1.15a10.33,10.33,0,0,0,.47-3.56c.89-.89,1.91-.65,1.87,1.19l.56-2c-.74,2.95-.36,3.52.25,2.55l.48-1.77-.19,1.91c.27-.54,1-3.74,1-1.91l-.35,2c.74-1.39,1.9-3.74,1.94-2.11l-.31,2.7a4.69,4.69,0,0,0,.81-2.56c.32,1.75.72,2.06.35,4.4,2.64-5.2,4.53-4.95,5.84-4.19l-.42,1.32c0,1.35.86-2.27.86-1.28-.48,1.24-.49,2.84-1.23,4.31.14,1.54,1.36-2.12,1.89-2.63.56-1.73-.61,1,.09-1.16.25-.6.38,1.57,1.23-1l-1.24,4,.71-1.17c-.5,3.19-2.51,5.21-3.2,9.15l.41-.34c-.53,2.82-1.68,2.9-1.23,4.06a23.34,23.34,0,0,0,2.15-6.2c.89-.52,2.18-6.19,2.86-5.7-.26,1.61-.71.17-1.21,2.38-.3,2.23,1-.95,1.13-.11a9.87,9.87,0,0,1,1.44-4.08c0,1.38-1,2.42-.56,2.86.55-1.48,1.41-2.47,1.3-3.64,1.28-3.39.28,1.12,1.42-1.44-.6,2.47-2.31,5.39-2.12,6.79.65-2.34,1.74-2.91,2.52-6.46a12.16,12.16,0,0,1-1.16,3.95c-.13,1.53,2.18-4,.8.66l.88-2.33c-.14.81-.18,1.45-.44,2.78.27.14,2-2.88.79.67.22-.34.83.05,1.41-2.51.09-1.65-1.09,1.64-.2-1.75-.62,2.8.72-.17,1.28-1l-.43,1.37c.33-.47.55-.06,1.17-1.53a6,6,0,0,0-.65,2.07l.88-2c1-.84-1.14,3.72-.37,3.31l-1,1.48c.22-.33-.27,1.71.23,1.13.76-1.86,1.77-4.09,2.39-5.54.62-.72-.62,2.2.41.35l-1.24,2.14c-.28.61-.84,3.25-.4,3.33.5-.56,1.92-3.16,1.87-4.34.23,0,.11,1.29-.57,2.62.74-.48.68-2.05,1.54-3.08-.3,1.31-.41,3.29-.78,5.23l-1.61,3,.28.1c-1.31,2.42-.55,2-1.74,4.61,0,.5.6-.36,1-1,1-4.51,2.83-5.58,4.15-9.54,1.23-.73-3.15,9.67,0,3.92.26-1.07,1.81-3.86.86-3,.33.64,1.88-3.75,1.84-1.89-1.07,1.41-1.1,4.13-2.64,6.16.56-1.25.05-1.11-.19-.79-.39,1.57-1.58,3.9-1.1,4.1.44-.25.88-.15,1.63-2.18.88-2.22-.55,0,.54-2.14.92-.5-.35,2.91,1.5-.91-.5.15.31-2.17.94-3.7l.83-.71-.69,1.43c.31,1.36,1.32-2.58,1.88-1.87l-.87,3c-1.21,2.42-.58-1.55-2.12,2.59.38.33,1.39-1.66,1.38-.43l-.66.67c.11.2-2,5.65,0,2.77.85-1.08.71-1.4,1.36-2.91.92-.14,1.81-1.59,2.4-1.62-1.4,2.9.71.64-1.15,3.42.53-1.82-.62-2.11-2.08.62-1.25,3.6-.35-.74-2,2.73.53.33-1,3.74-1.85,6,.07.25.62-.66.86-1,1-2.1.78-2.16,1.71-4.35.37.85,1.48-.08,2.76-2a8.79,8.79,0,0,1-1.6,3.3c1-.31,1.66.34,2.07,1.25,1.15-3.61,1.16-.48,2.19-3.44a12.16,12.16,0,0,1,1.71-4.92c.15.31-.7,1.49-.94,2.25,1.19-1.72-.93,3.19.78.39-1.23.8-2.13,4.09-3.52,6.7,1.19-1.3-.92,1.88-.45,2.08A8.77,8.77,0,0,1,140,338.1c-.61,2.84,1.63.95,2.29,1.18-.41,1.49-2.2,4.32-2.16,5,.41.15,1.45-3.34,1.27-1.68l-.37.56c.56-.59-.09,2.55,2.42-1.55l-1.94,3.06c-.05.36.44-.33.71-.61l-1.52,2.61c-.9,2.35.89,0,1.31.15l.83-2c1.48-1.1.83,1,1.82.68l-1.09,1.77,1-.87c-1.14,1.68-1.51,3-.43,1.63l-3.56,3.89c.38-1.2,1.57-2,2.48-3.88.8-1.62-.06-1.43-1.18.26.09.31.34-.08.89-.64-1.43,2.55-1.68,2.27-2.82,3.87.16-.06-.13.79.35,0-.93,1.11-1.24,1.18-1.61,1.06.8-.85.77-1.61,1.29-2.3-1.32,2.21-2,2.71-2.09,1.86,1.15-2.76-1.73,1.24-1.79.25a29.11,29.11,0,0,1,3.52-4.6c.31-1.31-.39-.13-.09-1.45a37.3,37.3,0,0,1-3.55,5l.88-1.7c-.83.66-2.15,3.16-2.34,2.44a4.91,4.91,0,0,0-1.63-2.26l.81-1.71c-2.15,3.54-1.85.87-3.09,2.29,0-2-2.48.92-1.55-2.26-2,.74-3.79,1.55-5,.28l1.27-2.47c-1,1.78.42-1.57,0-1.29-.51,2.18-1.42,2.51-2.22,4,.15-2.32-1.54-.45-2.81,1.22l.63-1.82c-1.83,3.17-1.46,0-2-.82.17-.77.63-2.51.33-2.39a17.08,17.08,0,0,1-2.78,4.13c-.42-.12-.88-1.07-1-2.37-3,3.63-3.72.34-6.19,2.39l.49-2.19c-3,4.2-3.88-.53-5.95,1.47l1.1-3.68c-.17-1.28-1.28.7-1.84,3.37-.16-1.26-1.56,1.53-1.09-1.62-.29-.81-1,1.59-1.48,2-.58-1.65-1-1.44-2-.92l.16.28a6.71,6.71,0,0,0,.49-2.67c-.57,1-1-1.27-1.66,3.28-.39-2.78-2.65,1.68-2.82-2a8.25,8.25,0,0,1-.74,2.23c-.82-.11-1.18-2.81-2.26-.84,0-.64.63-2.06.32-2.25-.3.44-.33,1.61-.71,2.25-1.76,2-2.25-2.92-3.59-2.58-2.63,2.06-4.7.49-6.87.55l.17-.9c-1.24,3.37-1.14-3.82-2.48,1.33,0-.88-.58-.51-.2-2.25-.91,2.39-1.25-2.57-2.51.45l.28-.47c-.56-2.14-1.67.55-2.31-1.4a5,5,0,0,0,.49-1.54c-.13-1.79-1.3,3.77-.93-.67a4.65,4.65,0,0,0-.28,2.08c-1.73-1.92-4.14.64-6.24,1.4-1.15-2.81.71-7.45-.78-4.29,0-.85-.25,1.67-.16.76-.58,1.2-.19-5-.73-2.74-.15,2.72-.36,1.5-.55,3.15-.7-1.83-.65-4.3-1.55-2.3l.19-1.43c-1.21,4-2,1.72-3.09,6.33-4.58.42-9.06,2.69-13.48,3-4.28-1.21-8.62.8-13-1.86-.94-3.79-1-3.71-2.22-2.19l.08-1.33c-.13,3.1-.82.28-1,3.23-1.63-.6-3.16.23-4.85.24.27-.34.43-2.88.12-2.67l-.35,2-.05-.85a6.21,6.21,0,0,0-.27,3c-4.2,2.64-8.38-3.58-12.54-2.71-1-1.27-2.39-.08-3.44.57-3.21-4-6.4-7.25-9.25-4.2,0,0-.14-8,1.16-9.93"/><path class="g" d="M141.06,353.89a15.82,15.82,0,0,1,2.18-3.89Z"/><path class="g" d="M139.48,334.89c-.21.42.13-.62.21-.87.17-.06.85-1.17.61-.4-.18,0-.48.71-.82,1.27"/><path class="g" d="M137.25,332.92a3.56,3.56,0,0,1,2-2Z"/><path class="g" d="M137,326.66c.24-1.17.54-1.73.84-1.57Z"/><path class="g" d="M135.62,329.45c-.23-.06,0-.84.2-1.61-.47,1.1.78-.47-.2,1.61"/><path class="g" d="M131.59,323.4c-.17,0-.86,1-.45-.46-.24,1,1.26-1.38.45.46"/><path class="g" d="M128.29,324.48c0-.12,0-.36-.23,0a3.09,3.09,0,0,1,.73-1.62Z"/><polygon class="g" points="80.78 319.02 81.14 318.4 80.92 319.75 80.78 319.02"/><path class="g" d="M60.69,316.88c-.35.84-.08-1.3-.11-1.5.26-.13-.23,1.67.11,1.5"/><polygon class="g" points="49.46 322.97 49.54 322.93 49.34 325.74 49.46 322.97"/><path class="g" d="M336.36,140.91c.51.67,2.4.33,1,.61-1.08-.36-1.87-.67-1-.61"/><path class="g" d="M307.5.31c7.24-1.63,1.75,3.71,6.72,3.47.37.09-3.59,1.64-2.51,1.7,5.88-.69,4.11,3.52,1.14,7.36l-1.08.34c-.54.72,3-.31,2.76.33l-1.9.8c2.08-.8,1.27.35,2.87-.14-.72.52-2.35,1.22-3.14,1.83l2.42-.78c5.82-1.76.33,1.82,3.59,1.48l-1.51.58c4,0,4.22,2.19,6.13,3.35L319.71,22c2.51-.94,3.35-.68,4-.43-2.45,1.25,2.64-.18,1.47.93l-.6.19c2.83-.7-1.29,1.21,2,.22L324.74,24c3.65-1.28-1.64,1.33.34.91l.72-.3c1,0-.75.84,0,.88l-.4.2c1.21.27-.63,1.47,2.17.33-2.16,1.14-1.29-.23-4.42,1.45,3.78,1,4.07,3.55,5,5.75l-2.38,1.43c.66,0,.84.65,2.37.31a5.33,5.33,0,0,0-1.5.85c-.9.8,3.29-.71,2.18.21L326,36.8c2.36-.45,2.19.19,3.1.37a7.45,7.45,0,0,0-1.73.45c2.69-.43-.2,1.09,1.53.94l-1.68.44c-1.76,1.41,3.5-1,2.53,0l-1.88.54c3.19-.51,2.53.76,3.73.95l-.7.24c.6.47-.11,1.43,1.44,1.66-.65.5-4,1.32-3.22,1.75,3.3-1.17,1.75.63,5.37-1.05-.35.75-1.3,2.05,0,2-1.35.18-3.95,1.64-4.39,1.28l-1.9,1c-1.37.42.33-.51-1.34.19.22.18,1.77.39,1.3.78,2.17-.26,6.13-1.15,6.77-.57-1.39.1-3.61,1.4-4.24,1.36l6.69-1.13c.22.19-2.63.92-1.66,1l2.23-.47c-.35.21,1.13.73-2.12,1.87-1.24.52-.8-.16-1.9.48.17.42,1.31.08,1.49.49l-.43.16c-.4.44,1.65.39,3.38-.5.05-.23-2,.71-1.09.1,2-.39,2.67-.05,2.84.37l-2.4.54a12.29,12.29,0,0,1,5.08.47c1.57-.48-2.94.64-2.13.28-1.94,1.51,3.62.8.65,2.48-.3,0,2.22-.74,1.79-.6-.07.47-2.37,1.13-1.43,1.15-1.33.42.53.2,1,.35,1-.14-.64.27-.85.07,1.26,0,3.78,1,2.05,2.44.89-.28,3.39-.38,3.37-.15l-2.1.51c-1.2.56.37.65-1.41,1.18,2.65-.28-2.6-1.08-.5-1-1.68.63,3.54-.13.67.56.19.38,2.63.13.81,1.07.29-.21-3,.48-2.74.76.52.49,1-.11,1.86.18l.94.05c2-.55-.15.61,2.07-.23-1.65.52,1.27.57-2.12,1.43l-2.66.63c.26.2,2.89-.34,4.11-.46l-1.17.41c4.08-1-.17.7,3,.16-1.25.91.25,1.4-2.22,2.31,1.36.09,2.92.09,2.17.78a4.61,4.61,0,0,0-1.45.11c-1.12.6,0,.4.71.5a29.27,29.27,0,0,0-3.58,1.87,20.68,20.68,0,0,0,4.84-.89c-3.91,1.37,2.87.54-.67,1.91a5.94,5.94,0,0,0-3.06.47c-3.93,1.36,3.16,0,1.36,1.11l3.3-1c-2,.77,2.16.45-1.28,1.2,1.27-.09-.93,1,2.31.14-2.53,1.64,2.23,2.09-3.52,4,.59,0,.12.5,1.78.05,1.78-.64-1.39,0-.15-.4a4.33,4.33,0,0,0,1.48-.15c-.67.47-.87.78-3.65,1.08-1.87,1.12,5.73-.51,4.66.66-1.38.25-1.88.42-1.6.64h2.44c-.41.69-3,1-5.32,1.46.47.22.43.61,2.19.41l-2.83,1c2-.7,1.45,0,2.05,0l-.6,0c-1,.27-.27.49.05.61a4.71,4.71,0,0,0,2.27-1.09c1.07,0,.88.24,2.13.21-2.28.38-1.48.82-1.7,1.11-.44.38,2.07-.07,2,0-1.17.24-.13.51-1.8.6-.4,0,1.1-.44,0-.4-.85.37-2.91.73-1.34.82,1.18.09,4.46-.93,3.13-.1l-2.33.15-1.09.74,2.06-.36-1,.23c2.2-.25.8.66,3.27.33.26.23-1.34.82-1.54,1.11l-.18,0c-1.16.53-.3.79,1.15.8l-.47.07c-.14.2.26.54,1.51.54-1.51.69-7.81,1.48-5.11,1.5.14.4,3.91,0,5.22-.37-1.28,1,2.23,1.34-.85,2.56h1.91c-.64,1.24,2.87,2.06-1.07,3.54-.94-.19-2.09.27-3.28.45,1.92,0-1.87.59,1.34.24,1.87-.29,2.79-.38,3.49-.81,1.16.53,1.23,1.62-.49,2.23l2-.16c-3,.34-3.41.91-2.3,1.16l1.84-.17-1.87.48c.61.07,3.86-.3,2.15.3l-2,.35c1.56.21,4.17.51,2.67,1.12l-2.65.64a4.49,4.49,0,0,0,2.69-.11c-1.53.91-1.68,1.41-4,1.88,5.77.7,6.22,2.62,6,4.16l-1.39,0c-1.26.5,2.44,0,1.5.39-1.33,0-2.83.51-4.46.31-1.41.67,2.46.57,3.13.9,1.8-.05-1.2-.22,1.11-.3.66,0-1.37.9,1.38.83a27,27,0,0,1-4.22.22l1.34.26c-3.19.62-5.75-.63-9.7.07l.45.28c-2.85.46-3.25-.61-4.23.21a22.75,22.75,0,0,0,6.55-.06c.79.68,6.57,0,6.35.78-1.6.31-.41-.62-2.66-.34-2.2.49,1.26.69.5,1.06a9.76,9.76,0,0,1,4.31,0c-1.3.48-2.61-.15-2.88.45,1.58,0,2.8.51,3.87,0,3.62.07-1,.66,1.84.87-2.52.29-5.87-.38-7.11.31,2.42-.19,3.32.66,6.93.2a11.75,11.75,0,0,1-4.12.24c-1.49.4,4.47.75-.36,1l2.5.07c-.82.13-1.41.31-2.76.51,0,.32,3.4,1-.36,1,.39.09.24.82,2.84.51,1.57-.48-1.92-.5,1.58-.81-2.86.38.4.65,1.36.92l-1.45,0c.56.16.25.52,1.84.61a6.23,6.23,0,0,0-2.17.08l2.21.15c1.12.65-3.89.18-3.24.79l-1.72-.47c.38.11-1.7.32-1,.61,2,.11,4.44.33,6,.45.89.35-2.27.14-.19.5l-2.45-.47c-.67-.07-3.33.3-3.27.74.71.3,3.64.8,4.73.34,0,.24-1.19.55-2.67.34.72.55,2.16,0,3.43.44-1.34.17-3.22.72-5.21,1l-3.38-.54v.31c-2.71-.45-2.09.15-4.93-.13-.46.19.48.46,1.21.68,4.64-.49,6.23.86,10.39.83,1.09,1-10.17.17-3.7,1.33,1.1-.11,4.24.48,3.07-.14-.49.53,4.15.56,2.38,1.15-1.67-.56-4.25.3-6.68-.5,1.37.1,1.06-.33.69-.46-1.62.15-4.2-.23-4.24.31.37.33.43.79,2.59.84,2.39.12-.2-.52,2.19-.18.78.72-2.86.62,1.36,1.14-.31-.44,2.16-.4,3.79-.31l.95.58-1.58-.2c-1.18.75,2.87.43,2.39,1.21l-3.16.16c-2.68-.38,1.28-1.07-3.13-1.21-.21.49,2,.81.84,1.2l-.84-.42c-.16.18-6-.08-2.63.89,1.29.45,1.55.22,3.19.35.43.85,2.09,1.24,2.31,1.8-3.2-.41-.39.9-3.61,0,1.89-.08,1.8-1.29-1.26-1.81-3.8,0,.59-.59-3.23-1-.14.62-3.86.29-6.31.2-.2.14.82.38,1.19.51,2.31.26,2.29.05,4.67.22-.68.64.56,1.41,2.77,2a8.49,8.49,0,0,1-3.64-.45c.61.88.21,1.73-.53,2.41,3.79-.06.82,1,3.95,1a12.27,12.27,0,0,1,5.23,0c-.25.25-1.64-.19-2.43-.18,2,.6-3.32.14-.13.88-1.15-.93-4.54-.72-7.47-1.23,1.61.75-2.08-.27-2.12.25a8.91,8.91,0,0,1,3.21,2.24c-2.89.33-.41,1.88-.42,2.59-1.54.08-4.79-.74-5.43-.48,0,.44,3.63.33,2,.68l-.65-.17c.73.34-2.44.72,2.22,1.84l-3.51-.9c-.34.05.45.32.79.5l-2.94-.65c-2.52-.12.23.85.25,1.31l2.15.18c1.5,1.07-.67,1.1-.08,2l-2-.5,1.14.7c-1.94-.57-3.31-.52-1.69.11l-4.8-2.22c1.27,0,2.42.88,4.46,1.17,1.79.27,1.36-.52-.6-1-.27.19.18.3.88.66-2.86-.59-2.68-.91-4.55-1.51.1.15-.8.11.1.35-1.33-.54-1.51-.82-1.51-1.22,1.07.5,1.79.23,2.58.51-2.49-.58-3.2-1.1-2.4-1.43,3,.25-1.72-1.26-.8-1.63a27.94,27.94,0,0,1,5.47,1.93c1.34-.11,0-.42,1.36-.53-1.89-.55-4.76-1.21-5.84-1.87l1.89.32c-.88-.58-3.67-1.06-3.05-1.48a4.79,4.79,0,0,0,1.65-2.26l1.88.22c-4-.9-1.39-1.49-3.13-2.21,1.9-.69-1.68-2.07,1.64-2.21-1.36-1.7-2.7-3.1-1.88-4.65l2.76.41c-2-.39,1.62-.11,1.22-.42-2.24.22-2.85-.53-4.55-.79,2.21-.63,0-1.61-2-2.27h1.93c-3.62-.69-.49-1.39.07-2.19.79-.1,2.59-.25,2.37-.49a17.93,17.93,0,0,1-4.84-1.25c0-.46.73-1.21,1.93-1.71-4.39-1.59-1.62-3.42-4.31-5l2.23-.28c-5-1.38-.86-3.83-3.46-5.09l3.84-.24c1.14-.6-1.1-1-3.81-.55,1.13-.6-2-.94,1.15-1.6.65-.56-1.83-.37-2.38-.69,1.35-1.11,1-1.43.18-2.22l-.21.25a6.94,6.94,0,0,0,2.67-.48c-1.06-.19.84-1.39-3.64-.41,2.46-1.32-2.52-1.88.87-3.34a9.09,9.09,0,0,1-2.36.11c-.19-.82,2.19-2.11,0-2.42.59-.25,2.14-.15,2.21-.51l-2.34.13c-2.54-.9,1.92-3.14,1.11-4.27-2.81-1.71-2.16-4.21-3-6.22l.9-.18c-3.58.09,3.14-2.46-2.14-1.82.81-.36.25-.71,2-1-2.57,0,1.92-2.13-1.36-2.18l.54.08c1.82-1.31-1.12-1.34.45-2.66a5.31,5.31,0,0,0,1.63-.13c1.61-.78-4,.18.27-1.12a4.71,4.71,0,0,0-2,.52c1.14-2.33-2.15-3.64-3.64-5.31,2.17-2.12,7.17-2.13,3.68-2.33.79-.32-1.65.4-.78.13-1.31-.09,4.59-2.06,2.28-1.72-2.58.9-1.53.24-3.12.7,1.45-1.36,3.73-2.24,1.54-2.33l1.4-.36c-4.14.36-2.35-1.19-7-.48-2.14-4.11-5.93-7.42-8-11.36-.54-4.44-4.07-7.68-3.34-12.74,3.13-2.34,3-2.41,1.15-2.89l1.26-.46c-2.9,1.09-.59-.65-3.37.35-.09-1.75-1.45-2.83-2.13-4.38.41.11,2.81-.74,2.51-.95l-2,.44.77-.37a6.15,6.15,0,0,0-2.84.93c-4.08-2.85,0-9.17-2.51-12.66.76-1.44-.9-2.24-1.92-2.95,2.4-4.56,4-8.83.11-10.17,0,0,7.25-3.41,9.53-3"/><path class="g" d="M336.18,140.22a15.2,15.2,0,0,1,4.36.89Z"/><path class="g" d="M353.8,132.66c-.45-.07.64-.08.91-.09.1.16,1.37.45.57.47-.1-.16-.83-.23-1.48-.38"/><path class="g" d="M355,129.85a3.58,3.58,0,0,1,2.55,1.33Z"/><path class="g" d="M360.81,127.57c1.18-.15,1.81,0,1.75.3Z"/><path class="g" d="M357.7,127.13c0-.24.81-.3,1.61-.34-1.2-.08.68.59-1.61.34"/><path class="g" d="M362.14,121.19c-.1-.16-1.22-.5.32-.6-1.08.13,1.67.78-.32.6"/><path class="g" d="M360.07,118.32c.1-.08.34-.12-.05-.22a3,3,0,0,1,1.77.16Z"/><polygon class="g" points="348.39 70.79 349.12 70.9 347.77 71.18 348.39 70.79"/><path class="g" d="M342.77,51c-.92,0,1.17-.57,1.35-.67.21.19-1.65.41-1.35.67"/><polygon class="g" points="332.79 42.73 332.86 42.8 330.19 43.7 332.79 42.73"/><path class="g" d="M503.93,135.93c.15.82,1.93,1.47.58,1-.78-.83-1.32-1.48-.58-1"/><path class="g" d="M569.42,21.27c6.34,3.8-1.28,3.47,2.47,6.65.21.28-3.7-1.38-3-.62,4.67,3.48.64,5-4.14,5.36l-1-.52c-.89.09,2.38,1.84,1.74,2a13.13,13.13,0,0,0-1.91-.77c2,.89.69,1.07,2.18,1.83-.87-.16-2.52-.8-3.51-1l2.27,1.14c5.4,2.79-1,1.35,1.59,3.33l-1.48-.64c2.88,2.69,1.57,4.16,2.21,6.21L563.59,43c2.45,1.08,2.88,1.8,3.21,2.42-2.62-.85,2.05,1.65.46,1.56l-.55-.26c2.52,1.45-1.74-.1,1.33,1.5l-2.09-.6c3.52,1.64-2.08-.25-.38.79l.73.29c.76.64-1.11,0-.61.55l-.42-.15c.68,1-1.47.5,1.33,1.66-2.33-.73-.76-1-4.16-2,2,3.15.57,5-.24,6.94a13.47,13.47,0,0,1-2.68-.68c.47.44.18,1,1.53,1.76a6.08,6.08,0,0,0-1.67-.45c-1.2-.09,2.87,1.73,1.46,1.58l-2.59-1.33c2,1.29,1.46,1.58,2,2.3a8.82,8.82,0,0,0-1.56-.87c2.26,1.52-.86.56.51,1.63l-1.51-.86c-2.2-.25,3.25,1.69,1.87,1.7l-1.73-.91c2.67,1.79,1.37,2.17,2.14,3.11l-.66-.33c.14.71-1,.86,0,2-.8-.12-3.83-1.85-3.5-1,3.21,1.45.84,1.54,4.61,2.89-.76.24-2.33.43-1.4,1.25-1.09-.77-4-1.59-4.07-2.1l-2.08-.61c-1.27-.65.61-.09-1.08-.77,0,.25,1,1.42.4,1.35,1.76,1.27,5.22,3.33,5.33,4.12-1.09-.86-3.57-1.5-4-2l5.64,3.73c.06.26-2.51-1.16-1.84-.48l2,1.19c-.41-.11.36,1.2-2.78-.21-1.26-.5-.49-.64-1.7-1-.15.38.9.92.76,1.3l-.41-.18c-.58,0,1,1.34,2.81,1.92.18-.13-1.91-.85-.87-.66,1.7,1.05,2,1.73,1.86,2.11L556.8,74a13,13,0,0,1,3.45,3.65c1.47.73-2.58-1.54-1.76-1.23-2.4-.31,2.15,2.91-1.12,2-.2-.23,2.12,1,1.7.79-.34.26-2.49-.84-1.8-.21-1.25-.61.26.48.54.91.82.57-.64-.25-.68-.52.9.85,2.17,3.11,0,2.93.83.41,2.78,2,2.6,2.14l-1.89-1.06c-1.22-.44-.11.66-1.77-.16,2.15,1.56-1.29-2.43.26-1-1.66-.7,2.72,2.27.15.8-.09.39,1.9,1.84-.05,1.24.36.06-2.53-1.66-2.52-1.31.09.66.85.62,1.29,1.34l.65.66c1.87,1-.46.3,1.71,1.2-1.56-.74.61,1.22-2.45-.45l-2.41-1.35c.07.31,2.39,1.69,3.37,2.42L555,86.3c3.7,2-.55.35,2.18,2.11-1.54-.25-.75,1-3.18,0,.93.92,2.09,2,1.07,1.9a4.78,4.78,0,0,0-1.12-.87c-1.24-.35-.29.23.18.77a30.23,30.23,0,0,0-3.89-1.13,23.79,23.79,0,0,0,4.17,2.58c-3.8-1.68,1.82,2.22-1.7.79a6.27,6.27,0,0,0-2.58-1.68c-3.81-1.7,2.34,2.07.32,1.6l3.08,1.54c-2-.81,1.35,1.7-1.71-.06,1,.76-1.31,0,1.64,1.6-2.92-.6.38,2.8-5.14.31.44.41-.22.41,1.3,1.19,1.75.74-1-.93.14-.36a5.29,5.29,0,0,0,1.21.86c-.79-.12-1.13,0-3.41-1.68-2.11-.47,4.63,3.42,3.09,3.47-1.2-.73-1.67-.93-1.59-.61l1.83,1.58c-.74.17-2.89-1.34-4.93-2.5.22.44,0,.68,1.41,1.67l-2.73-1.2c2,.86,1.12.92,1.55,1.33l-.43-.41c-.9-.45-.51.13-.34.43a5.28,5.28,0,0,0,2.39.76c.83.65.51.73,1.48,1.51-2-1.22-1.65-.44-2-.37-.55,0,1.63,1.29,1.54,1.32-1-.6-.38.26-1.73-.76-.28-.27,1.1.42.27-.24-.87-.31-2.65-1.39-1.5-.31.85.81,3.95,2.26,2.45,2L546.43,102l-1.26-.21,1.8,1.09-.88-.47c1.83,1.25.22,1,2.31,2.33.07.33-1.49-.31-1.82-.24l-.13-.13c-1.19-.4-.68.34.43,1.27l-.4-.24c-.22,0-.1.51.86,1.32-1.56-.5-6.86-4-4.79-2.27-.13.37,3,2.53,4.21,3.09-1.56-.14,1,2.35-2.16,1.18l1.47,1.19c-1.29.41.88,3.15-3.07,1.61a12,12,0,0,0-2.78-1.77c1.45,1.2-1.82-.81.85,1a11.56,11.56,0,0,0,3.19,1.68c.53,1.07,0,1.86-1.69,1.17l1.66,1.19c-2.53-1.7-3.16-1.56-2.46-.69l1.52,1-1.71-.85c.42.43,3.16,2.24,1.48,1.55l-1.72-1c1.08,1.14,2.94,3,1.42,2.43L540.33,116a5.17,5.17,0,0,0,2.16,1.61c-1.73-.35-2.12-.11-4.18-1.25,4.08,4.1,3.33,5.64,2.26,6.51l-1.13-.82c-1.27-.45,1.89,1.53,1,1.19l-3.67-2.56c-1.49-.43,1.59,1.9,1.92,2.53,1.45,1.09-.81-.87,1.05.5.5.41-1.56-.23.64,1.41a29.58,29.58,0,0,1-3.43-2.46l.92,1c-2.83-1.54-4.21-4-7.67-6l.21.48c-2.5-1.43-2.26-2.46-3.46-2.47a26.35,26.35,0,0,0,5.2,4c.27,1,5.2,4,4.62,4.47-1.43-.77,0-.68-1.92-1.87-2-1,.64,1.25-.16,1a11.38,11.38,0,0,1,3.43,2.64c-1.28-.47-2-1.7-2.51-1.45,1.23,1,2,2.08,3.06,2.38,2.84,2.25-1.09-.14,1,1.71-2.14-1.34-4.46-3.84-5.8-4.12,2,1.34,2.31,2.5,5.4,4.37a13.71,13.71,0,0,1-3.39-2.35c-1.38-.62,3.2,3.25-.77.49l1.94,1.56c-.71-.41-1.27-.64-2.45-1.31-.19.19,2.22,2.72-.8.48.26.29-.21.72,2,2.06,1.5.61-1.29-1.49,1.66.41-2.46-1.47,0,.68.63,1.44l-1.18-.83c.38.44-.07.51,1.17,1.52l-1.78-1.25,1.69,1.45c.57,1.1-3.2-2.22-3-1.41l-1.16-1.35c.26.3-1.51-.8-1.09-.18,1.55,1.28,3.36,2.89,4.57,3.9.51.77-1.91-1.27-.45.22L535.19,132c-.49-.44-2.84-1.8-3.05-1.47a10.77,10.77,0,0,0,3.61,3.05c-.11.18-1.28-.34-2.35-1.36.26.78,1.77,1.26,2.51,2.33-1.17-.68-3-1.45-4.77-2.41l-2.43-2.39-.18.2c-1.93-1.92-1.77-1.13-3.89-3-.47-.14.16.61.62,1.2,4,2.39,4.57,4.3,8,6.74.4,1.3-8.29-5.89-3.65-1.26.93.58,3.19,2.83,2.54,1.71-.65.09,3.08,2.83,1.37,2.2-1.08-1.38-3.59-2.28-5.17-4.28,1.06.89,1,.4.79.1-1.38-.85-3.28-2.63-3.58-2.29.12.47,0,.82,1.68,2.14,1.87,1.47.09-.5,1.85,1.14.28,1-2.61-1.23.54,1.61,0-.5,2,1,3.24,2l.48,1-1.18-1.06c-1.33-.18,2.12,2,1.35,2.23l-2.65-1.74c-2-1.82,1.57,0-1.94-2.66-.41.22,1.24,1.73.08,1.33l-.48-.77c-.21,0-4.85-3.55-2.58-.92.83,1.08,1.16,1.06,2.43,2.1-.06.85,1.1,2.07,1,2.59-2.43-2.12-.76.42-3-2.07,1.59,1,2.1.14-.13-2-3.1-2.22.77-.08-2.12-2.61-.42.36-3.3-2-5.26-3.52-.23,0,.48.77.71,1.07,1.76,1.53,1.86,1.36,3.71,2.85-.88.07-.26,1.33,1.26,3a9.29,9.29,0,0,1-2.76-2.42c.07,1-.69,1.36-1.64,1.44,3.16,2.1.18,1.16,2.76,3a13.63,13.63,0,0,1,4.29,3c-.33,0-1.26-1.09-1.93-1.52,1.37,1.55-2.8-1.79-.52.55-.5-1.32-3.41-3.09-5.58-5.11,1,1.45-1.58-1.37-1.88-1a10.49,10.49,0,0,1,1.69,3.52c-2.52-1.33-1.1,1.24-1.39,1.77-1.31-.76-3.67-3.15-4.33-3.28-.18.34,2.88,2.19,1.38,1.6l-.46-.48c.47.65-2.36-.74,1.09,2.63l-2.57-2.57c-.31-.14.25.49.47.81L511,136.61c-2.06-1.43-.18.81-.34,1.18l1.74,1.25c.81,1.64-1,.54-.89,1.52L510,139.13l.67,1.14c-1.42-1.45-2.6-2.11-1.48-.79L506,135.25c1.07.64,1.65,1.94,3.27,3.23,1.42,1.12,1.38.29-.05-1.16-.31,0,0,.33.47,1-2.19-1.93-1.89-2.1-3.22-3.56,0,.18-.73-.3-.07.34-.9-1.13-.92-1.45-.74-1.78.68,1,1.41,1.11,2,1.75-1.86-1.75-2.22-2.55-1.4-2.41,2.41,1.74-.88-1.95.07-1.78a31.2,31.2,0,0,1,3.73,4.46c1.18.6.19-.34,1.39.29a35.17,35.17,0,0,1-4.08-4.62l1.45,1.27c-.48-1-2.61-2.84-1.89-2.86a4.13,4.13,0,0,0,2.39-1l1.47,1.22c-2.88-2.94-.38-1.9-1.46-3.44,1.94.56-.26-2.52,2.56-.73-.21-2.06-.54-3.9,1-4.6l2,1.92c-1.44-1.48,1.38.86,1.21.39-1.93-1.13-2-2.06-3.26-3.25,2.15.84.84-1.28-.36-2.9l1.54,1.15c-2.47-2.63.49-1.25,1.43-1.47.68.4,2.19,1.37,2.15,1a17.7,17.7,0,0,1-3.18-3.86c.23-.35,1.23-.48,2.45-.13-2.61-3.89.57-3.62-.64-6.51l1.9,1.19c-3-4.08,1.66-3.24.4-5.76l3.11,2.24c1.24.3-.28-1.37-2.61-2.79,1.22.29-1-1.92,1.85-.41.84,0-1.19-1.41-1.43-2,1.72.07,1.63-.38,1.49-1.45l-.32,0A7.33,7.33,0,0,0,523,99.63c-.72-.81,1.53-.38-2.52-2.59,2.75.69-.69-2.85,2.84-1.66A9.3,9.3,0,0,1,521.41,94c.36-.69,2.94-.09,1.43-1.74.59.22,1.73,1.29,2,1.07-.32-.41-1.41-.85-1.89-1.42-1.38-2.31,3.35-1,3.4-2.32-1.09-3,1-4.24,1.66-6.16l.79.47c-2.74-2.3,3.9.42-.45-2.62.83.28.64-.32,2.15.65-1.92-1.66,2.78-.15.37-2.35l.35.42c2.18.31.06-1.62,2.09-1.44a6,6,0,0,0,1.29,1c1.71.55-3.06-2.49.94-.54a5.11,5.11,0,0,0-1.84-1c2.44-.71.75-3.78.68-5.9,3,0,6.69,3.35,4.21.89.79.31-1.48-.84-.66-.42-.94-.94,4.7,1.68,2.76.37-2.48-1.13-1.28-.87-2.76-1.63,2,.07,4.21,1,2.65-.49l1.26.69c-3.29-2.51-1-2.32-4.86-5,1-4.12.55-8.72,1.68-12.6,2.42-3.29,2.05-7.68,6-10.39,3.84.6,3.79.48,2.79-1.07l1.21.55c-2.83-1.24,0-.79-2.66-2,1.15-1.14.84-2.76,1.38-4.2.23.36,2.53,1.43,2.44,1.08l-1.71-1,.82.28a6.6,6.6,0,0,0-2.69-1.3c-1.1-4.55,6.13-5.82,6.74-9.65,1.52-.39.85-2,.57-3.12,4.85-1.29,8.93-2.78,7-6.28,0,0,7.53,2.75,8.88,4.52"/><path class="g" d="M504.09,135.27a16.65,16.65,0,0,1,3.35,2.94Z"/><path class="g" d="M522,138.65c-.34-.31.57.3.79.44,0,.17.91,1.1.24.66,0-.16-.57-.63-1-1.1"/><path class="g" d="M524.37,137.3a3.8,3.8,0,0,1,1.45,2.4Z"/><path class="g" d="M530.3,139.08c1,.58,1.49,1,1.28,1.21Z"/><path class="g" d="M528,137c.11-.17.8.27,1.48.69-.94-.75.26.81-1.48-.69"/><path class="g" d="M534.49,135.43c0-.17-.73-1.08.55-.23-.93-.56,1,1.53-.55.23"/><path class="g" d="M534.41,132.28l.09-.18a3.26,3.26,0,0,1,1.32,1.17Z"/><polygon class="g" points="552.82 93.09 553.29 93.63 552.11 92.94 552.82 93.09"/><path class="g" d="M561.27,76.66c-.66-.61,1.24.41,1.45.46,0,.27-1.49-.82-1.45-.46"/><polygon class="g" points="559.41 64.84 559.42 64.93 556.86 63.72 559.41 64.84"/><path class="g" d="M213.34,220.8c.91,0,1.42-2,1-.49-.83.76-1.49,1.27-1,.49"/><path class="g" d="M88.13,100.12c6.46-3.78,3.46,3.38,8.27,1.61.4,0-2.76,2.82-1.67,2.56,5.45-2.55,5.69,2.27,4.69,7.25l-.89.71c-.18.92,2.81-1.32,2.85-.57a10.5,10.5,0,0,0-1.44,1.46c1.63-1.52,1.41-.06,2.73-1.11L100.52,115l2-1.61c4.78-3.8,1.24,1.74,4.24.28l-1.17,1.13c3.9-1.37,5.15.76,7.62,1.24l-2.46,2.56c1.92-1.88,2.86-1.92,3.64-1.91-1.71,2.17,2.43-1.16,1.86.4l-.46.41c2.34-1.76-.6,1.7,2-.52l-1.25,1.77c2.82-2.66-.86,2,.79.8l.53-.57c.93-.43-.26,1.13.45.88l-.29.35c1.31-.16.18,1.74,2.23-.46-1.45,2-1.34.24-3.42,3.12,4.13-.38,5.77,2,7.82,3.86a12.47,12.47,0,0,1-1.46,2.38c.62-.24,1.14.32,2.38-.64a5,5,0,0,0-.93,1.47c-.43,1.17,2.68-2,2.15-.67l-2.15,2c2-1.4,2.15-.69,3.09-.87a6.23,6.23,0,0,0-1.37,1.15c2.28-1.53.43,1.16,2,.31L127,132.91c-.84,2.14,2.69-2.48,2.37-1l-1.46,1.32c2.69-1.83,2.79-.31,4-.61l-.52.51c.83.22.72,1.47,2.28,1-.32.77-3,3-2,3.11,2.39-2.57,2-.12,4.36-3.33.09.89,0,2.6,1.12,2-1.14.76-2.7,3.34-3.32,3.16l-1.16,1.85c-1,1,0-.66-1.12.74.3.1,1.85-.34,1.66.25,1.84-1.2,4.95-3.78,5.88-3.52-1.23.71-2.5,3-3.1,3.21l5.48-4.07c.32.08-1.85,2.07-.94,1.68l1.76-1.45c-.2.37,1.45.18-.83,2.77-.84,1.06-.83.2-1.45,1.31.4.34,1.23-.5,1.65-.18l-.31.34c-.1.61,1.74-.36,2.79-2-.1-.23-1.36,1.59-.93.61,1.55-1.29,2.38-1.29,2.78-1l-1.85,1.63a11.77,11.77,0,0,1,4.86-1.88c1.13-1.19-2.27,2-1.75,1.26-.85,2.35,3.71-.92,2,2.09-.28.1,1.57-1.76,1.26-1.42.21.48-1.46,2.21-.62,1.77-.93,1,.6,0,1.14-.13.8-.61-.42.55-.72.46,1.14-.54,3.93-.85,3.28,1.34.63-.69,2.79-2,2.91-1.78l-1.56,1.5c-.73,1.1.71.42-.52,1.79,2.17-1.55-3,.26-1.09-.73-1.1,1.42,3.08-1.82,1,.21.4.27,2.41-1.17,1.36.6.13-.33-2.35,1.93-1.95,2.07.75.2.85-.62,1.75-.75l.86-.41c1.46-1.51.24.64,1.67-1.25-1.12,1.31,1.47-.09-1,2.39l-2,1.93c.35,0,2.34-1.77,3.34-2.48l-.78,1c2.93-3,.27.75,2.77-1.37-.55,1.49,1.05,1.18-.53,3.29,1.22-.6,2.58-1.4,2.35-.37a4.11,4.11,0,0,0-1.19.83c-.6,1.15.23.4.92.13-.48.39-1.2,2.25-1.93,3.58,1.2-.58,2.64-2.34,3.63-3.31-2.55,3.31,2.81-1,.62,2.09a5.5,5.5,0,0,0-2.35,2c-2.52,3.31,2.75-1.63,1.9.3l2.23-2.61c-1.22,1.76,2.13-.75-.34,1.75,1-.74-.18,1.39,2.07-1.09-1.12,2.85,3.21.68-.42,5.54.52-.3.42.4,1.53-.9,1.1-1.56-1.19.7-.38-.3.18,0,.83-.61,1.16-.93-.26.78-.22,1.17-2.39,3-.85,2,4.53-3.59,4.36-1.94-1,1-1.31,1.42-.93,1.46l2-1.34c.1.85-1.91,2.55-3.5,4.26.52,0,.76.33,2.08-.84l-1.73,2.45c1.24-1.77,1.19-.84,1.7-1.15l-.51.31c-.65.78.08.6.43.53a4.46,4.46,0,0,0,1.19-2.26c.85-.64.89-.26,1.9-1-1.64,1.62-.72,1.59-.68,1.95-.12.58,1.67-1.25,1.7-1.14-.82.88.24.52-1.09,1.56-.35.19.61-1-.24-.38-.48.8-1.92,2.29-.55,1.48,1-.6,3.07-3.36,2.52-1.88L174.18,164l-.4,1.27,1.46-1.51-.64.77c1.65-1.49,1.12.12,2.92-1.6.37,0-.54,1.48-.51,1.86l-.17.09c-.59,1.14.31.86,1.48,0l-.32.33c0,.25.57.32,1.6-.42-.77,1.49-5.36,5.88-3.14,4.31.38.28,3.19-2.28,4-3.39-.35,1.63,2.7-.18,1.05,2.74L183,167.3c.35,1.48,3.67,0,1.57,3.73-.87.39-1.47,1.51-2.29,2.39,1.51-1.16-1.07,1.66,1.23-.6,1.28-1.41,1.93-2,2.19-2.85,1.26-.23,2.1.57,1.19,2.15a3.56,3.56,0,0,1,1.48-1.41c-2.14,2.19-2,2.9-1,2.39l1.3-1.29-1.1,1.57c.53-.31,2.79-2.69,1.88-1.12l-1.28,1.54c1.37-.82,3.58-2.25,2.85-.79l-1.58,2.23a4.1,4.1,0,0,0,2-1.82c-.52,1.73-.28,2.23-1.7,4.11,4.92-3.16,6.56-1.95,7.45-.54l-1,1c-.58,1.24,1.82-1.59,1.38-.69-1,.87-1.74,2.32-3.08,3.25-.55,1.49,2.22-1.19,3-1.36,1.27-1.28-1,.61.59-1,.5-.43-.34,1.62,1.61-.32a23.32,23.32,0,0,1-2.93,3l1.19-.71c-1.87,2.66-4.71,3.43-7.08,6.65l.56-.08c-1.73,2.32-2.9,1.72-2.95,3a20,20,0,0,0,4.77-4.51c1.12,0,4.78-4.5,5.24-3.74-.94,1.32-.76-.2-2.18,1.55-1.24,1.89,1.43-.34,1.16.47a9.18,9.18,0,0,1,3.1-3c-.58,1.24-2,1.7-1.75,2.33,1.17-1.09,2.41-1.56,2.8-2.69,2.65-2.48-.21,1.16,1.94-.64-1.58,2-4.47,3.81-4.84,5.19,1.58-1.83,2.88-1.83,5.1-4.7a11.59,11.59,0,0,1-2.75,3.06c-.77,1.36,3.73-2.6.49,1l1.81-1.73c-.47.69-.77,1.24-1.55,2.35.2.27,3.11-1.7.49,1,.34-.21.79.44,2.36-1.66.75-1.47-1.7,1,.52-1.72-1.73,2.31.75.2,1.61-.31l-1,1.09c.52-.3.57.19,1.73-.88a5.56,5.56,0,0,0-1.45,1.63l1.65-1.51c1.23-.33-2.57,2.95-1.66,2.93l-1.53.91c.34-.2-.94,1.46-.23,1.16,1.47-1.37,3.3-3,4.46-4.06.87-.39-1.44,1.77.23.51l-2,1.45c-.5.43-2.06,2.63-1.67,2.93.7-.3,3.06-2.08,3.47-3.22.19.14-.4,1.27-1.56,2.2.89-.12,1.44-1.62,2.65-2.2-.78,1.1-1.66,2.92-2.74,4.59l-2.69,2.13.23.24c-2.17,1.67-1.28,1.65-3.41,3.56-.14.48.72,0,1.39-.43,2.68-3.78,4.84-4,7.58-7.2,1.44-.2-6.57,7.76-1.39,3.67.63-.9,3.13-2.9,1.89-2.41.1.71,3.15-2.77,2.45-1.07-1.53.9-2.51,3.43-4.74,4.74,1-1,.44-1,.09-.82-.94,1.32-2.93,3-2.52,3.42.53,0,.94.23,2.38-1.4,1.63-1.74-.56-.19,1.27-1.79,1.08-.12-1.34,2.6,1.78-.28-.55-.07,1.07-1.92,2.19-3.11l1.06-.36-1.16,1.08c-.18,1.4,2.16-1.93,2.45-1.07L214.13,191c-2,1.84,0-1.66-2.95,1.63.26.48,1.92-1,1.49.14l-.86.39c0,.23-3.85,4.6-1,2.62,1.2-.7,1.17-1.06,2.29-2.25,1,.21,2.28-.84,2.86-.66-2.3,2.26.47.89-2.22,2.86,1.1-1.55.09-2.25-2.24-.21-2.4,3-.11-.85-2.87,1.82.42.53-2.17,3.22-3.79,5.08,0,.27.86-.37,1.2-.57,1.65-1.63,1.45-1.77,3.07-3.52.12,1,1.53.54,3.37-.82-.6,1-2.24,2.62-2.61,2.58,1.12.12,1.57,1,1.71,2.08,2.2-3.11,1.3,0,3.18-2.52a11.72,11.72,0,0,1,3.16-4.19c0,.36-1.14,1.19-1.61,1.84,1.67-1.24-1.85,2.79.63.68-1.43.32-3.27,3.23-5.41,5.27,1.57-.81-1.46,1.5-1,1.9a10,10,0,0,1,3.87-1.24c-1.34,2.58,1.46,1.45,2.07,1.86-.75,1.35-3.24,3.6-3.34,4.31.41.28,2.22-2.88,1.7-1.26l-.51.42c.69-.41-.6,2.56,2.85-.79l-2.65,2.48c-.13.34.53-.19.86-.38a13.49,13.49,0,0,1-2.1,2.15c-1.4,2.12.94.36,1.36.61l1.25-1.77c1.75-.65.69,1.27,1.78,1.28l-1.45,1.5,1.21-.58c-1.48,1.39-2.08,2.64-.72,1.59l-4.42,2.86c.6-1.13,2-1.57,3.27-3.22,1.11-1.44.19-1.53-1.3-.14.06.36.38,0,1.06-.36-1.94,2.18-2.17,1.79-3.67,3.07.21,0-.26.8.4.15-1.19.83-1.55.8-2,.51,1-.6,1.11-1.43,1.77-1.95-1.79,1.83-2.67,2.09-2.61,1.15,1.73-2.44-2.14.63-2.07-.45a25.63,25.63,0,0,1,4.72-3.44c.56-1.24-.41-.28.18-1.52-1.5,1.27-3.64,3.31-4.86,3.77l1.29-1.41c-1.05.35-3,2.42-3.1,1.58a6.72,6.72,0,0,0-1.47-3l1.28-1.4c-3.15,2.64-2.19,0-3.9.88.48-2.09-3-.3-1.11-3.08-2.4-.26-4.64-.36-5.59-2.26l2.16-1.79c-1.67,1.25.93-1.32.38-1.25-1.22,1.88-2.33,1.76-3.69,2.83.85-2.19-1.59-1.26-3.51-.38l1.29-1.42c-3,2.06-1.57-.88-1.89-2,.47-.66,1.57-2.09,1.21-2.13-2.51,1.86-2.57,1.52-4.47,2.38a3.16,3.16,0,0,1-.17-2.87c-4.55,1.66-4.26-1.87-7.69-1.53l1.42-1.74c-4.89,2-3.83-3-6.89-2.51l2.77-2.67c.4-1.26-1.66-.19-3.43,1.9.4-1.26-2.34.35-.43-2.2.06-.93-1.75.79-2.47.82.13-1.89-.42-2-1.74-2.21l0,.37c.66-.52,1.8-1.7,1.76-2.06-1,.47-.41-1.84-3.26,1.79.95-2.76-3.53-.37-1.93-3.78a6.33,6.33,0,0,1-1.83,1.48c-.81-.69.15-3.32-1.94-2.34.31-.57,1.66-1.37,1.44-1.76-.51.17-1.13,1.19-1.84,1.48-2.86.52-.86-4.14-2.42-4.77-3.68-.14-4.93-3-7.14-4.56l.65-.64c-3.07,1.94,1-4.06-3.2-.7.45-.78-.3-.85,1-2-2.23,1.33.17-3.06-2.76-1.46l.54-.19c.65-2.19-1.93-.79-1.45-2.9a4.62,4.62,0,0,0,1.35-.92c.91-1.57-3.4,2.14-.52-1.25-.2-.13-1.65,1.51-1.46,1.51-.55-2.88-4.35-2.58-6.85-3.57.53-3.15,5.07-5.51,1.77-4.07.49-.69-1.23,1.18-.61.5-1.26.54,2.79-4.19.92-2.75-1.76,2.08-1.23.93-2.39,2.13.43-2,2-4-.08-3.07l1-1c-3.52,2.25-2.87-.13-6.71,2.7-4.63-3.21-10.29-5-14.61-8.32-3.27-4.34-8.53-6.41-10.76-12,1.66-3.62,1.52-3.62-.55-3.46l.94-.93c-2.17,2.2-.9-.47-3,1.59-1.06-1.8-3-2.46-4.52-3.86.47,0,2.33-1.75,1.92-1.88l-1.66,1.16.55-.67a5,5,0,0,0-2.26,2c-5.61-1.63-5.07-9.66-9.29-12.61,0-1.76-2-2.1-3.45-2.53,0-5.68-.25-10.52-5.1-11.14,0,0,5.87-5.46,8.33-5.68"/><path class="g" d="M212.57,220.49c1-1.22,1.2-2.14,2.9-3.41Z"/><path class="g" d="M214.73,200.61c-.34.32.31-.58.45-.79.19,0,1.19-.83.72-.18-.18,0-.68.53-1.17,1"/><path class="g" d="M213.11,197.81a3.48,3.48,0,0,1,2.63-1.17Z"/><path class="g" d="M214.93,191.7c.62-1,1.1-1.43,1.32-1.17Z"/><path class="g" d="M212.62,193.84c-.19-.15.29-.82.74-1.47-.82.87.91-.16-.74,1.47"/><path class="g" d="M210.83,186.62c-.18,0-1.19.58-.25-.62-.62.88,1.73-.75.25.62"/><path class="g" d="M207.29,186.13l-.2-.13a2.83,2.83,0,0,1,1.32-1.17Z"/><polygon class="g" points="165.04 153.77 165.74 153.48 164.76 154.45 165.04 153.77"/><path class="g" d="M148.14,137.88c-.81.41.74-1.09.83-1.27.32.09-1.23,1.16-.83,1.27"/><polygon class="g" points="134.33 134.28 134.43 134.32 132.46 136.34 134.33 134.28"/><path class="g" d="M292.13,606.1c2.4,1.26.45-2.83,2,.31-1,.64-1.87.93-2-.31"/><path class="g" d="M574.23,240.92c-10.85.67-16.08-11.45-26.66-11.83-1.09-.29,2.15-3.31-.43-3.7-10.34.31-21.42-8.08-30.38-16l1-.85c-1.76-1.42-5.42,1.25-7.36,0,.22-.7,1-.77.85-1.89-1.23,1.94-4.16-.31-5.55,1-.58-1.11,0-2.77-.78-4.08l-1.94,2c-4.93,4.49-8.2-2.51-13.63-.66.34-.52.93-.86.68-1.5-8.28,1.57-17.46-.69-26.11-.17a5.2,5.2,0,0,0,.55-3.51c-.74,2.61-3.4,2.95-5.7,3.18-.78-2.91-4.06,2-6.59.5l.27-.6c-2.13,2.81-2.83-1.74-4.57,1.65l-1.17-2.19c-1,3.84-2.76-2.1-4.46-.19l0,.79c-1.54.91-2.31-1.07-3.74-.45l-.13-.45c-3.31.86-5.28-1.26-5.14,1.8-1.22-2.43,3.19-1.17,1.31-4.67-11,3.85-22.18,3.49-33.06,5.75-1.43-1-2.29-1.23-2.77-2.31-1,.78-4.05,1.21-4.73,2.89.35-.14-1-1.41-1.63-1.46-2.25-.83-1.47,3.71-3.89,2.9a2.85,2.85,0,0,0,.23-3c-1.34,2.78-3.85,3-5.83,4.36.22-.6.66-1,.35-1.92-1.71,3.21-4.47.59-6.11,2.76l.32-1.87c-3.95-1.17,0,3.77-3.22,3.31.53-.7.1-1.3,0-2-1.84,3.61-6.36,4-8.58,6.09l-.13-.73c-2.67,1.42-6,1.58-8.58,4-1.4-.31-1.18-4.1-4-2.4,1.42,3.22-4.54,3.2-1.24,6.21-2.68.56-7.06,1.27-8.19,3.12.54-1.73-3-3.3-1.08-4.56l-2.46-1.18c-.37-1.4,1.82-.33.55-1.73-1,.63-3.42,3.35-4.6,3.29-1,2.85-.9,7.26-3.72,9.11.8-1.89-2.65-3-1.95-4l-.85,8.25c-.87.72-1.57-2.28-2.51-.65.53.76.22,1.63.19,2.53-.56-.12-3.48,3.13-5.7.46-1.13-.9,1.2-1.57-.52-2-1.76,1.12-1.22,2.17-3,3.29l-.27-.36c-1.46.28-2.67,3.31-.35,4.16.87-.4-1.44-1.57.31-1.45.27,2.19-1.47,3.84-3.14,5,.25-.88-.33-1.58-.63-2.54-.74,3.84-2.51,6.32-4.26,9.06.94,1.35-.86-3.1,0-2.68-4.51.55-4.47,7.43-9.12,6.75.25-.54,1.7,1.65,1.38,1.31-1.62,1-3.08-.93-3.5.48-1-1-.93,1.31-1.55,2.52.18,1.21-.68-.29,0-1.16-.55,2.13-4.2,8.44-8.57,9.69.7.62.54,4.12-.2,4.66l-1.24-1.79c-1.54-.34-2.16,2.25-3.57,1,.37,3.22,4.07-6.79,3.49-3.53-1.77-.79-.33,5-2,2.51-1.34,1.33-1,4.22-3.51,4.21.57-.15-1.15-3.24-2-2-1.5,2.27.24,1.29-.67,3.4l-.25,1.62c1.49,1.49-1.79,1.58.61,2.44-1.5-.93-1.74,3.57-4.16,1.07L273,279.93c-.62,1,.9,3.35,1.22,4.8l-1.19-.51c3.08,2.87-2.09,1.83-.5,4.93-2.8.79-4,4.52-6.66,3.9-.08,2.29.17,4.55-1.78,5.71-.08-.59.16-1.12-.5-1.75-1.78.33-1.07,1.27-1.23,2.64-.33-.58-3.54.72-5.63,1.1-.06,2.22,2.2,3,3.22,3.92-4.37-.93-.88,5.58-5,5.35-.23-.88-.28-3.37-2-2.66-4.34-.73.9,4.61-2.15,5.91l3.28,1.2c-2.42,0-.24,4.45-3.13,2.43.62,1.41-2.58,2.2.48,3.6-4.67,2.48-3.91,9.95-10.21,9.88.25.84-.92,2.06.77,2.49,2.13-.16-.6-1.93.71-1.74-.13.58.64,1.08,1,1.34-1.23.93-1.92,1.81-3.9-.59-3.15,2,3.89,5.34,1.12,8.32-1.22-.72-1.81-.66-2.09.46l1.32,2.91c-1.54,2.06-3.52.09-5.72-.74-.18,1.39-1,2.89.41,4.08l-3.3.51c2.37-.39,1,1.58,1.32,2.38l-.35-.8c-1-.12-.93,1.62-.91,2.46,1.45.31,2.5-1,3.15-1.67.77,1,.2,1.94,1.06,3.23-2.06-1.08-2.24,1.52-2.8,2.46-.86,1,1.5,2,1.34,2.29-1.15-.35-.83,1.84-2.11.41-.24-.52,1.4-.55.62-1.54-1.12.47-3.06-.27-2.14,1.83.68,1.55,4.43,1.09,2.29,2.91l-1.83-1.88-1.86,1.79,2,.72-1-.09c1.9,1.3-.44,3.48,1.79,4.64-.19,1.12-2.12,1.88-2.57,2.89l-.12-.26c-1.49,1-1.09,2.9,0,4.33l-.43-.16a3.72,3.72,0,0,0,.62,3.56c-2,1.39-7.88-1.2-5.75,1.39-.34,1.87,3.12,3.67,4.6,3.22-2.08,3,.22,7.17-3.2,9.7.78.61,1.33.39,1.72,1.45-1.44,4.72,1.19,10.37-3.42,13.8-.7-1.49-2.09-.3-3.29-.37,1.73,1.33-2.12,1.25,1,1.95,1.91,0,2.81.2,3.74-1.07.54,2.94.71,7.31-1.2,8.82.88-.76,1.46-.11,2,.54-3-.34-3.56,1.79-2.53,3.45l1.84.26-1.93,1c.56.64,3.84.77,2,2.32l-2,.46c1.48,1.69,3.95,4,2.35,5.79L223,431.17c.35.77,2.05,2,2.74.63-1.42,3.12-1.5,5.13-3.77,6.24,6,5,6.5,12.47,7.39,18.54l-1.39,0c-1,1.82,2.52.49,1.76,1.76-1.4-.33-2.65,1.69-4.45.65-1,2.6,2.87,2.65,3.73,4.06,1.81-.09-1.35-1,1-1.13.7.14-.86,3.47,1.89,3.32-1,.79-3,.71-4.18.61L229.2,467c-2.86,2.41-6.27-3-9.87-.38L220,468c-2.62,1.87-3.79-3.09-4.2.61,1.58,1.27,5.69,1.75,6.66.19,1.29,2.91,6.53.13,7.13,3.33-1.34,1.21-1.05-2.44-3.08-1.37-1.78,2,2,2.75,1.59,4.25.62-1.71,3.64-1.09,4.38-.27-.85,1.89-2.8-.44-2.49,1.9,1.64,0,3.35,1.77,3.93-.27,3.72-.07-.33,2.57,2.68,3.08-2.25,1.39-6.26-.85-6.83,2,2.25-1,4,2.21,7.14-.06-.43,1.14-2.25,1.77-3.88,1.47-1.08,1.8,5.15,2.12.64,3.94l2.5-.24c-.67.67-1.08,1.46-2.19,2.57.2,1.29,4.58,2.81.92,3.88.51.26,1.35,3.05,3.43,1.15.89-2.17-2.51-1.33.47-3.33-2.29,2,1.25,2.28,2.5,2.9l-1.3.64c.74.38.92,1.8,2.54,1.63a1.74,1.74,0,0,0-2,1l2.3-.15c1.88,1.91-3.46,1.88-2,3.93l-2.26-1.14c.5.25-1.16,1.76-.11,2.63,2-.28,4.6-.37,6.2-.58,1.28.94-1.92,1.4.47,1.87l-2.87-.74c-.71,0-2.7,2.33-2,4.07,1.07.84,4.38,1.4,4.77-.73a1.91,1.91,0,0,1-2,2.41c1.52,1.61,1.87-1.09,3.79,0-.91,1.17-1.68,4-2.85,6l-3.92-.31.53,1.15c-3.19-.37-1.52,1.62-4.52,2,0,1,1.32,1.56,2.37,2,3.05-4.23,6.91-.08,10.34-2.56,2.48,2.51-8.16,6.41-.78,6.74.72-1,4.27-1,2.27-2.35.52,2.1,4.33-.62,3.87,2.39-2.31-.87-2.88,3.77-6.23,2.52,1.3-.5.27-1.85-.25-2.06-1.05,1.53-3.82,1.76-2.84,3.78.92,1,1.8,2.69,3.61,1.4,2-1.17-1.12-1.73,1.38-2.1,1.92,2-.88,4.06,3.36,2.95-1.18-1.27.76-2.82,2.22-3.57l1.86,1.14-1.58.46c.62,3.18,3-.65,4.14,2.07l-2,2.77c-2.71.77-1.22-4.31-4.77-1.66.89,1.77,3.15,1.18,3.12,3.35l-1.46-.74c.24.66-4.41,4.27,0,4.92,1.89.56,1.53-.48,2.94-1.32,2.06,2.44,4,2.33,5.21,3.9-2.9,1.41,1.59,3.23-2.3,3.14,1-1.94-1.47-5.7-4.67-5-2.62,3-.84-2.42-4.48-1,1.26,2.25-2,4.12-3.84,5.77.23.75,1.47.8,2,1,2.13-1,1.59-1.77,3.58-3.09a6.82,6.82,0,0,0,6.2,4.61c-.4,1.43-2.52,2.51-3.29,1.63a29.4,29.4,0,0,1,6,8.6c1.74-4,2.9,2.38,4.53-.67-.38-1.9.9-4.67,2.81-4.92.45,1-1.34,1-1.72,1.78,2.45-.15-1.34,3.7,2.05,2.8-2.83-1.72-4,2.31-6.7,3.66,2.7.81-1.72,1.2-.35,3a24.83,24.83,0,0,1,7.41,3.85c0,4.13,5.44,5.94,7.43,7.91-.08,2.12-3.22,3.65-2.53,5.26,1.37,1.36,1.66-3.53,2.48-.39l-.67.26c1.13.08,1.94,5.43,5.89,2.64l-3.14,1.92c.13.64,1.05.41,1.61.46-.81.85-1.13,2.07-2.27,2-.58,3.13,3,2.24,4.51,3.47l.55-2.38c3.59.94,3.79,3.94,6.66,5.5l-1.45,1.51,2.24.3c-1.67,1.23-1.21,3.39.64,2.75l-7.11.58c-.22-1.86,2.83-.9,3.54-3,.64-1.84-1.94-3.36-3.67-2.18.71.91,1.05.62,2.23.64-1.68,2.42-2.9,1.17-4.88,2,.54.32.6,1.55,1.31.95-1.83.28-2.9-.38-4.44-1.65,1.79.05.68-1.8,1.64-2.07-1.88,1.77-3.86,1.08-5.21-1.09.87-3.38-4.51-2-5.9-4.74,2.68-.94,5.16-1.32,7.06-.82-.28-2.2-1.38-1.39-1.64-3.59-2,.74-4.53,2.33-7,1.41l1.31-1.4c-2.15-.88-4.25,1-5.7-1.35-2.53-4-5.69-7.54-7.52-10.63l1.4-1.28c-4.39,1-5.14-4.31-8.18-5.35-1.25-4.67-7.49-6.85-5.81-10.76-5.22-6.07-10.66-11.14-13.65-19l3.07,0c-2.46-.38,1-1.6,0-2.7-1.25,2.5-3.43-.5-5.42-.67.33-4.31-3.84-7.53-7.08-9.77l1.71-.89c-4.91-1.53-3.09-6.68-4.07-10.72.59-.73,2-2.07,1.39-3.13-3.68-1-3.88-2.23-6.85-4.74a17.36,17.36,0,0,1-.79-9c-6.4-7.68-6.57-17.38-10.3-26.4l2.12-1.06c-6.61-8.42-3.16-20.42-6-28.17l3.88.59c1-2.51-1.35-5.57-4-4.87.88-2.52-1.93-6.25,1.26-7.84.79-2.54-1.68-3.14-2.13-5.3,1.61-5.11,1.34-7,.79-11.88l-.29,1.17c.82.6,2.45.76,2.73-.42-1.1-1.9,1.78-6.46-3.07-5.1,3.28-4.84-.61-12.35,3.59-16.84-1.3.23-1.37-1.08-2.14-1.75.7-4.56,4.46-8.67,3.12-12.69.77-.56,1.82,1.6,2.37-.18-.23-1.17-1.6-.38-2-1.87-.86-7.92,6-13.89,7.67-20.32,1-12.31,7.89-23.12,12.11-33.76l.77.54c-1.21-5,7.6-6.05,4.5-11.3,1.22-.35,2.09-2.81,3.29-1.31-.49-3.87,6-6.31,6-11.47l-.22,1.18c4.27-2.46,4.25-7.24,8.5-10,0,.62-.24,1.49.43,2.14,2.45-.4-.63-5.79,3.49-3.91.56-.86-1.34-1.95-1.61-1.35,7.31-7.19,12.71-16.85,19.24-25.52,7.49-3.33,5.58,5,7.67-1.44,1,.28-.91-1.46-.22-.86.86-2.49,6,1.19,5.61-1.58-2.32-1.57-.26-1.86-1.33-3.12,4.62-1.84,6.83-.58,8.2-4.6l.7,1.28c.81-5.72,6.14-7,6.22-12.94,18.57-15.14,38-28.68,60.36-37.16,22.18-7.36,44.7-14.28,68.73-13.16,5.78,3.41,6.09,3.27,12.11,1.39-.24.6-.6.8-.2,1.33.26-3.09,4.25-.18,4.82-3.12,8.75,1,16.91-.27,25.87,1.19-1.46.15-2.41,2.59-.72,2.6l2-1.74.19.89c1.19-.31,2.64-1.67,1.58-2.8,23.38-.28,43.74,12.18,64.2,19.68,4.29,3.33,11.55,5.29,17.06,7.12,13.19,11.71,23.49,22.35,38.67,30.34,0,0-6.79,4.95-13.29,2.56"/><path class="g" d="M289.53,604.21c.56-1.57-.29-3.45,2.15-4.06-.81,1.24-1.12,3.12-2.15,4.06"/><path class="g" d="M267.45,558.59c-.41.23.1-.92.22-1.19.43.37,1.77,0,1.42.86-.44-.38-1,.14-1.64.33"/><path class="g" d="M261,548.56c1.24-.62,3.66.74,4.68,1.81Z"/><path class="g" d="M260,536.26c.51-1.39,1.18-1.5,1.8-.43-.57.45-1.1.29-1.8.43"/><path class="g" d="M256.89,537.26c-.49-.76,0-1.57.42-2.35-1,.64,1.71,1.4-.42,2.35"/><path class="g" d="M249.29,514.74c-.35-.45-1.91-1.07-.74-2.15-.72,1,2.74,1.7.74,2.15"/><path class="g" d="M242.91,505.71c0-.36.14-.59-.36-.83.37-.85,1.54-.57,1.84-.12Z"/><polygon class="g" points="254.16 312.24 254.15 313.65 253.06 312.77 254.16 312.24"/><path class="g" d="M315.18,247.9c.47-1.45,1.4.56,1.67.6-.78.78-.63-1.64-1.67-.6"/><polygon class="g" points="355.02 218.92 354.68 219.09 353.75 216.43 355.02 218.92"/><path class="h" d="M1338.07,538.53c-.65.59-1.69.73-2.23,1.43s-1.74,3.42-1,4.62c.84,2.6,4.38,3.86,7.18,4.45,1.3.31,3.16-1,3.81.8.05,2.07.11,4.15.18,6.21a32.84,32.84,0,0,1,.63,6.69v6.21c.24.26.52.53.79.8,0,.94.09,1.89.15,2.86.5,2.24.52,5.09.94,7.16,0,.54-.09,1.07-.14,1.59.52,2.53.93,5.83,1.6,8.28.1,1.08.2,2.13.31,3.18a18.06,18.06,0,0,1,.8,3.52h-.32a5.73,5.73,0,0,1-2.86.63l-.79-.16c-3.8.85-8.22.11-8.14,4.94.91,1,.94,2.5,2.87,2.55,1.91,1.38,7.91-.19,10.36-.33a11.53,11.53,0,0,0,5.9,4.31c.79.28,2.1.81,3,.16,1.54-.44,1.87-2.07,2.86-3-.06-1.33-.58-2.1-.31-3.51l1-.79c2-.8,5-.37,7.16-1,3.34-.89,7.35-1.85,10.69-2.55a9,9,0,0,0,1,.16c11.71-2.5,24.16-5,32.48-11,1.79-1.29,3.29-3.49,4.63-5.27.52-.52,1-1,1.59-1.57.59-1.1.81-3,1.41-4,.17-.25.81-.19,1-.5.55-1-.21-2.93.16-4.28.22-.8,1.16-2.32.63-3.81-.2-.22-.41-.45-.63-.65,0-.43.11-.84.15-1.26a20.5,20.5,0,0,0-.79-4.31l-1.27-1.29c-.87-1.25-1.17-2.89-2.07-4.12-.5-.7-1.52-.93-2.23-1.45s-1.38-1.45-2.21-2.07a49.41,49.41,0,0,0-12.44-7c-1.34-.5-2.4-.37-3.8-.81-5.74-1.71-12.71-2.54-18.81-4-.72-.16-2,.21-2.87,0-1-.24-2.66-.68-3.66-1h-11.77c-2.1-.57-6,.19-8.45-.3l-1.91.15c-1.68-.36-4.23-1.07-5.88-.79-1.49.24-3.47-.13-4.79.15a6,6,0,0,1-2.23.16,6.2,6.2,0,0,0-1.58-.31m21,10.5c17.93-.16,32.71.45,44,7.34,4.1,2.5,8.53,4.11,10.5,8.76a17.8,17.8,0,0,1,.64,3.17c.82,3.38-2.11,7.52-3.67,8.6-.4.28-.81.27-1.09.64-2.21,2.83-4.18,2.79-7.34,4.45a92.06,92.06,0,0,1-13.38,5.57c-3.54,1.22-7.42,1.35-11.12,2.39s-7.26,1.26-11,2.24c-.68.18-3.66.48-3.66.48-.69-.63-1.7-4.9-1.91-6.06.11-.47.2-1,.31-1.43-.27-.26-.53-.54-.79-.8-.38-.94.71-1.9.48-3-.5-2.33-1.21-4.88-1.76-7v-4.15c-.14-.61-.71-1.42-.48-2.23.15-.45.79-1.09.48-2.06-.07-.27-.55-.69-.65-1-.35-1,.12-2.33-.15-3.51a11.41,11.41,0,0,0-.78-1.6v-3c0-2.57-.27-4.68.15-6.85l1.26-1"/><path class="i" d="M1338.07,538.53c-.65.59-1.69.73-2.23,1.43s-1.74,3.42-1,4.62c.84,2.6,4.38,3.86,7.18,4.45,1.3.31,3.16-1,3.81.8.05,2.07.11,4.15.18,6.21a32.84,32.84,0,0,1,.63,6.69v6.21c.24.26.52.53.79.8,0,.94.09,1.89.15,2.86.5,2.24.52,5.09.94,7.16,0,.54-.09,1.07-.14,1.59.52,2.53.93,5.83,1.6,8.28.1,1.08.2,2.13.31,3.18a18.06,18.06,0,0,1,.8,3.52h-.32a5.73,5.73,0,0,1-2.86.63l-.79-.16c-3.8.85-8.22.11-8.14,4.94.91,1,.94,2.5,2.87,2.55,1.91,1.38,7.91-.19,10.36-.33a11.53,11.53,0,0,0,5.9,4.31c.79.28,2.1.81,3,.16,1.54-.44,1.87-2.07,2.86-3-.06-1.33-.58-2.1-.31-3.51l1-.79c2-.8,5-.37,7.16-1,3.34-.89,7.35-1.85,10.69-2.55a9,9,0,0,0,1,.16c11.71-2.5,24.16-5,32.48-11,1.79-1.29,3.29-3.49,4.63-5.27.52-.52,1-1,1.59-1.57.59-1.1.81-3,1.41-4,.17-.25.81-.19,1-.5.55-1-.21-2.93.16-4.28.22-.8,1.16-2.32.63-3.81-.2-.22-.41-.45-.63-.65,0-.43.11-.84.15-1.26a20.5,20.5,0,0,0-.79-4.31l-1.27-1.29c-.87-1.25-1.17-2.89-2.07-4.12-.5-.7-1.52-.93-2.23-1.45s-1.38-1.45-2.21-2.07a49.41,49.41,0,0,0-12.44-7c-1.34-.5-2.4-.37-3.8-.81-5.74-1.71-12.71-2.54-18.81-4-.72-.16-2,.21-2.87,0-1-.24-2.66-.68-3.66-1h-11.77c-2.1-.57-6,.19-8.45-.3l-1.91.15c-1.68-.36-4.23-1.07-5.88-.79-1.49.24-3.47-.13-4.79.15a6,6,0,0,1-2.23.16A6.2,6.2,0,0,0,1338.07,538.53Zm21,10.5c17.93-.16,32.71.45,44,7.34,4.1,2.5,8.53,4.11,10.5,8.76a17.8,17.8,0,0,1,.64,3.17c.82,3.38-2.11,7.52-3.67,8.6-.4.28-.81.27-1.09.64-2.21,2.83-4.18,2.79-7.34,4.45a92.06,92.06,0,0,1-13.38,5.57c-3.54,1.22-7.42,1.35-11.12,2.39s-7.26,1.26-11,2.24c-.68.18-3.66.48-3.66.48-.69-.63-1.7-4.9-1.91-6.06.11-.47.2-1,.31-1.43-.27-.26-.53-.54-.79-.8-.38-.94.71-1.9.48-3-.5-2.33-1.21-4.88-1.76-7v-4.15c-.14-.61-.71-1.42-.48-2.23.15-.45.79-1.09.48-2.06-.07-.27-.55-.69-.65-1-.35-1,.12-2.33-.15-3.51a11.41,11.41,0,0,0-.78-1.6v-3c0-2.57-.27-4.68.15-6.85Z"/><path class="e" d="M590.7,540.77c.69,19.81-1.08,40-1.79,58.38,12.05,1.44,25.49-6.36,37.53,0,0,5-6.38,5.31-9.57,7.77l-40,5c-1.78-24.06-4.26-50.26-.72-74.65,3.91-2.15,14.53-3.9,14.53,3.54"/><path class="i" d="M590.7,540.77c.69,19.81-1.08,40-1.79,58.38,12.05,1.44,25.49-6.36,37.53,0,0,5-6.38,5.31-9.57,7.77l-40,5c-1.78-24.06-4.26-50.26-.72-74.65C580.08,535.08,590.7,533.33,590.7,540.77Z"/><path class="e" d="M441.53,537.23c2.12,1,1.41,3.17,1.41,5.31-11,12.39-33.26,4.23-48.13,6.72-1.05,5.29-2.12,9.55.71,14.48,13.1,2.15,28.67-1.74,40.71,3.2,3.52,4.6-1.77,7.78-6,7.78-12,.72-23-1-34.68-1.75-2.83,13.44,2.13,26.87.71,40-2.12,3.18-7.07,4.95-9.92,1.78-3.51-12.74-.69-28.32-2.81-41.76,0-11.69-3.18-23-.7-34.69l4.23-2.83Z"/><path class="i" d="M441.53,537.23c2.12,1,1.41,3.17,1.41,5.31-11,12.39-33.26,4.23-48.13,6.72-1.05,5.29-2.12,9.55.71,14.48,13.1,2.15,28.67-1.74,40.71,3.2,3.52,4.6-1.77,7.78-6,7.78-12,.72-23-1-34.68-1.75-2.83,13.44,2.13,26.87.71,40-2.12,3.18-7.07,4.95-9.92,1.78-3.51-12.74-.69-28.32-2.81-41.76,0-11.69-3.18-23-.7-34.69l4.23-2.83Z"/><path class="e" d="M1194.49,539.7c.72,20.53,2.14,42.12-1.75,59.44-2.49,2.84-5.67,2.84-9.21,2.84-1.4-20.16-5.31-42.46,0-62.28,2.83-3.19,7.42-.71,11,0"/><path class="i" d="M1194.49,539.7c.72,20.53,2.14,42.12-1.75,59.44-2.49,2.84-5.67,2.84-9.21,2.84-1.4-20.16-5.31-42.46,0-62.28C1186.36,536.51,1191,539,1194.49,539.7Z"/><path class="e" d="M1049.51,547.47c0,6,0,12-3.54,16.29-7.09,7.43-17.7,7.79-26.19,11.68,11.31,11.67,22.29,24.42,29.73,38.2-2.13,3.19-6.37,1.08-9.56,1.78-12.73-11-22.3-30.08-38.92-37.51-3.55,11.68.7,26.54-10.26,35-3.19,1.43-5.31-2.13-6.75-4.25,5.33-20.18,3.91-43.54,4.25-64.75-2.81-2.13-9.9-1.41-6-7.45l1.75-1c22.3,2.82,51.33-7.44,65.49,12m-23.7-3.52a89.07,89.07,0,0,0-24.08,0l-.7,24.76c11.68-5,31.84-2.13,33.26-19.45-2.11-3.54-6-3.54-8.48-5.31"/><path class="i" d="M1049.51,547.47c0,6,0,12-3.54,16.29-7.09,7.43-17.7,7.79-26.19,11.68,11.31,11.67,22.29,24.42,29.73,38.2-2.13,3.19-6.37,1.08-9.56,1.78-12.73-11-22.3-30.08-38.92-37.51-3.55,11.68.7,26.54-10.26,35-3.19,1.43-5.31-2.13-6.75-4.25,5.33-20.18,3.91-43.54,4.25-64.75-2.81-2.13-9.9-1.41-6-7.45l1.75-1C1006.32,538.28,1035.35,528,1049.51,547.47Zm-23.7-3.52a89.07,89.07,0,0,0-24.08,0l-.7,24.76c11.68-5,31.84-2.13,33.26-19.45C1032.18,545.72,1028.27,545.72,1025.81,544Z"/><path class="e" d="M846.75,551.73c6,12.74,2.48,27.24-5,38.21-16.27,16.3-42.11,19.47-63.7,12.74-10.25-2.09-20.52-8.14-26.18-17.68a27.65,27.65,0,0,1,0-21.25c15.56-23.7,44.93-33.26,73.61-27.25,8.14,3.19,16.27,7.09,21.22,15.23m-74.66,7.79c-6.38,4.6-5.31,13.44-4.24,20.17,8.83,17,28.66,17.33,44.93,16.29,9.22-2.15,19.12-8.51,22.3-18.06,1.06-8.49,2.12-19.11-4.25-25.48-18.4-13.44-42.46-5.31-58.74,7.08"/><path class="i" d="M846.75,551.73c6,12.74,2.48,27.24-5,38.21-16.27,16.3-42.11,19.47-63.7,12.74-10.25-2.09-20.52-8.14-26.18-17.68a27.65,27.65,0,0,1,0-21.25c15.56-23.7,44.93-33.26,73.61-27.25C833.67,539.69,841.8,543.59,846.75,551.73Zm-74.66,7.79c-6.38,4.6-5.31,13.44-4.24,20.17,8.83,17,28.66,17.33,44.93,16.29,9.22-2.15,19.12-8.51,22.3-18.06,1.06-8.49,2.12-19.11-4.25-25.48C812.43,539,788.37,547.13,772.09,559.52Z"/><path class="e" d="M1606.78,543.23c13.81,20.52,28.32,41.06,39.29,63,0,3.19.35,7.44-3.55,8.5-12-.72-11-14.87-20.52-19.83l-42.46,1.77c-6.74,7.44-5.67,26.55-20.17,22.3-3.9-1.76-2.13-5.65-2.48-8.48,13.08-24.42,25.48-48.85,32.2-75.74,7.78-7.78,12.73,3.9,17.69,8.49m-8.49,10.26c-2.48,11.34-5.67,22.64-12.73,32.22,10.6-.35,20.52-2.84,29.72-4.27Z"/><path class="i" d="M1606.78,543.23c13.81,20.52,28.32,41.06,39.29,63,0,3.19.35,7.44-3.55,8.5-12-.72-11-14.87-20.52-19.83l-42.46,1.77c-6.74,7.44-5.67,26.55-20.17,22.3-3.9-1.76-2.13-5.65-2.48-8.48,13.08-24.42,25.48-48.85,32.2-75.74C1596.87,527,1601.82,538.64,1606.78,543.23Zm-8.49,10.26c-2.48,11.34-5.67,22.64-12.73,32.22,10.6-.35,20.52-2.84,29.72-4.27Z"/><polygon class="f" points="382.13 324.13 427.41 324.13 427.41 456.34 480.31 456.34 480.31 493.94 382.13 493.94 382.13 324.13"/><polygon class="f" points="494.79 325.14 593.75 325.14 593.75 363.98 541.07 363.98 541.07 390.88 590.79 390.88 590.79 428.71 541.07 428.71 541.07 456.58 594.52 456.58 594.52 493.93 494.79 493.93 494.79 325.14"/><polygon class="f" points="1007.07 324.13 1052.35 324.13 1052.35 455.68 1104.27 455.68 1104.27 493.94 1007.07 493.94 1007.07 324.13"/><path class="f" d="M1174.64,324.13h47.83l64.58,169.81h-47.27l-11-27.65h-62l-8.69,27.65h-49.18Zm41.51,107.18-17.88-52.45L1181,430.73Z"/><polygon class="f" points="1295.19 324.12 1338.88 324.12 1421.08 429.57 1421.08 114.41 1465.45 114.41 1465.45 493.91 1421.88 493.91 1339.55 390.95 1340.07 493.91 1295.19 493.91 1295.19 324.12"/><path class="f" d="M1494.07,324.14h63.29c51.09,0,84.89,39.73,84.89,87.14,0,43.64-37.67,82.66-82.62,82.66h-65.56Zm64.79,129.46c17.5,0,37.67-14.19,37.67-44.56,0-22.41-12.11-44.58-37.45-44.58h-18.72V453.6Z"/><path class="f" d="M781.7,367.48l-41.94,17.29S730.7,365.73,716,361c-7.19-2.32-31.56-6.06-46.69,15.56-5.77,8.25-19.45,39.35-.87,67.46,6.08,9.18,19.89,19.42,37.19,18.56s32-10.35,32-27.22h-35V399.9h88.18S792,435,780.69,455.52c-9.21,16.7-28.83,45.16-76.37,45.16-16.87,0-55.77-4.4-77.37-37.25-5.88-8.9-26.38-45.4-8.65-90.78a81.47,81.47,0,0,1,57.91-49.71c19.1-4.5,39.34-6,65.29,3.89,10.49,4,29.83,16.46,40.2,40.65"/><path class="f" d="M835.15,480.28a88.26,88.26,0,0,1-33.45-69.79c0-24.46,9-47.45,25.67-63.91,17.16-16.92,42.35-27,68-27,24,0,47.4,8.47,64.19,23.43,18.74,16.7,29.52,36.38,29.52,67.44,0,25.11-10,48.62-27.43,64.91-17,15.91-41.27,25-66.28,25-22.16,0-44-7.22-60.23-20.07m61-23.54c24,0,46.66-20.42,46.66-45.71,0-29-20.91-47.22-46.66-47.22s-47.66,18.8-47.66,47.22c0,25.29,21.92,45.71,47.66,45.71"/><path class="f" d="M1634.81,483.1c1.49,0,2.39-.31,2.39-1.78s-1.78-1.48-3.07-1.48H1631v3.26Zm4.72,7.73h-3l-3.1-5.34H1631v5.34h-2.76V477.47h6.49c3.06,0,5.18.54,5.18,4.06,0,2.5-1.26,3.82-3.64,4Zm-15.93-6.63a10,10,0,1,0,10-10.08,10,10,0,0,0-10,10.08m-2.79,0a12.8,12.8,0,1,1,12.8,12.91,12.78,12.78,0,0,1-12.8-12.91"/></g></svg>