<svg xmlns="http://www.w3.org/2000/svg" width="77.88mm" height="28.09mm" viewBox="0 0 220.75 79.62"><defs><style>.a{fill:#2e90af;}</style></defs><title>naples-marco-island-everglades</title><path class="a" d="M97.61,14.72a26,26,0,0,1,6,3.65,31,31,0,0,1,3.3,3.07,3.43,3.43,0,0,0,.27.27c.08.08,0,.23-.11.15a7.59,7.59,0,0,1-.66-.42c-2-1.32-3.85-2.68-6.22-3a3.87,3.87,0,0,0-2.44.46,2.22,2.22,0,0,0-1.13,2.14,1.36,1.36,0,0,0,.08.39,1.29,1.29,0,0,0,.93.85,1.73,1.73,0,0,0,1,0,7.7,7.7,0,0,1,2.72-.93,7.28,7.28,0,0,1,1.86.12,4.16,4.16,0,0,1,1,.19,13.3,13.3,0,0,1,4.55,2.68,3,3,0,0,0,1.67.62,3,3,0,0,0,1.67-.62,13.83,13.83,0,0,1,4.54-2.68,8.3,8.3,0,0,1,1-.19,9.69,9.69,0,0,1,1.86-.12,6.5,6.5,0,0,1,2.72.93,1.46,1.46,0,0,0,1,0,1.29,1.29,0,0,0,.94-.85,1.78,1.78,0,0,0,.07-.39,2.16,2.16,0,0,0-1.12-2.14,3.85,3.85,0,0,0-2.45-.46c-2.41.35-4.23,1.67-6.21,3a7.19,7.19,0,0,1-.66.42c-.12.08-.2-.07-.12-.15a1.38,1.38,0,0,1,.27-.27,43.67,43.67,0,0,1,3.3-3.07,23.37,23.37,0,0,1,6-3.65,1.57,1.57,0,0,0,1-1.79,1.25,1.25,0,0,0-.38-.66,1.78,1.78,0,0,0-1.29-.43,2.12,2.12,0,0,0-1,.43,2.22,2.22,0,0,0-.32.24,36.58,36.58,0,0,0-5.9,5.9l-1.4,1.75a8.37,8.37,0,0,1-.62.77s-.31.2-.15-.23a22,22,0,0,1,1.08-2.29c.43-.78.86-1.52,1.36-2.29a34.6,34.6,0,0,1,3-3.85,38.26,38.26,0,0,1,2.83-2.87A2.14,2.14,0,0,0,122,8.19a3.63,3.63,0,0,0-.08-.69,1.58,1.58,0,0,0-1.71-.94,1.66,1.66,0,0,0-.78.35,15.37,15.37,0,0,0-2.48,3.5c-.31.5-.66,1.16-1,1.86a66.46,66.46,0,0,0-3,6.14c-.31.74-.54,1.28-.62,1.55s-.16.43-.31.39,0-.16,0-.23c.15-.66.23-1.09.39-1.71a43.67,43.67,0,0,1,1.9-6.14A33.44,33.44,0,0,1,118.39,5a1.53,1.53,0,0,0-.08-1.9,1.46,1.46,0,0,0-2.1-.16s-2.13,2.41-3.77,9.75c-.38,1.79-.77,3.38-1.08,5.2a2.61,2.61,0,0,0-.08.55c-.08.39-.12.81-.23,1.2,0,.08-.08.2-.16.2s0,0-.08-.08a7.28,7.28,0,0,1,0-1.32v-.16c0,.16.27-2.64.58-6,.39-4,.82-8.85.78-10.13A2.17,2.17,0,0,0,111.78.7a1.64,1.64,0,0,0-1.39-.7,2,2,0,0,0-1.48.66,2.84,2.84,0,0,0-.43,1.44c0,1.28.39,6.09.78,10.13.31,3.34.58,6.18.58,6v.16a7.28,7.28,0,0,1,0,1.32.09.09,0,0,1-.08.08c-.07,0-.15-.12-.15-.2-.08-.42-.16-.81-.23-1.2,0-.2,0-.35-.08-.54-.31-1.79-.7-3.42-1.09-5.21-1.63-7.34-3.73-9.71-3.77-9.75a1.45,1.45,0,0,0-2.09.16,1.41,1.41,0,0,0-.08,1.9,31.83,31.83,0,0,1,4.11,7.3,45,45,0,0,1,1.91,6.14c.15.62.23,1.05.39,1.71,0,.08,0,.23,0,.23s-.27-.23-.31-.39-.31-.81-.62-1.55c-.7-1.63-1.91-4.16-3-6.14-.35-.7-.7-1.32-1-1.86a15.64,15.64,0,0,0-2.48-3.5,1.37,1.37,0,0,0-.78-.35,1.58,1.58,0,0,0-1.71.94,1.41,1.41,0,0,0-.07.7,2.08,2.08,0,0,0,.73,1.2,35.2,35.2,0,0,1,5.79,6.72,23.73,23.73,0,0,1,1.36,2.29,24,24,0,0,1,1.09,2.29c.15.43-.12.27-.16.23a6.73,6.73,0,0,1-.62-.77c-.47-.62-.93-1.21-1.4-1.75a36.18,36.18,0,0,0-5.9-5.9c-.12-.08-.2-.16-.31-.24a3,3,0,0,0-1-.42,1.41,1.41,0,0,0-1.28.42,1.16,1.16,0,0,0-.39.66,1.64,1.64,0,0,0,1,1.83"/><path class="a" d="M8.22,32.45V32.1h3.66v.3c-1,.05-1.57.66-1.57,1.79v8.88H10L2.18,34.28v6.61a1.78,1.78,0,0,0,.3,1.22,2.63,2.63,0,0,0,1.26.52v.31H0v-.31a1.75,1.75,0,0,0,1.09-.52,2,2,0,0,0,.35-1.26V33.49c-.44-.43-.7-.69-.87-.82A2,2,0,0,0,0,32.45V32.1H3.26l6.31,7.27V34.49A3,3,0,0,0,9.31,33a1.74,1.74,0,0,0-1.09-.56"/><path class="a" d="M16.27,38.54h3.22l-1.65-4.39Zm3.14,4.4v-.31a3.3,3.3,0,0,0,1-.3.64.64,0,0,0,.26-.53,3,3,0,0,0-.22-.82l-.61-1.66H15.93l-.53,1.44a2.76,2.76,0,0,0-.21.87c0,.48.34.83,1.08,1v.31H12.79v-.31A1.88,1.88,0,0,0,13.88,42a6,6,0,0,0,.92-1.79l3.13-8.35h1.48l3.3,8.66a5.75,5.75,0,0,0,.88,1.61,1.71,1.71,0,0,0,1.13.52v.31Z"/><path class="a" d="M31.2,32.75h-.91v4.66a2.36,2.36,0,0,0,.78.13,2,2,0,0,0,1.57-.65,2.53,2.53,0,0,0,.56-1.79,2.42,2.42,0,0,0-.56-1.69,1.86,1.86,0,0,0-1.44-.66m-4.7-.65h5.57a4.25,4.25,0,0,1,2.7.78,2.58,2.58,0,0,1,1,2.09,2.76,2.76,0,0,1-1.09,2.26,4.8,4.8,0,0,1-3,.88c-.44,0-.91,0-1.39-.09v3.09a1.41,1.41,0,0,0,.3,1,1.84,1.84,0,0,0,1.05.48v.31H26.5v-.31a1.7,1.7,0,0,0,1.09-.48A1.92,1.92,0,0,0,27.85,41V33.93a1.46,1.46,0,0,0-.26-1,2.52,2.52,0,0,0-1.13-.48V32.1Z"/><path class="a" d="M42.3,32.1v.3a2.64,2.64,0,0,0-1.13.48,1.39,1.39,0,0,0-.27,1v7.31a1.12,1.12,0,0,0,.35.92,3.36,3.36,0,0,0,3-.18,5.15,5.15,0,0,0,1.22-1.74h.3L45.43,43H37.16v-.31a1.76,1.76,0,0,0,1.09-.52,2.05,2.05,0,0,0,.26-1.22V34a1.67,1.67,0,0,0-.26-1,1.91,1.91,0,0,0-1.09-.48V32.1Z"/><path class="a" d="M54.74,35.84h.35v3.35h-.35a1.39,1.39,0,0,0-1.48-1.39H51.35V41a1.41,1.41,0,0,0,.35,1,1.58,1.58,0,0,0,1.13.31h.65c1,0,1.83-.66,2.26-2h.31l-.22,2.62H47.61v-.31a1.9,1.9,0,0,0,1.08-.48A2,2,0,0,0,49,40.89v-7a1.51,1.51,0,0,0-.26-1,1.86,1.86,0,0,0-1.08-.43V32.1H55.7v2.39h-.31a3.13,3.13,0,0,0-.65-1.43,1.79,1.79,0,0,0-1.3-.35H51.35v4.48h1.91a1.39,1.39,0,0,0,1-.3,1.84,1.84,0,0,0,.48-1"/><path class="a" d="M64.79,31.84v2.87h-.3A3.51,3.51,0,0,0,63.4,33.1a2.48,2.48,0,0,0-1.61-.65,1.87,1.87,0,0,0-1.26.43,1.3,1.3,0,0,0-.52,1,1.49,1.49,0,0,0,.13.61,1.62,1.62,0,0,0,.39.56,11.55,11.55,0,0,0,1.65,1.13A15.47,15.47,0,0,1,64,37.45a5.24,5.24,0,0,1,.78.87,3.12,3.12,0,0,1-.43,4.09,3.73,3.73,0,0,1-2.48.87A8,8,0,0,1,60,43a5.46,5.46,0,0,0-.79-.13.62.62,0,0,0-.56.35h-.31V40h.31a3.66,3.66,0,0,0,1,2,2.66,2.66,0,0,0,1.87.74A2.25,2.25,0,0,0,63,42.28a1.29,1.29,0,0,0,.56-1.09,2,2,0,0,0-.35-1,9.79,9.79,0,0,0-1.91-1.44,9.15,9.15,0,0,1-1.92-1.34,2.86,2.86,0,0,1-.69-1,2.79,2.79,0,0,1-.22-1.22,2.88,2.88,0,0,1,1-2.26A3.33,3.33,0,0,1,61.83,32a3.5,3.5,0,0,1,1.09.17,5.21,5.21,0,0,0,.92.13.8.8,0,0,0,.56-.3h.39Z"/><path class="a" d="M93.91,32.1v.3a1.79,1.79,0,0,0-1,.44,1.12,1.12,0,0,0-.31.87,1.74,1.74,0,0,0,0,.48l1,6.74a2.21,2.21,0,0,0,.53,1.14,2.13,2.13,0,0,0,1.13.52v.3H90v-.3a2,2,0,0,0,1-.52,1.75,1.75,0,0,0,.31-1,5.4,5.4,0,0,0,0-.83L90.29,34l-3.56,8.88h-.4L82.81,34l-1,6.36a4.29,4.29,0,0,0,0,.69,1.33,1.33,0,0,0,1.35,1.53v.3H79.24v-.3A1.86,1.86,0,0,0,80.55,42a3.87,3.87,0,0,0,.61-1.83l1.08-7a2.25,2.25,0,0,0-1.56-.74v-.3h3.91l2.83,7.14,2.87-7.14Z"/><path class="a" d="M100.61,38.54h3.22l-1.66-4.39Zm3.13,4.4v-.31a3.3,3.3,0,0,0,1-.3.64.64,0,0,0,.26-.53,3,3,0,0,0-.22-.82l-.61-1.66h-3.87l-.52,1.44a2.82,2.82,0,0,0-.22.87c0,.48.35.83,1.09,1v.31H97.13v-.31A1.88,1.88,0,0,0,98.21,42a6,6,0,0,0,.92-1.79l3.13-8.35h1.48l3.31,8.66a5.78,5.78,0,0,0,.87,1.61,1.71,1.71,0,0,0,1.13.52v.31Z"/><path class="a" d="M115.45,32.75h-.74v4.44h.52a2.54,2.54,0,0,0,1.87-.56,2.37,2.37,0,0,0,.61-1.74c0-1.44-.79-2.14-2.26-2.14m-4.53,10.19v-.31c.91-.09,1.39-.52,1.39-1.39V33.93a1.44,1.44,0,0,0-.3-1,2.26,2.26,0,0,0-1.09-.43V32.1h5.13a6.16,6.16,0,0,1,3.14.7,2.22,2.22,0,0,1,1.09,2,2.37,2.37,0,0,1-.57,1.61,3.2,3.2,0,0,1-1.61,1v0a1.61,1.61,0,0,1,.83.61,12.91,12.91,0,0,1,1.3,2.09A11.66,11.66,0,0,0,121.45,42a1.94,1.94,0,0,0,1,.52v.31h-3.13a16.76,16.76,0,0,1-1.56-2.61,13.38,13.38,0,0,0-1-1.74,1.93,1.93,0,0,0-.65-.61,3.27,3.27,0,0,0-1.39-.18V41a1.48,1.48,0,0,0,.3,1,1.73,1.73,0,0,0,1.09.43v.3h-5.22Z"/><path class="a" d="M133.29,35.89H133a4.83,4.83,0,0,0-1.35-2.53,3.3,3.3,0,0,0-2.35-.91,2.83,2.83,0,0,0-2.39,1.26,5.84,5.84,0,0,0-.87,3.44,5.8,5.8,0,0,0,1,3.7,3.49,3.49,0,0,0,2.88,1.3,4.28,4.28,0,0,0,1.82-.39,5.45,5.45,0,0,0,1.66-1.31V41a5.15,5.15,0,0,1-4.4,2.22,5.61,5.61,0,0,1-4-1.52,5.37,5.37,0,0,1-1.57-4,5.81,5.81,0,0,1,5.87-5.87,7,7,0,0,1,2.31.43,3,3,0,0,0,.74.22c.26,0,.48-.17.65-.56h.31Z"/><path class="a" d="M144.77,37.63A7.1,7.1,0,0,0,144,33.8a2.78,2.78,0,0,0-2.48-1.31A2.71,2.71,0,0,0,139,33.8a7.16,7.16,0,0,0-.83,3.87,6.34,6.34,0,0,0,.87,3.66,2.94,2.94,0,0,0,4.88,0,7.35,7.35,0,0,0,.82-3.7m2.62-.09a5.55,5.55,0,0,1-1.66,4.09,6,6,0,0,1-4.26,1.61,5.71,5.71,0,0,1-4.22-1.61,5.47,5.47,0,0,1-1.66-4.09,5.55,5.55,0,0,1,1.66-4.09,5.71,5.71,0,0,1,4.22-1.61,5.82,5.82,0,0,1,4.26,1.61,5.55,5.55,0,0,1,1.66,4.09"/><path class="a" d="M159.83,32.1v.3a2.53,2.53,0,0,0-1.09.48,2.14,2.14,0,0,0-.26,1.27v6.91a1.51,1.51,0,0,0,.26,1,2.38,2.38,0,0,0,1.09.47v.31H154.7v-.31a4.29,4.29,0,0,0,.87-.3,1.26,1.26,0,0,0,.39-.44,2.73,2.73,0,0,0,.13-1V34a1.67,1.67,0,0,0-.26-1,2.13,2.13,0,0,0-1.09-.48V32.1Z"/><path class="a" d="M168.49,31.84v2.87h-.3a3.51,3.51,0,0,0-1.09-1.61,2.5,2.5,0,0,0-1.61-.65,1.86,1.86,0,0,0-1.26.43,1.31,1.31,0,0,0-.53,1,1.67,1.67,0,0,0,.13.61,1.65,1.65,0,0,0,.4.56,11.55,11.55,0,0,0,1.65,1.13,15.47,15.47,0,0,1,1.83,1.22,5.24,5.24,0,0,1,.78.87,3,3,0,0,1,.57,1.79,2.9,2.9,0,0,1-1,2.3,3.69,3.69,0,0,1-2.48.87A8,8,0,0,1,163.7,43a5.39,5.39,0,0,0-.78-.13.63.63,0,0,0-.57.35h-.3V40h.3a3.67,3.67,0,0,0,1,2,2.66,2.66,0,0,0,1.87.74,2.22,2.22,0,0,0,1.43-.44,1.3,1.3,0,0,0,.57-1.09,2,2,0,0,0-.35-1A9.79,9.79,0,0,0,165,38.71a9.15,9.15,0,0,1-1.92-1.34,2.89,2.89,0,0,1-.7-1,2.93,2.93,0,0,1-.21-1.22,2.88,2.88,0,0,1,1-2.26,3.37,3.37,0,0,1,2.44-.87,3.5,3.5,0,0,1,1.09.17,5.13,5.13,0,0,0,.91.13.8.8,0,0,0,.57-.3h.39Z"/><path class="a" d="M176.19,32.1v.3a2.7,2.7,0,0,0-1.13.48,1.45,1.45,0,0,0-.26,1v7.31a1.12,1.12,0,0,0,.35.92,2.45,2.45,0,0,0,1.35.26,2.51,2.51,0,0,0,1.61-.44,5.15,5.15,0,0,0,1.22-1.74h.3l-.3,2.83h-8.27v-.31a1.83,1.83,0,0,0,1.09-.52,2.05,2.05,0,0,0,.26-1.22V34a1.67,1.67,0,0,0-.26-1,2,2,0,0,0-1.09-.48V32.1Z"/><path class="a" d="M184.85,38.54h3.22l-1.65-4.39Zm3.13,4.4v-.31a3.2,3.2,0,0,0,1-.3.61.61,0,0,0,.26-.53A2.86,2.86,0,0,0,189,41l-.61-1.66H184.5L184,40.76a2.82,2.82,0,0,0-.22.87c0,.48.35.83,1.09,1v.31h-3.48v-.31a1.91,1.91,0,0,0,1.09-.65,6.06,6.06,0,0,0,.91-1.79l3.14-8.35H188l3.31,8.66a6.06,6.06,0,0,0,.87,1.61,1.74,1.74,0,0,0,1.13.52v.31Z"/><path class="a" d="M203.21,32.45V32.1h3.66v.3c-1,.05-1.57.66-1.57,1.79v8.88H205l-7.79-8.79v6.61a1.78,1.78,0,0,0,.3,1.22,2.63,2.63,0,0,0,1.26.52v.31H195v-.31a1.75,1.75,0,0,0,1.09-.52,2,2,0,0,0,.35-1.26V33.49c-.44-.43-.7-.69-.87-.82a1.5,1.5,0,0,0-.57-.27v-.3h3.26l6.31,7.27V34.49A3,3,0,0,0,204.3,33a1.61,1.61,0,0,0-1.09-.56"/><path class="a" d="M213.88,32.75h-1.4v8.31a1.19,1.19,0,0,0,.4,1,2.6,2.6,0,0,0,1.34.3,3.62,3.62,0,0,0,2.92-1.26,5.31,5.31,0,0,0,1-3.53,5.26,5.26,0,0,0-1.13-3.52,4,4,0,0,0-3.17-1.31M208.7,42.94v-.31a3.05,3.05,0,0,0,1.13-.52,2,2,0,0,0,.26-1.22V34a1.46,1.46,0,0,0-.26-1,2.68,2.68,0,0,0-1.13-.52V32.1h5.52A7.16,7.16,0,0,1,219,33.62a5,5,0,0,1,1.74,4,4.91,4.91,0,0,1-1.57,3.83A6,6,0,0,1,215,42.89H208.7Z"/><path class="a" d="M60.49,56.64h.34V60h-.34A1.39,1.39,0,0,0,59,58.6H57.09v3.18a1.41,1.41,0,0,0,.35,1,1.59,1.59,0,0,0,1.13.31h.65c1.05,0,1.83-.66,2.27-2h.3l-.22,2.62H53.35v-.31A1.94,1.94,0,0,0,54.44,63a2.12,2.12,0,0,0,.26-1.26v-7a1.57,1.57,0,0,0-.26-1,2.26,2.26,0,0,0-1.09-.43v-.31h8.09v2.4h-.3a3.23,3.23,0,0,0-.65-1.44,1.84,1.84,0,0,0-1.31-.35H57.09V58H59a1.38,1.38,0,0,0,1-.31,3.75,3.75,0,0,0,.48-1.09"/><path class="a" d="M74.32,52.9v.3a2.06,2.06,0,0,0-1.08.57,4.64,4.64,0,0,0-.83,1.44L69.06,64h-.31l-3.43-8.71a7.81,7.81,0,0,0-.83-1.61,2,2,0,0,0-1-.52v-.3h4.92v.3c-.61.09-.91.35-.91.78a2.32,2.32,0,0,0,.17.79l2.18,5.48L71.71,55a2.18,2.18,0,0,0,.18-.82c0-.57-.39-.92-1.18-1.05v-.3h3.61Z"/><path class="a" d="M83.42,56.64h.35V60h-.35a1.39,1.39,0,0,0-1.48-1.39H80v3.18a1.41,1.41,0,0,0,.35,1,1.59,1.59,0,0,0,1.13.31h.66c1,0,1.82-.66,2.26-2h.3l-.21,2.62H76.28v-.31A1.91,1.91,0,0,0,77.37,63a2.12,2.12,0,0,0,.26-1.26v-7a1.57,1.57,0,0,0-.26-1,2.22,2.22,0,0,0-1.09-.43v-.31h8.1v2.4h-.31a3.12,3.12,0,0,0-.65-1.44,1.82,1.82,0,0,0-1.31-.35H80V58h1.92a1.38,1.38,0,0,0,1-.31,3.75,3.75,0,0,0,.48-1.09"/><path class="a" d="M91.08,53.51h-.74V58h.52a2.54,2.54,0,0,0,1.87-.57,2.29,2.29,0,0,0,.61-1.74c0-1.39-.74-2.13-2.26-2.13M86.59,63.74v-.31c.92-.09,1.4-.52,1.4-1.39V54.68a1.42,1.42,0,0,0-.31-1,2.16,2.16,0,0,0-1.09-.44v-.3h5.14a5.74,5.74,0,0,1,3.13.7,2.22,2.22,0,0,1,1.09,2,2.32,2.32,0,0,1-.57,1.61,3.2,3.2,0,0,1-1.61,1v0a1.53,1.53,0,0,1,.83.61,12.76,12.76,0,0,1,1.31,2.09,10.41,10.41,0,0,0,1.22,1.91,1.91,1.91,0,0,0,1,.52v.31H95A16.61,16.61,0,0,1,93.47,61a12.53,12.53,0,0,0-1-1.74,2.13,2.13,0,0,0-.65-.61,3.32,3.32,0,0,0-1.4-.18v3.31a1.44,1.44,0,0,0,.31,1,1.7,1.7,0,0,0,1.09.43v.3H86.59Z"/><path class="a" d="M109.22,52.9V56h-.35a4.13,4.13,0,0,0-1.48-2,3.65,3.65,0,0,0-2.21-.74,2.85,2.85,0,0,0-2.53,1.39,7.18,7.18,0,0,0-.91,4,5.92,5.92,0,0,0,.91,3.57,3,3,0,0,0,2.57,1.22c1.09,0,1.61-.39,1.61-1.13V60.65a1.28,1.28,0,0,0-1.13-1.35V59h4.57v.31a1.23,1.23,0,0,0-.83.52,2,2,0,0,0-.22,1.09v2.3A9.63,9.63,0,0,1,105,64a6.26,6.26,0,0,1-3-.7,5.25,5.25,0,0,1-2.09-2,5.41,5.41,0,0,1-.74-2.88,5.63,5.63,0,0,1,1.65-4.13A5.82,5.82,0,0,1,105,52.6a6.18,6.18,0,0,1,2.18.43,3.68,3.68,0,0,0,.91.22,1.12,1.12,0,0,0,.78-.39h.35Z"/><path class="a" d="M117,52.9v.3a2.64,2.64,0,0,0-1.13.48,1.31,1.31,0,0,0-.26,1V62a1.15,1.15,0,0,0,.34.92,3.36,3.36,0,0,0,3-.18A5,5,0,0,0,120.1,61h.31l-.31,2.83h-8.27v-.31a1.76,1.76,0,0,0,1.09-.52,2,2,0,0,0,.26-1.22v-7a1.66,1.66,0,0,0-.26-1,2.05,2.05,0,0,0-1.09-.48v-.3Z"/><path class="a" d="M125.54,59.3h3.22l-1.65-4.4Zm3.13,4.44v-.31a3.2,3.2,0,0,0,1-.3.61.61,0,0,0,.26-.53,2.64,2.64,0,0,0-.22-.82l-.6-1.66h-3.88l-.52,1.44a2.82,2.82,0,0,0-.22.87c0,.48.35.83,1.09,1v.31h-3.48v-.31a1.94,1.94,0,0,0,1.09-.65,6.06,6.06,0,0,0,.91-1.79l3.13-8.31h1.48L132,61.34a5.74,5.74,0,0,0,.87,1.61,1.69,1.69,0,0,0,1.13.52v.31h-5.31Z"/><path class="a" d="M141,53.51h-1.39v8.35a1.21,1.21,0,0,0,.39,1,2.61,2.61,0,0,0,1.35.3,3.64,3.64,0,0,0,2.92-1.26,5.37,5.37,0,0,0,1-3.53,5.26,5.26,0,0,0-1.13-3.52A3.92,3.92,0,0,0,141,53.51m-5.18,10.23v-.31a3.12,3.12,0,0,0,1.14-.52,2,2,0,0,0,.26-1.22V54.77a1.46,1.46,0,0,0-.26-1,2.81,2.81,0,0,0-1.14-.52v-.31h5.53a7.2,7.2,0,0,1,4.79,1.53,5,5,0,0,1,1.74,4,4.91,4.91,0,0,1-1.57,3.83,6,6,0,0,1-4.22,1.44Z"/><path class="a" d="M156.83,56.64h.35V60h-.35a1.39,1.39,0,0,0-1.48-1.39h-1.92v3.18a1.41,1.41,0,0,0,.35,1,1.59,1.59,0,0,0,1.13.31h.66c1,0,1.82-.66,2.26-2h.3l-.21,2.62h-8.23v-.31a1.91,1.91,0,0,0,1.09-.48,2.12,2.12,0,0,0,.26-1.26v-7a1.57,1.57,0,0,0-.26-1,2.22,2.22,0,0,0-1.09-.43v-.31h8.1v2.4h-.31a3.12,3.12,0,0,0-.65-1.44,1.82,1.82,0,0,0-1.31-.35h-2.09V58h1.92a1.38,1.38,0,0,0,1-.31,2.3,2.3,0,0,0,.48-1.09"/><path class="a" d="M166.88,52.64v2.87h-.3a3.51,3.51,0,0,0-1.09-1.61,2.5,2.5,0,0,0-1.61-.65,1.86,1.86,0,0,0-1.26.43,1.31,1.31,0,0,0-.53,1,1.67,1.67,0,0,0,.13.61,1.65,1.65,0,0,0,.4.56A11.55,11.55,0,0,0,164.27,57a16.89,16.89,0,0,1,1.83,1.22,5.24,5.24,0,0,1,.78.87,3,3,0,0,1,.57,1.79,2.9,2.9,0,0,1-1,2.3,3.69,3.69,0,0,1-2.48.87,8,8,0,0,1-1.87-.26,5.39,5.39,0,0,0-.78-.13.63.63,0,0,0-.57.35h-.3V60.78h.3a4,4,0,0,0,1,2,2.66,2.66,0,0,0,1.87.74,2.22,2.22,0,0,0,1.43-.44,1.3,1.3,0,0,0,.57-1.09,2,2,0,0,0-.35-1,9.79,9.79,0,0,0-1.91-1.44,9.15,9.15,0,0,1-1.92-1.34,2.89,2.89,0,0,1-.7-1.05,8.31,8.31,0,0,1-.17-1.35,2.85,2.85,0,0,1,1-2.26,3.33,3.33,0,0,1,2.43-.87,3.5,3.5,0,0,1,1.09.17,5.21,5.21,0,0,0,.92.13.8.8,0,0,0,.56-.3Z"/><polygon class="a" points="37.42 79.49 37.42 73.09 41.95 73.09 41.95 74.31 38.77 74.31 38.77 75.66 41.86 75.66 41.86 76.83 38.77 76.83 38.77 79.49 37.42 79.49"/><polygon class="a" points="43.56 79.49 43.56 73.09 44.95 73.09 44.95 78.31 47.65 78.31 47.65 79.49 43.56 79.49"/><path class="a" d="M53.87,76.31A1.9,1.9,0,0,0,52,74.22a2,2,0,0,0-2,2.09,1.94,1.94,0,1,0,3.87,0m-5.26,0A3.35,3.35,0,1,1,52,79.62a3.21,3.21,0,0,1-3.35-3.31"/><path class="a" d="M60.66,75.14a.87.87,0,0,0-1-.87H58.27V76H59.7a.83.83,0,0,0,1-.87m-.13,4.35-1.26-2.26h-1v2.26H56.92v-6.4h3a2,2,0,0,1,2.18,2,1.89,1.89,0,0,1-1.4,1.91l1.44,2.44Z"/><rect class="a" x="63.79" y="73.09" width="1.35" height="6.4"/><path class="a" d="M71.63,76.31a1.88,1.88,0,0,0-2-2H68.45v4h1.17a1.92,1.92,0,0,0,2-2M67.1,79.49v-6.4h2.52A3.12,3.12,0,0,1,73,76.27a3.16,3.16,0,0,1-3.4,3.22Z"/><path class="a" d="M77,74.48l-1,2.75h2Zm1.74,5-.39-1.09H75.63l-.39,1.09H73.71l2.48-6.4h1.7l2.48,6.4Z"/><path class="a" d="M81.46,75.79l-.52-.44a1.71,1.71,0,0,0,.74-.91c-.05,0-.09,0-.18,0a.65.65,0,0,1-.65-.69.77.77,0,0,1,.74-.74.89.89,0,0,1,.87,1,2.49,2.49,0,0,1-1,1.78"/><path class="a" d="M83.77,78.62l.74-1.05a2.7,2.7,0,0,0,2,.87c.74,0,1.13-.34,1.13-.69,0-1.13-3.7-.35-3.7-2.74,0-1.05.92-2,2.44-2a3.57,3.57,0,0,1,2.48.87l-.74,1a2.78,2.78,0,0,0-1.87-.7c-.57,0-.91.26-.91.66,0,1,3.65.3,3.65,2.69,0,1.18-.83,2.05-2.57,2.05a3.85,3.85,0,0,1-2.69-1"/><path class="a" d="M97.47,75.18a.87.87,0,0,0-1-.87H95.08V76h1.44a.86.86,0,0,0,1-.83m-3.74,4.31v-6.4h3a2,2,0,1,1,0,4.09H95.12v2.26H93.73Z"/><path class="a" d="M102.61,74.48l-1,2.75h2Zm1.74,5L104,78.4h-2.74l-.4,1.09H99.3l2.48-6.4h1.7l2.48,6.4Z"/><path class="a" d="M110.88,75.14a.87.87,0,0,0-1-.87h-1.44V76h1.44a.84.84,0,0,0,1-.87m-.13,4.35-1.27-2.26h-1v2.26h-1.35v-6.4h3a2,2,0,0,1,2.17,2,1.89,1.89,0,0,1-1.39,1.91l1.44,2.44Z"/><path class="a" d="M116.79,74.48l-1,2.75h2Zm1.74,5-.39-1.09H115.4L115,79.49h-1.52l2.48-6.4h1.69l2.48,6.4Z"/><path class="a" d="M125.85,76.31a1.88,1.88,0,0,0-2-2h-1.17v4h1.17a1.92,1.92,0,0,0,2-2m-4.53,3.18v-6.4h2.52a3.12,3.12,0,0,1,3.4,3.18,3.16,3.16,0,0,1-3.4,3.22Z"/><rect class="a" x="128.89" y="73.09" width="1.35" height="6.4"/><path class="a" d="M131.81,78.62l.74-1.05a2.7,2.7,0,0,0,2,.87c.74,0,1.13-.34,1.13-.69,0-1.13-3.7-.35-3.7-2.74,0-1.05.92-2,2.44-2a3.57,3.57,0,0,1,2.48.87l-.74,1a2.78,2.78,0,0,0-1.87-.7c-.56,0-.91.26-.91.66,0,1,3.65.3,3.65,2.69,0,1.18-.82,2.05-2.57,2.05a3.85,3.85,0,0,1-2.69-1"/><polygon class="a" points="138.68 79.49 138.68 73.09 143.21 73.09 143.21 74.31 140.03 74.31 140.03 75.66 143.16 75.66 143.16 76.83 140.03 76.83 140.03 78.31 143.21 78.31 143.21 79.49 138.68 79.49"/><path class="a" d="M147.73,76.31a3.25,3.25,0,0,1,3.4-3.31,2.83,2.83,0,0,1,2.65,1.57l-1.17.57a1.67,1.67,0,0,0-1.48-.92,2.09,2.09,0,0,0,0,4.18,1.68,1.68,0,0,0,1.48-.91l1.17.56a2.9,2.9,0,0,1-2.65,1.57,3.25,3.25,0,0,1-3.4-3.31"/><path class="a" d="M160.18,76.31a1.9,1.9,0,0,0-1.92-2.09,2,2,0,0,0-1.95,2.09,1.94,1.94,0,1,0,3.87,0m-5.27,0a3.35,3.35,0,1,1,3.35,3.31,3.22,3.22,0,0,1-3.35-3.31"/><path class="a" d="M165.53,74.48l-1,2.75h2Zm1.79,5-.4-1.09h-2.74l-.39,1.09h-1.52l2.48-6.4h1.69l2.49,6.4Z"/><path class="a" d="M169.75,78.62l.74-1.05a2.73,2.73,0,0,0,2,.87c.74,0,1.13-.34,1.13-.69,0-1.13-3.7-.35-3.7-2.74,0-1.05.91-2,2.44-2a3.57,3.57,0,0,1,2.48.87l-.74,1a2.79,2.79,0,0,0-1.87-.7c-.57,0-.92.26-.92.66,0,1,3.66.3,3.66,2.69,0,1.18-.83,2.05-2.57,2.05a3.85,3.85,0,0,1-2.7-1"/><polygon class="a" points="178.06 79.49 178.06 74.31 176.19 74.31 176.19 73.09 181.28 73.09 181.28 74.31 179.46 74.31 179.46 79.49 178.06 79.49"/><path class="a" d="M73,35.45a1.5,1.5,0,1,1-1.08.44A1.57,1.57,0,0,1,73,35.45"/></svg>