<svg xmlns="http://www.w3.org/2000/svg" viewBox="0 0 775.57 234.98">
  <defs>
    <style>
      .a {
        fill: #e10a0a;
        fill-rule: evenodd;
      }

      .b {
        fill: #fff;
      }
    </style>
  </defs>
  <title>virgin-holidays</title>
  <g>
    <path class="a" d="M317.09,51c-2.79,0-4.51,2.42-3.87,5.42s3.43,5.45,6.22,5.45,4.51-2.42,3.87-5.42S319.87,51,317.09,51m17.17,19.94c-2.07,8.64-12.94,47.43-16.35,59.71-2.08,7.49-3.21,12.3-12.73,16.48-41.45,18.19-195.71,80.42-210,85.42-13,4.55-35,5.2-43.39-19.6C42.56,185.73,5.27,66.7,2,55.22-1.92,41.6-2.86,28.28,26.62,24.07,68.29,18.12,139.79,8.21,208.9.89,220.16-.3,220.78-.67,229.4,2.2c6.21,2.08,87.58,34.92,93.46,37.68C338.74,47.36,337.39,57.89,334.26,70.91Z"/>
    <path class="b" d="M591.44,77.84H569a9.51,9.51,0,0,0-6.56,2.45A11,11,0,0,0,559.31,87l-7.16,40.76c-.56,3.19.45,4.91,1.37,5.72.35.33,1.85,1.55,6.11,1.55h23.23c9,0,14.45-4,17.27-7,5.76-6.21,7.89-16,9-22.22,1.2-6.86,2.4-15-2.09-21.15-2.78-3.76-7.65-6.78-15.58-6.78M598.13,105c-1.71,9.71-3.93,14-5.71,16.17-3.16,4-7.31,5.31-13.29,5.31H566.7c-1,0-2.05,0-2.64-.82s-.39-2-.19-3.11l5.74-32.67A4.58,4.58,0,0,1,571.26,87a4.73,4.73,0,0,1,2.64-.57h11.2c3.85,0,8.87.74,11.55,4.17C599.59,94.34,599,100.06,598.13,105ZM442.27,77.45c-6.79,0-16.06,0-23.33,6-7.09,5.83-9.13,15.3-10.46,23-1.11,6.4-2.89,16.68,2.49,23,5.12,6,14.63,6,21.26,6,6.48,0,16.23,0,23.34-6,6.74-5.67,9.09-15.54,10.38-23s2.44-17.31-2.42-23C458.42,77.45,448.9,77.45,442.27,77.45Zm12.81,29c-1.59,9.15-3.93,13.44-6.18,15.78-4.1,4.29-9.52,4.7-15.28,4.7s-11-.41-13.57-4.7c-1.43-2.34-2.3-6.55-.7-15.78,1.5-8.65,3.55-13.1,6.18-15.85,4-4.13,9.36-4.62,15.19-4.62,5.67,0,11.11.49,13.67,4.62C455.77,92.75,456.77,96.63,455.08,106.42Zm85.71-29a6.75,6.75,0,0,0-6.35,5.44l-8.26,47a4.45,4.45,0,0,0,4.45,5.45A6.75,6.75,0,0,0,537,130l8.26-47A4.44,4.44,0,0,0,540.79,77.46ZM399,77.45a6.75,6.75,0,0,0-6.34,5.45l-3.25,18.47H359.62l3.24-18.47a4.43,4.43,0,0,0-4.44-5.44,6.77,6.77,0,0,0-6.36,5.44l-8.26,47a4.44,4.44,0,0,0,4.45,5.44A6.74,6.74,0,0,0,354.6,130l3.52-20h29.75l-3.52,20a4.43,4.43,0,0,0,4.42,5.45,6.74,6.74,0,0,0,6.34-5.45l8.28-47A4.45,4.45,0,0,0,399,77.45Zm113.76,49H486.8a3.61,3.61,0,0,1-2.58-.65,2.72,2.72,0,0,1-.31-2.46L491,82.9a4.44,4.44,0,0,0-4.44-5.45,6.75,6.75,0,0,0-6.35,5.45l-8.06,45.9a5.13,5.13,0,0,0,1.22,4.74c1.12,1.06,3.17,1.47,5.05,1.47H511.2c3,0,5.86-1.93,6.28-4.29S515.75,126.42,512.71,126.42Zm258-48.58H746.81c-4.58,0-9.36.36-13,4.69a20.23,20.23,0,0,0-4.2,9.43c-.77,3.89-.59,7.06.51,9.43,1.34,2.91,4.5,5,9.95,6.75l9.8,3.14c7.58,2.39,8.68,3.19,9.42,4,1.33,1.68,1.16,3.64.83,5.34a8,8,0,0,1-2.16,4.45,6.78,6.78,0,0,1-5.14,2H728.28c-3,0-5.84,1.76-6.22,3.92s1.8,3.92,4.84,3.92h28.52a14.21,14.21,0,0,0,8.51-2.24c2.16-1.62,5.06-5,6.39-11.77.85-4.36.51-7.77-1-10.11-1.92-3-5.91-4.45-11.76-6.41l-10.93-3.59c-3.32-1.1-5.49-2.19-6.47-3.23-1.62-1.75-1.42-3.58-1-5.47A7.51,7.51,0,0,1,742,87a7.87,7.87,0,0,1,5.09-1.36h22.73v0c2.83-.19,5.32-1.87,5.68-3.9S773.73,77.84,770.69,77.84ZM724,82.47a4.08,4.08,0,0,0-4.08-5,6,6,0,0,0-4.59,2.34L693.47,108,681.72,80.07a4,4,0,0,0-3.88-2.62,6.16,6.16,0,0,0-5.78,5,4.43,4.43,0,0,0,.29,2.63l14.23,32.76L684.31,130a4.38,4.38,0,0,0,4.42,5.35A6.66,6.66,0,0,0,695,130l2.39-12.71,25.15-32A6,6,0,0,0,724,82.47Zm-56.43,45.8v-.06h0L656.79,84.27c-1.19-4.77-3.33-6.81-8.19-6.81-5.09,0-7.56,2-10.57,6.82L612,128.34h0a5.9,5.9,0,0,0-.69,1.88,4.22,4.22,0,0,0,4.25,5.17,6.4,6.4,0,0,0,5.39-3.28l6.52-11.28h27.24l2.61,11.25a4.15,4.15,0,0,0,4.23,3.3,6.45,6.45,0,0,0,6.08-5.17A4.89,4.89,0,0,0,667.54,128.27Zm-35.75-15,13-23.47c.46-.81,1.27-2.31,2-2.31s1,1.5,1.23,2.31l4.86,23.47Z"/>
    <path class="b" d="M117.51,110.45s0-.08.07-.11.08,0,.12-.06a.61.61,0,0,0,.06-.28.57.57,0,0,1,0-.14.27.27,0,0,0,.07-.13c0-.13,0-.28,0-.42s.12-.23.11-.37a1.64,1.64,0,0,0,0-.32.68.68,0,0,1,0-.15c0-.06,0-.09,0-.14a.52.52,0,0,1-.06-.13s0-.1,0-.15-.09-.09-.12-.14a.6.6,0,0,1,0-.22,4.66,4.66,0,0,1,.29-1.38c0-.12,0-.24,0-.35s0-.12.09-.13.12,0,.17,0,.18-.13.25-.24a1,1,0,0,0,.12-.32c0-.09.09-.21,0-.29a.3.3,0,0,0-.15,0s0,0-.06,0a.66.66,0,0,1,0-.14c0-.14.1-.14.21-.22a.36.36,0,0,0,.13-.28c0-.07-.07-.1-.11-.15a.56.56,0,0,1-.07-.16.21.21,0,0,1,.07-.27.44.44,0,0,0,.14-.26s0-.07,0-.11a.42.42,0,0,0,0-.16c0-.1-.14-.07-.14-.2a.94.94,0,0,1,.08-.33,1.07,1.07,0,0,1,.07-.32.61.61,0,0,0,0-.3,2,2,0,0,1,.12-.4.87.87,0,0,0,.07-.17s0-.11,0-.16.09-.07.07-.17,0-.29,0-.45a.57.57,0,0,1,0-.18.14.14,0,0,0,0-.07s0,0,0,0,0-.07.07-.12a.71.71,0,0,0,0-.21,1.07,1.07,0,0,1,.07-.32.81.81,0,0,0,.12-.29,1.66,1.66,0,0,1,0-.32,1.06,1.06,0,0,0,0-.31,1.54,1.54,0,0,1,0-.31,2.06,2.06,0,0,1,.12-.26,1,1,0,0,0,.08-.29,1.82,1.82,0,0,0,0-.33.42.42,0,0,1,0-.15s.07,0,.09-.09,0-.17,0-.25a.42.42,0,0,0,0-.12.88.88,0,0,1,0-.17c0-.09.06-.19.08-.28s.11-.47.17-.69.09-.22.13-.34,0-.27.14-.25-.13-.06-.12-.16.09-.09.14-.12-.08,0-.08-.06,0-.06.06-.06a1.3,1.3,0,0,1,0-.48c0-.06.06-.06.06-.14s0-.12,0-.18.09-.07.11-.11,0-.13,0-.17a1.43,1.43,0,0,1,.06-.36s.06-.08.08-.13a1.16,1.16,0,0,0,0-.18s0-.15,0-.19,0,0,.07,0a.28.28,0,0,0,0-.09c0-.11,0-.24.06-.35s0-.16,0-.18.11,0,.12-.07,0-.17,0-.25,0-.06,0-.1,0-.12,0-.17.06-.08.09-.15,0-.1,0-.15.06-.11,0-.15,0-.07,0-.11a.33.33,0,0,0,0-.14c0-.11.06-.2.08-.31a.65.65,0,0,1,.08-.27c.06-.08,0-.2.07-.27s.07,0,.09-.11a1.21,1.21,0,0,0,0-.19,1,1,0,0,1,.06-.16c0-.06,0-.1,0-.16s0-.07.07-.13a.41.41,0,0,0,0-.16.29.29,0,0,1,.07-.18s.07-.06.08-.11,0,0,0-.09a.4.4,0,0,1,.08-.22c0-.07,0-.06.11-.09s0-.08.08-.11,0,0,.08,0,0-.07,0-.09a.62.62,0,0,1,0-.19c0-.11.06-.18.18-.2,0-.06,0-.16.07-.21s0,0,0-.11,0-.08,0-.12,0-.38.09-.53.14-.12.19-.2a.7.7,0,0,0,.06-.35.5.5,0,0,1,.06-.34c.13-.14.3-.19.41-.35a.37.37,0,0,0,0-.15s0-.08,0-.12,0-.08,0-.13,0-.09,0-.14a1,1,0,0,1,0-.3c0-.11.16-.17.17-.27a1.12,1.12,0,0,1,0-.2.34.34,0,0,1,0-.08.16.16,0,0,1,0-.06.74.74,0,0,0,.08-.34,1.09,1.09,0,0,1,.1-.32c0-.11,0-.25.07-.36a2.38,2.38,0,0,1,.18-.3.41.41,0,0,1,.23-.22l.17,0s0-.07.11-.1a.38.38,0,0,0,.18-.25.67.67,0,0,0,.06-.15,1.1,1.1,0,0,1,0-.18c0-.06.07-.07.09-.14a.35.35,0,0,1,.07-.15.81.81,0,0,0,.1-.21,1.74,1.74,0,0,0,.1-.19s0-.09,0-.13.07-.16,0-.28a.82.82,0,0,1,0-.35c0-.11.14-.17.13-.28s0-.08-.09-.13a.31.31,0,0,1-.06-.16.81.81,0,0,1,.06-.35,2.22,2.22,0,0,1,0-.37c0-.07.05,0,.06-.13a1.09,1.09,0,0,1,0-.18.88.88,0,0,0,.06-.36,2.28,2.28,0,0,1,0-.36.85.85,0,0,1,0-.16c0-.07,0-.1,0-.16a.35.35,0,0,0,0-.17c0-.06,0-.07,0-.12s.09-.07.12-.12l.06-.15a.59.59,0,0,0,0-.32c0-.11-.07-.22,0-.33s.14-.09.17-.16,0-.15-.07-.24a.61.61,0,0,1,0-.3,1.71,1.71,0,0,1,.31-.69c.13-.23.2-.47.33-.7a2.93,2.93,0,0,0,.36-.76.37.37,0,0,0,0-.18s0-.11,0-.15c0-.19.1-.29.16-.45a3.72,3.72,0,0,0,.19-.65c0-.11.06-.24.08-.35s0-.26,0-.37.12-.23.13-.37,0-.13,0-.2a.3.3,0,0,1,.17-.12c.14-.07.15-.14.19-.28a1.25,1.25,0,0,1,.22-.6c.06-.06.14,0,.2-.1s.06-.15.07-.23l.07-.21c-.09-.13-.23-.18-.27-.35a1,1,0,0,1,0-.45c0-.07,0-.08.1-.14a1,1,0,0,0,.08-.15,4,4,0,0,0,.2-.35,1.54,1.54,0,0,0,.06-.43.85.85,0,0,1,0-.23s.08-.12.1-.16.12-.11.18-.18a.62.62,0,0,0,.09-.25.35.35,0,0,0,0-.2c0-.06-.07-.09-.1-.15a.43.43,0,0,1,.06-.35,1.72,1.72,0,0,0,.22-.33c0-.07.17-.35,0-.35a1.38,1.38,0,0,1,.08-.27,1.11,1.11,0,0,0,.09-.19c0-.11,0,0,.13-.1s0-.06-.05-.09a.13.13,0,0,1-.07-.15,2.22,2.22,0,0,1,.06-.44,2.68,2.68,0,0,1,.18-.47.25.25,0,0,1,0-.07.29.29,0,0,0,0-.1,1,1,0,0,0,.07-.15,2.63,2.63,0,0,1,.06-.39,1.18,1.18,0,0,1,.14-.37c.06-.11.08-.23.19-.31a.33.33,0,0,0,.14-.32c0-.09,0-.14,0-.19s.09-.06.11-.13-.05-.11-.06-.18a.21.21,0,0,1,.07-.18c0-.06.1-.07.14-.12a.45.45,0,0,0,0-.2c0-.08-.08-.08-.09-.13s.08-.12.1-.17,0-.12.08-.17.11,0,.14-.08,0-.13,0-.18,0-.08.06-.14.1-.08.11-.12,0-.13,0-.19,0-.26,0-.4,0-.17,0-.26.08-.09.1-.16,0-.15,0-.21a.45.45,0,0,1,.1-.14c.06-.08,0-.18,0-.27a1,1,0,0,1,.11-.23,1,1,0,0,1,.06-.16,1.43,1.43,0,0,1,.14-.34s0-.11.07-.13.11,0,.14-.05l0-.09s0,0,0-.05,0,0,0,0a.44.44,0,0,0,.06-.12.27.27,0,0,1,0-.09.07.07,0,0,1,0-.06.13.13,0,0,0,0-.07s0,0,0-.06,0-.14,0-.16,0,0,0,0,0,0,0,0,.09,0,.11-.07a.34.34,0,0,0,0-.17c0-.06,0-.3,0-.36a.89.89,0,0,1,0-.14s.06-.06.09-.09a.55.55,0,0,0,.06-.28,1.35,1.35,0,0,1,0-.18c0-.05.13-.22.15-.27l.06,0s0,0,0-.06a.29.29,0,0,1,0-.16,1.22,1.22,0,0,1,0-.17.53.53,0,0,1,.13-.26.5.5,0,0,0,.08-.12,1.2,1.2,0,0,1,.15-.24c0-.05,0-.12,0-.17a1.65,1.65,0,0,1,.11-.36c0-.07.19-.23.12-.3.08-.3.39-.41.47-.71a1.31,1.31,0,0,1,.2-.41.62.62,0,0,0,.1-.22c0-.07-.11-.08-.07-.17s.21-.26.27-.35,0-.29.13-.45a1.46,1.46,0,0,1,.16-.19l.07-.09s.05,0,.08-.08,0-.1,0-.14.06,0,.08-.07a.83.83,0,0,0,0-.31c0-.09.06-.17.05-.24s-.1-.12-.09-.24a1.65,1.65,0,0,1,0-.31c0-.07.16-.15,0-.19a1.64,1.64,0,0,1,.18-.44c.06-.15.13-.29.2-.44s.14-.36.21-.54.1-.14.13-.21,0-.21.06-.29a2.59,2.59,0,0,0,.25-.5s0-.11,0-.13.07,0,.1-.08,0-.2,0-.3.05-.19.17-.26a.66.66,0,0,1,0-.14s0,0,.07-.09l.23-.44c0-.07.07,0,.08-.12s-.06-.06,0-.12.08,0,.11-.06a.8.8,0,0,0,0-.15c0-.1,0-.27.14-.29a.66.66,0,0,0,0-.14c.15,0,.29-.59.33-.7l.61-1.38a2.74,2.74,0,0,1,.4-.78l-.05,0a.3.3,0,0,1,.11-.24.33.33,0,0,0,.1-.23,1.65,1.65,0,0,1,.21-.47l0-.1s.06,0,.09-.07a1.17,1.17,0,0,1,.07-.25c.07-.16.09-.3.17-.45s.17-.38.29-.55.06-.1.07-.13a.68.68,0,0,0,0-.12c0-.1.1-.17.13-.27s0-.12,0-.15.07-.05.09-.09a1.58,1.58,0,0,0,.13-.26,2.76,2.76,0,0,1,.08-.27,3.48,3.48,0,0,1,.23-.38.62.62,0,0,0,.07-.19,1.6,1.6,0,0,1,.2-.39,2.58,2.58,0,0,1,.25-.42,1.66,1.66,0,0,1,.21-.16c.07-.07.07-.11.2-.13s-.06-.69.21-.57a.55.55,0,0,1,.07-.28,1.18,1.18,0,0,1,.22-.14c-.21-.15.06-.32.19-.4l0,0s.12-.05.16-.11,0-.13,0-.21.16-.21.25-.32.1-.27.25-.35.08-.07.1-.19a1.27,1.27,0,0,1,.23-.43c.2-.27.41-.49.59-.75a.42.42,0,0,1,.11-.15s.11,0,.13,0a.84.84,0,0,0,.12-.23,1,1,0,0,1,.14-.25,1.64,1.64,0,0,0,.21-.25c.05-.07.11-.12.17-.19a2.08,2.08,0,0,0,.19-.29.68.68,0,0,1,.18-.2c.06-.05.16-.07.19-.14s0-.14.1-.13,0-.07,0-.13a1.25,1.25,0,0,0,.09-.12,1.49,1.49,0,0,0,.12-.14c0-.05,0-.09.1-.13s.12-.05.14-.09,0-.07.05-.12.12-.05.15-.09,0-.1.07-.14.12,0,.14-.07,0-.06,0-.09l.05,0a.73.73,0,0,0,.24-.34,2,2,0,0,1,.35,0c.15,0,0-.16.11-.26s.09-.05.13-.08.06-.09.1-.13a.12.12,0,0,0,0-.14c0-.06,0-.05,0-.11a.16.16,0,0,1,.12-.08.1.1,0,0,1,.09.11c0,.07,0,.1-.06.14s-.06,0,0,.07a.06.06,0,0,0,.07,0c0,.1.18,0,.21-.06s0-.09.07-.13a.38.38,0,0,1,.11-.11c.09-.11,0-.16,0-.27s-.06-.13,0-.18.15,0,.19-.1,0-.14,0-.18.11,0,.09.09-.1.06,0,.12.12,0,.16,0,0,0,.06,0,0-.07,0-.1,0-.09,0-.1.06,0,.07,0,0-.1,0-.14.08-.05.14-.06h.1l0,0a.34.34,0,0,1,.12.06s0,0,0,.06a.06.06,0,0,0,.08,0s0-.05,0-.07l.06,0c.07,0,.05,0,.08-.11s.07-.07.08-.13,0-.14,0-.2l.08-.12c.07,0,.11.12.12,0s0-.18.09-.14a.32.32,0,0,1,0-.14.65.65,0,0,0,0-.34c0-.11-.07-.22,0-.33a.33.33,0,0,1,.21-.19s.06,0,.09,0l0,0c.07,0,.07,0,.14,0s-.12-.17-.09-.25a.38.38,0,0,1,.09-.13s.09-.06.12-.1,0-.1,0-.15,0-.05,0-.06,0,0,.07,0,0-.1.07-.14.08-.06.09-.09,0-.06,0-.08a.35.35,0,0,1,0-.08,1.47,1.47,0,0,0,.1-.13c.05-.09.13-.14.17-.23a1.66,1.66,0,0,0,.17-.32c0-.07,0-.07.05-.12s.07-.15.13-.2.05,0,.06,0,0-.07,0-.14.1-.17.14-.27,0-.22.08-.3.06-.06.08-.12,0-.09.06-.13a1.2,1.2,0,0,0,0-.19.47.47,0,0,1,.06-.15,1.06,1.06,0,0,0,0-.31c0-.12,0-.25.06-.36s.05-.11.05-.16,0-.1,0-.15,0,0-.05,0-.1,0-.07-.11.07-.07.09-.11,0-.24,0-.34v-.66a.82.82,0,0,0,0-.27,1,1,0,0,1-.08-.24c0-.06,0-.11,0-.16a.52.52,0,0,0,0-.18c0-.11,0-.24,0-.35s-.1-.21-.13-.31a.75.75,0,0,0,0-.16c0-.07-.08-.09-.07-.17s0-.14,0-.21-.07-.18-.1-.27a.71.71,0,0,0-.08-.15.53.53,0,0,1,0-.18c0-.12-.12-.15-.15-.28s0-.11,0-.15-.1-.05-.12-.14,0-.1,0-.15a2.93,2.93,0,0,1-.23-.43s0-.1-.06-.14l-.12-.12c-.15-.18-.3-.35-.44-.53s-.18-.13-.25-.2,0-.07-.07-.09,0,0-.07,0,0-.09-.09-.14-.09,0-.12-.05l0-.07-.07-.06s0,0,0-.05-.12,0-.15-.11,0-.09,0-.12-.16,0-.22,0-.06-.07-.11-.11a1.7,1.7,0,0,0-.22-.15L148,14l-.1-.1a2.83,2.83,0,0,0-.31-.11c-.14-.06-.26-.16-.4-.21s-.2-.1-.32-.14-.24,0-.35-.07a.32.32,0,0,0-.16,0s0,0-.08,0l-.09-.06a.77.77,0,0,0-.29-.17c-.14,0-.27,0-.4,0a3.24,3.24,0,0,0-.4-.09l-.43,0a2.91,2.91,0,0,0-.4,0c-.08,0-.12,0-.19,0l-.17-.06c-.07,0-.14.07-.21.07s-.1-.07-.16-.07A4.21,4.21,0,0,0,143,13l-.52.08c-.19,0-.25.13-.4.19s-.3,0-.45.12l-.41.18a12.46,12.46,0,0,0-1.83,1.23c-.21.15-.27.29-.46.44,0,0-.05.09-.09.11s-.14,0-.18,0a.26.26,0,0,0-.07.28.55.55,0,0,0-.3.28l-.11,0c0,.11-.11.08-.17.16s-.08.2-.15.28-.26.29-.39.46-.27.28-.38.45a4.82,4.82,0,0,0-.57.87,2.38,2.38,0,0,0-.21.56c-.27.07-.44.62-.56.86s-.32.6-.47.9a19.4,19.4,0,0,0-.75,1.8c-.13.34-.23.67-.4,1a3.42,3.42,0,0,0-.42,1,5.13,5.13,0,0,1-.4,1.2c-.15.36-.27.74-.41,1.1a21.63,21.63,0,0,0-.83,2,9.79,9.79,0,0,1-.4,1.07c-.15.36-.24.73-.38,1.06-.28.66-.46,1.38-.73,2.06-.08.22-.26.42-.33.66a6.75,6.75,0,0,1-.26.84c-.22.52-.37,1.06-.58,1.58a17.56,17.56,0,0,0-.64,1.76c-.26.75-.56,1.48-.82,2.24-.1.31-.29.6-.38.92a5.53,5.53,0,0,1-.35,1c-.17.36-.31.8-.45,1.18s-.29,1-.47,1.49-.48,1-.65,1.6c-.22.7-.46,1.39-.74,2.06-.67,1.64-1.21,3.38-1.75,5.07a2.68,2.68,0,0,1-.18.47c-.08.16-.08.27-.15.41s-.21.28-.28.41a1.82,1.82,0,0,0-.24.51,6,6,0,0,0-.24,1.12,5.37,5.37,0,0,1-.46,1.42,7,7,0,0,1-.21.75,7.11,7.11,0,0,0-.66,1.43c-.07.34-.28.62-.37.95s-.15.69-.25,1.05-.31.62-.17.84c-.21.18-.25.7-.33.94a9.06,9.06,0,0,1-.23,1.06c-.16.32-.46.64-.46,1a5.07,5.07,0,0,0,0,1.1c0,.27-.2.33-.31.52a1.62,1.62,0,0,0-.19.69,1.19,1.19,0,0,1-.1.64,7.41,7.41,0,0,0-.25.71c-.27.93-.49,1.83-.79,2.74-.14.45-.2.94-.34,1.4s-.35.9-.49,1.36c-.28.92-.46,1.87-.65,2.81-.06.32-.18.64-.22,1,0,.14.05.35,0,.46s-.25.34-.29.57a3.76,3.76,0,0,1-.14.73,8.4,8.4,0,0,0-.44,1.31c-.2,1-.57,1.87-.77,2.83-.16.75-.46,1.46-.6,2.22a8.28,8.28,0,0,1-.13,1c-.1.38-.23.76-.34,1.15s-.14.51-.2.77,0,.28-.06.39-.15.16-.19.29,0,.4-.1.65a2.2,2.2,0,0,0-.12.62c-.07.45-.22.94-.33,1.38-.18.71-.37,1.38-.55,2.1-.09.36-.15.76-.23,1.12-.15.7-.27,1.4-.38,2.11-.06.38-.18.74-.26,1.1s-.16.73-.23,1.07-.3.76-.13,1a2.1,2.1,0,0,0-.25,1,5.38,5.38,0,0,1-.13,1c-.14.51-.29,1-.38,1.54a11.37,11.37,0,0,1-.27,1.29,6.67,6.67,0,0,0-.16,1c-.08.53-.18,1-.23,1.58-.11,1.07-.37,2.11-.55,3.16a12.59,12.59,0,0,0-.23,1.39c0,.72-.31,1.43-.38,2.14,0,.25-.12.51-.16.77-.09.54-.11,1.08-.2,1.61a23,23,0,0,1-.55,3,6.63,6.63,0,0,0-.16,1.1c-.13,1.34-.39,2.68-.58,4-.1.64-.18,1.29-.24,1.94,0,.32,0,.68-.11,1s0,.42,0,.67c0,.05-.1.15-.12.23s0,.22,0,.32c0,.41-.14.81-.16,1.26-.06,0-.09,0-.16,0a.92.92,0,0,0,0,.37c-.12.08-.09.31-.19.36s-.19-.2-.16-.31c-.2-.21-.16-.23-.45-.11a2.44,2.44,0,0,0-.14-.34c0-.19,0-.13,0-.29a1.73,1.73,0,0,0,0-.85c0-.16-.12-.16-.11-.33s.1-.19.1-.32c0-.43-.29-.34-.57-.45,0-.12.11-.16.12-.25s-.06-.25-.07-.4,0-.48,0-.74a3.08,3.08,0,0,0,0-.68,3.7,3.7,0,0,1-.2-.64c0-.23-.15-.46-.15-.67s.1-.19.12-.26,0-.31,0-.42c.08-.32.25-.29.16-.62-.21-.67,0-.49,0-.74a1.67,1.67,0,0,0-.17-.61c-.06-.09-.16-.1-.25-.16s-.09-.13-.12-.28-.06-.11,0-.17.21,0,.19-.09a.12.12,0,0,0-.11,0c-.1,0,0,0-.06.09s-.24-.06-.19-.23.08-.12.07-.22-.11-.1,0-.19.34-.18.33-.27-.07,0-.1,0,0,0-.1,0-.17.09-.23.08c0,.16-.19.06-.22,0s0-.13,0-.19,0-.12,0-.19a2.29,2.29,0,0,0,0-.37.46.46,0,0,1,0-.31c0-.09.14-.14.14-.25a.23.23,0,0,0-.09-.23c-.16-.11-.08-.06,0-.16a.83.83,0,0,0,.07-.27,1.7,1.7,0,0,1,.09-.24c0-.08,0-.2,0-.28s.08,0,.1-.06,0-.07.06-.12a1.57,1.57,0,0,0,.09-.23.76.76,0,0,0,0-.47,1.83,1.83,0,0,1-.18-.34c0-.12,0-.26-.06-.37s-.14-.13-.17-.21,0-.2,0-.27-.24-.14-.07-.17c0-.12-.08-.14-.11-.22s0-.19-.07-.28-.1-.12-.12-.21a1.46,1.46,0,0,1,0-.3,5.13,5.13,0,0,1-.12-.59c0-.22,0-.44,0-.67a2,2,0,0,0,0-.55,1.24,1.24,0,0,0-.1-.2c-.06-.1,0-.14,0-.26a.88.88,0,0,0-.12-.21,2,2,0,0,1-.13-.31c0-.16,0-.4-.14-.51.09-.07.07-.14,0-.23a1.19,1.19,0,0,1-.07-.27.59.59,0,0,0,0-.27c0-.07-.16-.11,0-.18s.19,0,.28-.06a.33.33,0,0,0,.07-.23,1.15,1.15,0,0,0-.31-.43,1,1,0,0,1-.24-.53,2.63,2.63,0,0,1,.06-.39,1.87,1.87,0,0,0-.07-.4c0-.13,0-.27,0-.4s-.07-.18-.12-.3,0-.24-.07-.34-.15-.15-.21-.22a1.35,1.35,0,0,1-.21-.65c0-.08,0-.13,0-.19s-.2,0-.21-.14.13-.08,0-.2-.08,0-.13-.07a.5.5,0,0,1,0-.21c0-.15-.05-.16,0-.28s.15-.14.09-.29a.31.31,0,0,0-.27-.15c-.18,0-.17,0-.2-.2a2,2,0,0,1,0-.36,1.38,1.38,0,0,0,0-.35,1.51,1.51,0,0,1-.1-.3c0-.18,0-.28.1-.45a.31.31,0,0,0,0-.25c-.06-.09-.12,0-.21-.06a8,8,0,0,0-.2-1.21c0-.17,0-.11.08-.22s0-.17-.11-.26a.83.83,0,0,1-.15-.6,1.87,1.87,0,0,0-.07-.4,2,2,0,0,1-.09-.41c0-.09,0-.11.08-.15s.16-.09.12-.16-.14,0-.19-.06-.08,0-.09-.14,0-.09.06-.16,0-.09-.06-.15a.49.49,0,0,1,0-.37.31.31,0,0,0,0-.18.31.31,0,0,0,0-.1s-.06,0-.09-.07a.51.51,0,0,1,0-.21c0-.07,0-.13,0-.2s0-.07,0-.1a.29.29,0,0,0,0-.08s.12-.2,0-.13c-.06-.13,0-.11.08-.14s0-.09-.09-.13a.45.45,0,0,1,0-.19c0-.2,0-.22.19-.26s.14,0,.11-.12-.08-.09-.11-.16a1.35,1.35,0,0,0-.06-.45.47.47,0,0,0,0-.2c0-.09-.17-.1-.15-.2s.14,0,.17-.14-.09-.07-.09-.14.1-.07.12-.12-.06-.11-.12-.12-.24,0-.32-.13a.33.33,0,0,1,0-.39c.09-.11.14-.13.15-.3s0-.09-.08-.12-.09-.07-.1-.17-.09-.35,0-.43.13,0,.18,0-.08-.12-.15-.09-.17.09-.26,0h0a.18.18,0,0,1-.08-.16c0-.09.09,0,.15-.09a.23.23,0,0,0,0-.18s-.1,0-.14-.08-.15-.34-.07-.37.1.07.15,0,0-.1,0-.15a.36.36,0,0,0-.11-.15c-.07-.06-.1,0-.13-.15s-.08-.29-.11-.44a.18.18,0,0,1,.06-.18s.09-.09.09-.16-.15-.27-.22-.38a.58.58,0,0,1-.09-.39.62.62,0,0,0,0-.19.45.45,0,0,1,0-.19.71.71,0,0,0,0-.21c0-.06-.06-.1,0-.18s.06-.07,0-.15a1.14,1.14,0,0,1-.1-.63,1,1,0,0,0-.07-.37,2.7,2.7,0,0,1-.08-.41c0-.15-.07-.27-.1-.42s0-.16,0-.24a1.75,1.75,0,0,1,0-.24,2.57,2.57,0,0,1,0-.48c0-.08,0-.14,0-.2s-.1-.09-.11-.17,0-.28,0-.43a.94.94,0,0,1,0-.09l-.07-.07c0-.06.06-.06,0-.15a1.93,1.93,0,0,1-.1-.43,2.37,2.37,0,0,0-.11-.46.81.81,0,0,1,0-.22.41.41,0,0,0,0-.23c0-.1,0-.19,0-.28a.47.47,0,0,0,0-.14s-.06-.06-.07-.11,0-.08,0-.11,0-.06,0-.11,0-.22,0-.32a2.62,2.62,0,0,0-.09-.38c0-.07,0-.14,0-.21a.65.65,0,0,0,0-.2,2.22,2.22,0,0,1,0-.45c0-.16-.07-.28-.09-.43a1.45,1.45,0,0,1,0-.29c0-.08,0-.18-.08-.21A3.41,3.41,0,0,1,96,82c0-.06,0-.14,0-.2s0-.14-.07-.22c-.08-.3-.1-.61-.17-.91,0-.14,0-.29,0-.43s-.09-.26-.13-.4a4.6,4.6,0,0,0-.26-.82.63.63,0,0,0-.16-.26s0-.13,0-.2-.07-.08-.11-.14,0-.12-.06-.19-.13-.25-.18-.37-.05-.07-.1-.12-.06-.12-.1-.16-.14-.14-.2-.21-.1-.16-.19-.22S94,77,93.9,76.89s-.14-.15-.23-.23-.14-.13-.21-.18a3.35,3.35,0,0,0-.53-.28l-.19-.08a1.83,1.83,0,0,0-.45-.15.79.79,0,0,0-.22-.06l-.52-.09a2.32,2.32,0,0,1-.46,0c-.07,0-.09-.06-.17-.05a.55.55,0,0,1-.19,0c-.15,0-.27,0-.43,0a1.17,1.17,0,0,0-.41.06l-.42.11a.89.89,0,0,0-.19.07s0,.08-.12.11-.16,0-.24.05h0a2.52,2.52,0,0,0-.41.17c-.11.06-.2.14-.3.2a2.8,2.8,0,0,0-.6.44,5.1,5.1,0,0,1-.47.46,3.91,3.91,0,0,0-.53.75,5.32,5.32,0,0,0-.51,1c-.12.39-.3.78-.39,1.17a2.45,2.45,0,0,1-.08.29,1.84,1.84,0,0,1-.15.28c-.07.2-.07.43-.14.62s-.09.12-.11.19a1.72,1.72,0,0,1-.07.21,3,3,0,0,0-.15.38.65.65,0,0,0-.08.22c0,.11.06.08,0,.17s-.07,0-.08.05,0,.07,0,.1c-.14.44-.32.89-.42,1.34a1.09,1.09,0,0,1-.11.27,1.29,1.29,0,0,0-.08.28c-.06.18-.12.39-.18.56s-.14.33-.2.51c-.24.68-.33,1.37-.61,2a3.86,3.86,0,0,1-.32.6,1.12,1.12,0,0,0-.18.66c0,.28-.12.5-.16.8a1.33,1.33,0,0,1-.26.61,2.56,2.56,0,0,0-.31.88c-.06.23-.22.45-.29.7a4.12,4.12,0,0,0,0,.6,2.79,2.79,0,0,1-.23.76c-.15.46-.3.9-.46,1.36s-.31.81-.4,1.2a1.3,1.3,0,0,1-.26.64,2.23,2.23,0,0,0-.24.58c.14.15-.13.43-.17.61a4.28,4.28,0,0,1-.1.73,7.81,7.81,0,0,0-.46,1.39c-.08.44-.47.71-.63,1.1a1.72,1.72,0,0,0-.16.73,1.54,1.54,0,0,1-.1.77,3.43,3.43,0,0,1-.38.92c-.07.08-.66.36-.26.51-.17.21-.4.27-.16.59-.07-.08-.24.4-.25.44a2.63,2.63,0,0,1-.08.68c-.18.57-.46,1.09-.66,1.65s-.6,1.27-.81,1.94c.05,0,.07,0,.13,0a3.87,3.87,0,0,1-.15.56c-.06.18-.2.41-.25.58s0,.23-.06.37a1.61,1.61,0,0,1-.17.28c-.09.18-.08.42-.24.56,0,.15-.09.36-.14.5s-.06.4-.11.59a11.39,11.39,0,0,1-.43,1.07,10.82,10.82,0,0,0-.38,1.09,5.83,5.83,0,0,0-.42,2.36,2.74,2.74,0,0,0,.38,1.18A4.74,4.74,0,0,0,75.48,120a3.81,3.81,0,0,0,.89.34,2.37,2.37,0,0,1,.4.15,1.25,1.25,0,0,0,.38,0c.16,0,.32,0,.48,0a1.58,1.58,0,0,0,.36-.09,2.31,2.31,0,0,1,.46,0c.07,0,.16,0,.23,0s.13-.09.2-.12.13,0,.21,0,.08-.09.13-.12a1.77,1.77,0,0,1,.38-.15,2.75,2.75,0,0,0,.75-.48c.12-.11.21-.25.32-.36s.12-.08.15-.13,0-.18.12-.25.37.12.43,0-.05-.11-.09-.19,0-.37.09-.56.06-.19.22-.28.13-.19.11-.34,0-.14,0-.2.14,0,.1-.14.14,0,.16-.19a1.09,1.09,0,0,1,0-.31c.05-.11.12-.1.16-.2a1.12,1.12,0,0,0,0-.32.88.88,0,0,1,.3-.46c0-.06.14-.15.1-.24s-.14-.06-.06-.2.31-.2.38-.36,0-.2.07-.28.15-.09.18-.21-.06-.17,0-.31a.9.9,0,0,0,.08-.28,1.12,1.12,0,0,1,.25-.54.47.47,0,0,1,.25-.25c.07,0,.31,0,.3-.13s-.25,0-.31-.08,0-.24,0-.31.07-.06.11-.1a.37.37,0,0,0,.07-.16,1,1,0,0,1,0-.17c0-.08.06,0,.12-.05s0-.06,0-.11,0-.06,0-.08.06,0,.08,0,0,0,0-.09a.38.38,0,0,1,0-.15s.09-.07.11-.11,0,0,0-.07,0,0,0,0,.12,0,.11-.08,0-.15,0-.23.15-.11.2-.2a.14.14,0,0,0,0-.15s-.07,0-.07-.12l0-.08a1926696095632.81,1926696095632.81,0,0,0,0-.2c0-.12.11,0,.14-.11s0-.08,0-.13l.09-.07s.09-.06,0-.08-.08,0-.12,0a.15.15,0,0,1-.13,0s0-.17,0-.22,0-.15.13-.1,0,0,0,0l.07,0s.06.09.13,0a.09.09,0,0,0,0-.13s-.12,0-.1-.09.07-.06.1-.09,0-.09,0-.15a.36.36,0,0,0,0-.15c0-.06,0-.08,0-.14s0-.11,0-.16a.58.58,0,0,1,.12-.1s.07,0,.06-.11,0-.07-.11-.07,0-.1,0-.21,0-.25.08-.31.1,0,.14,0,0-.09,0-.12.09-.19.12-.29,0-.12,0-.15.12,0,.17,0a.16.16,0,0,0,.08-.19s-.08,0-.11-.08,0-.09,0-.15,0-.26.08-.33,0,0,.08,0,0-.09,0-.12,0-.14,0-.21,0-.07.09-.1,0,0,.07,0l.07-.06s0,0,0,0,0,0,.08,0a.23.23,0,0,0,0-.16s-.1,0-.14,0-.06,0,0-.06a.18.18,0,0,0,0-.13c0-.08,0-.08.08-.08s.12,0,.11-.07-.08-.08-.07-.13.23-.08.28-.11a.25.25,0,0,0,.12-.27c0-.05-.08,0-.11-.08a.16.16,0,0,1,0-.16c0-.17.09,0,.16,0s0-.16,0-.2,0,0,.08-.07,0-.07,0-.11.14-.25,0-.33,0,.13-.07.1,0-.08,0-.12a.87.87,0,0,1-.07-.17.37.37,0,0,1,0-.18c.08-.09.17.1.23.11s.07,0,.08-.08,0-.06.1-.07.19,0,.26,0,0,.08.05.11a.08.08,0,0,0,.11-.06c0-.14-.2,0-.17-.16s.08,0,0-.06a.17.17,0,0,0-.12,0s0,.07,0,.09,0-.15,0-.2a.45.45,0,0,0,0-.12S87,103,87,103s0-.15,0-.21.27.23.38.13,0-.07,0-.1.06,0,.08-.07,0-.14,0-.21h.08a.2.2,0,0,0,.07-.06c0-.06.06-.11,0-.16s.07-.13,0-.15,0,0,0-.06l0-.07a.19.19,0,0,1,.13-.1s0-.06.06-.1,0-.07,0-.12,0,0,0,0a.19.19,0,0,0,0-.08c0-.06,0-.1,0-.15s.11-.12.12-.24V101a.24.24,0,0,0,0-.08s0,0,0-.06.14-.12.23-.16a.55.55,0,0,1,.31,0s0,.08.07.12.09,0,.14,0l.14,0,.15,0a.25.25,0,0,1,.1.08s0,0,.06.12a.24.24,0,0,0,.15.23.42.42,0,0,0,.16,0s.13-.08.09,0-.07,0-.08.1a1,1,0,0,0,0,.17s0,.06,0,.08,0,0,0,.06,0,.09,0,.14-.12.15-.06.27,0,.06.08.09,0,.09.08.12.12-.11.15-.16a.26.26,0,0,1,.26-.14.23.23,0,0,1,.23.17c0,.11,0,.17-.11.2s-.13,0-.13.06a1.21,1.21,0,0,0,.05.14,1,1,0,0,1,0,.17.3.3,0,0,1,0,.16c0,.08-.25.07-.09.16s.24.08.26.18,0,0-.08.09,0,0,0,.08,0,0-.08,0-.09,0-.11.05,0,.13,0,.14.08.07.07.11a.94.94,0,0,1-.06.15.48.48,0,0,0,0,.31c0,.12.16.1.24.19s0,.16,0,.25a.54.54,0,0,0,0,.65.49.49,0,0,0,.24.25s.1,0,.13,0,0,.11,0,.15.07.05.08.11-.08.1,0,.16.1,0,.13,0,0,0,.06.14.06.36.07.56a.85.85,0,0,1-.18.46c.08.08.16-.13.23-.15a2.81,2.81,0,0,1,0,.65c0,.13.06.14.1.24a1.45,1.45,0,0,1,0,.29,4.19,4.19,0,0,0,.07.63,1.91,1.91,0,0,1,.1.52c0,.15,0,.31,0,.45s0,.2.08.29.06.42.12.61a2.73,2.73,0,0,1,.06.64,1.12,1.12,0,0,0,0,.32c0,.1.09.12.07.23s0,0-.06.07,0,.08,0,.11,0,.15.06.22a3.86,3.86,0,0,0,.09.49,4,4,0,0,1,.1.5c0,.14,0,.29,0,.43a2.74,2.74,0,0,1,.09.39,1.38,1.38,0,0,0,.08.29c0,.18,0,.42,0,.62a.5.5,0,0,1,0,.13c0,.06,0,.08-.06.12a1.05,1.05,0,0,0,0,.31,3.75,3.75,0,0,1,0,.67c0,.06-.06.17.05.16s-.07.09-.06.18,0,.53.25.4c0,.09,0,.15,0,.22s.12.09.15.17a2,2,0,0,1,0,.35c0,.25.07.5.1.75s0,.36.07.54a1.57,1.57,0,0,1,.08.31c0,.1-.09.17-.07.24s.06.2.07.28a1.29,1.29,0,0,0,.08.28c0,.19.06.41.09.6a8.7,8.7,0,0,1,.19,1.26,1.42,1.42,0,0,0,0,.29c0,.09.09.15.09.26a.78.78,0,0,0,0,.34.79.79,0,0,1,.08.3c0,.18.06.37.07.55a.53.53,0,0,0,0,.25,1.55,1.55,0,0,1,.07.6c0,.11,0,.21.06.32s0,.11,0,.15,0,.06.06.11a1,1,0,0,1,0,.3l.06.64a1.28,1.28,0,0,0,.07.28.4.4,0,0,1,.07.28,3.09,3.09,0,0,0,0,.61c0,.08.1.15.09.24s-.08.11,0,.21l.07.08a.76.76,0,0,1,0,.15,1.08,1.08,0,0,0,0,.27,4.13,4.13,0,0,1,.13.61,3.81,3.81,0,0,0,.07.59,3.56,3.56,0,0,0,0,.47.75.75,0,0,1,0,.3.81.81,0,0,0,.07.35c0,.12,0,.24.06.36s0,.32,0,.46a2.05,2.05,0,0,0,.14.5.35.35,0,0,1,0,.24,2.44,2.44,0,0,0-.06.26c0,.13.15.17.15.31a2.18,2.18,0,0,0,0,.25c0,.13,0,.19.08.31a1,1,0,0,1,0,.17c0,.06,0,.07,0,.12s0,.15.07.23,0,.1-.08.16,0,.09.09.14.07.27.06.4a.54.54,0,0,0,0,.18c0,.07.06.09.09.14s0,.27,0,.4a1,1,0,0,0,.11.39.28.28,0,0,1,0,.2s0,.05,0,.09.07,0,.09,0,0,.09,0,.16a.68.68,0,0,0,.07.2.9.9,0,0,1,0,.4h.1a.08.08,0,0,1,0,.07c-.1,0,0,.07,0,.12a.25.25,0,0,1,0,.19.48.48,0,0,0,0,.24.61.61,0,0,1,0,.23,1.06,1.06,0,0,0,0,.31s.06,0,.07.07,0,.1,0,.14,0,.27,0,.41a2.83,2.83,0,0,0,0,.41c0,.07.07,0,.1.1s0,.13,0,.18a.81.81,0,0,0,0,.22,1.77,1.77,0,0,0,.06.17c0,.13,0,.26,0,.38s0,0,0,.07,0,0,0,.06.08.06.1.12a1.23,1.23,0,0,1,0,.2c0,.07,0,.14,0,.21v.23c0,.09,0,.11.09.12s0,.18,0,.28a1.13,1.13,0,0,0,.08.24s.06.09.06.11,0,.06,0,.1,0,.15.06.24-.06.14,0,.21a1,1,0,0,1,0,.12l0,.14c0,.12,0,.5.13.51,0,.09,0,.2,0,.29a.05.05,0,0,1,.05,0,.44.44,0,0,1,0,.2.19.19,0,0,0,0,.18,1,1,0,0,1,.1.34,1.65,1.65,0,0,0,0,.21c0,.05.07.1.08.14s0,.09,0,.15,0,.13,0,.17.06.19.06.27a.34.34,0,0,1-.1.28c-.09.09-.11.12-.07.25a.39.39,0,0,1,0,.26.32.32,0,0,0-.06.17.78.78,0,0,1,0,.21c0,.12-.09.2,0,.29a.21.21,0,0,0,.16.08.83.83,0,0,1,.16.09.93.93,0,0,1,.22.29,1,1,0,0,1,0,.18.88.88,0,0,1,0,.16c0,.07.05.1.06.16s0,.08-.07.13-.05.2-.17.3l-.14.09s-.15.06-.15.08.13,0,0,.1-.12,0-.08.11.11-.05.12-.1.07,0,.11,0,.08,0,.11-.05a.23.23,0,0,1,.21.05s.07,0,.1,0a1,1,0,0,1,.06.16,1.21,1.21,0,0,1,.09.34c0,.11,0,.24,0,.36a2.33,2.33,0,0,1,.08.36,1.16,1.16,0,0,0,.07.37,1.15,1.15,0,0,1,.06.17.37.37,0,0,1,0,.18.26.26,0,0,0,0,.08s0,0,0,.06,0,.09,0,.14a.25.25,0,0,1,0,.17.22.22,0,0,0,0,.14.33.33,0,0,1,0,.15s-.14,0-.14.06.11.13.14.17a.51.51,0,0,1,.07.15.42.42,0,0,1,.08.18,1,1,0,0,1,0,.18.8.8,0,0,0,.08.16c0,.06,0,.09,0,.16s.06.07.06.14,0,.14,0,.22,0,.29,0,.45a.61.61,0,0,1,0,.19c0,.09-.07.07-.11.13s-.09.29,0,.34.1,0,.13.09a1.3,1.3,0,0,0,.08.17.53.53,0,0,1,.11.31,1.48,1.48,0,0,0,0,.37.39.39,0,0,1,0,.14,1.41,1.41,0,0,0,0,.21.29.29,0,0,0,.07.1,3.7,3.7,0,0,0,.06.48c0,.15.08.27.11.41l0,.37a1.35,1.35,0,0,1,0,.18.61.61,0,0,0,0,.19s0,.05,0,.08,0,0,.08,0,0,.14,0,.18,0,.06,0,.1,0,.05,0,.08,0,.1,0,.14-.08,0,0,.11.08.08.1.13a.58.58,0,0,1,0,.18c0,.07,0,.1.07.16a1.72,1.72,0,0,1,.07.56c0,.2.1.38.11.57s0,.2,0,.31,0,.15,0,.26a.42.42,0,0,1,0,.27.58.58,0,0,0,0,.19.55.55,0,0,1,0,.17.49.49,0,0,0,0,.21c0,.06,0,.1.06.17a2,2,0,0,1,.08.37.81.81,0,0,0,.07.38c-.12.08,0,.07,0,.14s0,.19,0,.27a2.25,2.25,0,0,1,.08.24c0,.05,0,.12,0,.16s0,0,.08.08-.06.05-.06.07,0,0,0,.06,0,0,0,.07a.4.4,0,0,1,0,.11c0,.09,0,.09-.05.16s.09.11.12.22,0,.1,0,.15,0,0,.06,0a.22.22,0,0,1,0,.08,1,1,0,0,1,0,.17.92.92,0,0,0,.06.33c0,.05.09.07.07.14s-.07.07,0,.13.07.17.09.25a2,2,0,0,1,.1.26.27.27,0,0,1,0,.09s-.06,0-.06.06.08.1.1.14a.7.7,0,0,1,0,.35.2.2,0,0,0,0,.17c0,.07.08.08.08.15a1.55,1.55,0,0,0,0,.23,1.5,1.5,0,0,0,0,.22s0,0,0,.08,0,0,0,.07,0,.08.06.14a1.06,1.06,0,0,1,.09.36c0,.07,0,.13,0,.18s.06.12.06.19a.63.63,0,0,0,0,.19,1.46,1.46,0,0,0,.12.33c.05.08,0,0,0,.12s0,.06,0,.11,0,0,0,.1.09.24.12.36,0,.1,0,.18,0,.17.07.24a.24.24,0,0,0,.1.14c.07,0,.06.11.1.19s.13.19.12.33.07.06.12.09.13.19.19.29.1.08.13.13,0,.06,0,.08,0,0,.08,0,0,.12.08.16a1.31,1.31,0,0,0,.12.11.74.74,0,0,0,.22.14,1.17,1.17,0,0,1,.2.06s0,.07,0,.11.1.05.12.13.18,0,.29.09a.91.91,0,0,0,.39.17l.19.06a1.35,1.35,0,0,0,.29.05.91.91,0,0,0,.36.09.64.64,0,0,0,.19-.08,1.23,1.23,0,0,1,.19,0,2.94,2.94,0,0,1,.42,0c.07,0,.12,0,.19-.05h.22a1.23,1.23,0,0,0,.42-.1,2.43,2.43,0,0,1,.69-.18v0c-.08,0-.09-.09,0-.11s.13,0,.18,0,0-.09.11-.13l.17-.08.17-.08s.07-.06.12-.09a2.92,2.92,0,0,0,.29-.23.93.93,0,0,0,.23-.21,1.42,1.42,0,0,1,.13-.12A.23.23,0,0,1,108,169s0-.15.09-.21.07,0,.09-.07,0-.08.05-.11a.62.62,0,0,0,.11-.17c0-.05,0-.14.09-.16s0-.09,0-.14.09-.06.1-.11a2.33,2.33,0,0,1,.07-.25,2.37,2.37,0,0,0,.13-.34c.06-.12,0-.26.1-.38s.07-.09.09-.14,0-.11,0-.18,0-.25.06-.36a1,1,0,0,0,.08-.14c0-.07,0-.14,0-.19s.09-.23.11-.36a1.35,1.35,0,0,0,0-.18.6.6,0,0,1,0-.19c0-.2.09-.4.14-.6s0-.07.12-.13-.11,0-.13-.11a.39.39,0,0,1,0-.15c0-.14,0-.28.1-.38a.51.51,0,0,0,0-.37.75.75,0,0,1,0-.21,1.09,1.09,0,0,1,0-.18c0-.07.07-.05.11-.08s0-.09,0-.15a1.2,1.2,0,0,1,0-.38,2.33,2.33,0,0,1,.08-.36,1.09,1.09,0,0,0,0-.4c0-.12,0-.23.06-.36a.89.89,0,0,1,0-.28,1.28,1.28,0,0,0,.07-.39.6.6,0,0,1,0-.19,1.36,1.36,0,0,0,0-.2,1,1,0,0,0,0-.19,1.09,1.09,0,0,1,0-.18,1.46,1.46,0,0,1,.09-.36c0-.13,0-.27.07-.39s.06-.09,0-.17,0,0,0-.09,0,0,0-.07,0-.1,0-.17,0-.09.08-.15,0-.13,0-.18,0-.25,0-.38,0-.09.06-.15a1.21,1.21,0,0,0,0-.19,1.42,1.42,0,0,1,0-.2c0-.07,0-.12,0-.18s0-.07.07-.12,0-.12,0-.17,0-.06.08-.1-.06,0-.06-.08,0-.07,0-.11a1.24,1.24,0,0,0,0-.27,1.41,1.41,0,0,1,0-.21,1.8,1.8,0,0,1,.05-.19.47.47,0,0,1,0-.17c0-.07.06-.06.07-.14a1.84,1.84,0,0,1,0-.41,1.68,1.68,0,0,0,0-.4c0-.14.07-.21,0-.34s0-.23.06-.35,0-.06,0-.09,0,0,0-.06,0-.11,0-.18a.28.28,0,0,1,0-.18c0-.11,0-.22.05-.33a.75.75,0,0,0,0-.16,2.21,2.21,0,0,0,0-.37,1.8,1.8,0,0,0,0-.4.38.38,0,0,1,0-.16s0-.11.09-.12a1,1,0,0,1,0-.17.76.76,0,0,0,0-.15.8.8,0,0,1,0-.15,1,1,0,0,0,0-.17c-.12,0,0-.16,0-.19s0-.26,0-.39.07-.11.07-.14,0,0,0-.06,0,0,.06,0a.81.81,0,0,0,0-.22,1.34,1.34,0,0,0,0-.2c0-.14.05-.22.05-.36s0-.13,0-.19a.5.5,0,0,1,.08-.14,1.2,1.2,0,0,0,0-.38c0-.13,0-.23,0-.37a.57.57,0,0,1,.07-.36v0c.08-.08,0-.2,0-.29a1,1,0,0,0,.06-.18c0-.14,0-.28,0-.41a.32.32,0,0,1,0-.16c0-.06,0-.13,0-.18s0,0,0-.07,0-.06,0-.1,0-.13,0-.19a1.33,1.33,0,0,1,0-.4,1.16,1.16,0,0,1,0-.18c0-.05.08-.11,0-.11s0-.24.09-.33a.69.69,0,0,0,0-.38c0-.13,0-.24,0-.38a.57.57,0,0,1,0-.22s0-.08,0-.1.06,0,.07,0-.07-.06-.06-.12.06-.09.08-.13a1.15,1.15,0,0,0,0-.37c0-.13,0-.26,0-.39a.93.93,0,0,1,0-.33,1.07,1.07,0,0,0,.07-.44.59.59,0,0,1,0-.19.53.53,0,0,0,0-.18,1.31,1.31,0,0,1,0-.39c0-.06.05-.08.05-.15a1.34,1.34,0,0,1,0-.2,1.78,1.78,0,0,1,.07-.39,1,1,0,0,0,0-.39c0-.05,0-.06,0-.09s0,0,.06-.05,0,0,0-.06a.17.17,0,0,1,0-.1c0-.11.12-.18.09-.3s0-.09,0-.17a.62.62,0,0,0,0-.18,1.56,1.56,0,0,0,0-.36.21.21,0,0,1,0-.16.75.75,0,0,0,0-.21c0-.06,0-.12,0-.17a.86.86,0,0,0,0-.22s-.07-.13,0-.15l.09,0c-.1,0,0-.24,0-.31a1.11,1.11,0,0,0,0-.19,1.91,1.91,0,0,1,0-.21,2.8,2.8,0,0,0,0-.41c0-.13.12-.21.11-.34a1.21,1.21,0,0,1,0-.42c0-.07,0-.1,0-.16a.58.58,0,0,1,0-.19.6.6,0,0,0,.08-.16c0-.07,0-.12,0-.18s.1-.06.12-.11,0-.08,0-.1a.41.41,0,0,1,0-.08s0-.07,0-.09l.07,0s0-.09,0-.14,0-.08,0-.13,0-.09,0-.13.06-.07.08-.11a.57.57,0,0,1,0-.13c0-.12,0-.21,0-.33a2.48,2.48,0,0,0,0-.27s-.07,0-.05-.06.06,0,.08,0,0-.08,0-.1,0,0,0-.07.1-.17.16-.11-.06,0,0,.07.07,0,.1,0,.19,0,.17,0,.12,0,.15-.08a.2.2,0,0,0,0-.08s0-.06,0-.1.18-.11.17-.21,0-.11-.06-.16,0-.06-.09-.11,0-.1,0-.14-.08,0-.08-.09,0-.08-.08-.11l-.17,0c-.14-.07-.14-.15-.14-.31a.55.55,0,0,1,0-.18,1.56,1.56,0,0,0,.06-.15.17.17,0,0,0,0-.14.17.17,0,0,1,0-.15.58.58,0,0,0,.06-.17c0-.06,0-.08,0-.14s.08-.2.12-.27a.68.68,0,0,0,.07-.37.86.86,0,0,1,0-.39c0-.11,0-.24,0-.35s.06-.23.08-.35l0-.33a1.42,1.42,0,0,0,0-.36c0-.08,0-.06.06-.12a.26.26,0,0,0,0-.15c0-.12-.08-.18-.06-.29s0,0,0-.06,0,0,0,0,0,0,0-.06a.14.14,0,0,1,0-.06c0-.05.06-.08.07-.13s0-.12,0-.17.25-.07.18-.3h0s0-.08,0-.1.07,0,.09-.07,0-.22.06-.26h.06s0,0,0,0,0,0,.1-.07.17,0,.21-.13,0-.24.07-.32.15-.14.14-.23a1.45,1.45,0,0,1-.05-.3,1.85,1.85,0,0,0,0-.23s0,0,0-.07,0,0,.07,0,0,0,0-.06,0,0,.07,0a.15.15,0,0,0,.12-.07.61.61,0,0,0,0-.33.65.65,0,0,1,0-.31,1.83,1.83,0,0,1,.06-.25c0-.07.07-.09.07-.17s0-.11,0-.18a.17.17,0,0,0,0-.15s-.11-.06-.12-.11.06-.14.06-.2a.38.38,0,0,1,0-.15s0,0,0,0,0-.05,0-.07a.14.14,0,0,1,0-.07s0,0,0-.05,0,0-.06,0,0-.06,0-.08a.3.3,0,0,1,0-.13c-.14-.09-.1,0-.21.07s-.18-.07-.24-.13-.06-.16-.06-.26,0-.1,0-.15,0-.06-.06-.11a.1.1,0,0,1,0-.13s.06,0,.08,0,0,0,0-.06.1-.19,0-.29-.06-.06,0-.13a.39.39,0,0,0,0-.15.4.4,0,0,1,0-.19.26.26,0,0,0,0-.15.65.65,0,0,1,0-.14s.06-.07.08-.12,0-.09,0-.13a.68.68,0,0,0,0-.15.27.27,0,0,1,0-.13l0-.06s0,0,0-.07,0,0,0-.08.07-.05.08-.11a1.05,1.05,0,0,1,0-.19c0-.06,0-.09,0-.14s0-.12,0-.16a.34.34,0,0,1,.06-.15.28.28,0,0,0,0-.28.39.39,0,0,1,0-.3s.09,0,.13,0a.75.75,0,0,0,.06-.13.91.91,0,0,0,0-.33.78.78,0,0,1,0-.37c0-.06,0-.06,0-.11s0-.07,0-.1,0,0,0,0a.33.33,0,0,1,.07-.16l0-.14c0-.06,0-.07.1-.09s.11,0,.13,0-.17-.14-.19-.17a.25.25,0,0,1,0-.17s0,0,.06,0,0-.05,0-.06.06-.07.06-.14a.3.3,0,0,0-.06-.14s-.11-.06-.12-.12,0-.1,0-.15a.42.42,0,0,1,0-.15s0,0,0-.06a.21.21,0,0,1,0-.08c0-.11,0-.2.19-.2a.15.15,0,0,1,.08-.12h.09l0-.06a.7.7,0,0,0,.07-.63c0-.1,0-.25,0-.34s-.07,0-.08-.09a.46.46,0,0,1,.07-.26.25.25,0,0,0,0-.12c0-.09,0-.2.06-.27s.13-.12.12-.21-.1-.14-.13-.21,0-.2.06-.28,0-.18-.07-.28a.85.85,0,0,1,.19-.57.67.67,0,0,0,.15-.29s0,0,0-.08,0,0,0,0a.22.22,0,0,0,0-.16.4.4,0,0,1,0-.3s0-.07,0-.13.05-.14.11-.22a.29.29,0,0,0,0-.1c0-.06,0-.13.05-.18a.5.5,0,0,0,0-.13c0-.06,0-.11,0-.17s0-.06,0-.08,0,0,0,0,0,0,0,0,0,0,0-.07a.71.71,0,0,0,0-.14.37.37,0,0,1,0-.15c0-.06,0-.07.06-.12a.39.39,0,0,0,0-.15.9.9,0,0,1,0-.16l0,0s0,0,0-.06.06,0,.07,0,0,0,0-.06.08,0,.12,0,.05,0,.06,0,0,0,0,0,0-.05.08-.09M141.1,81c0,.06-.08.1-.1.15a1,1,0,0,0,0,.24.1.1,0,0,1,.08.08.2.2,0,0,0-.11.19c0,.1.14.09.14.18H141c-.05,0,0,.08,0,.11s-.1,0-.09.21a.57.57,0,0,1-.08.36c-.09.13-.22.17-.28.33s0,.08-.08.13-.07-.06-.11,0,0,.14,0,.19,0,.06-.07.12a2.21,2.21,0,0,0-.12.27c-.08,0-.17.17-.21.23s-.08.14-.24.18-.19,0-.22.15.1.15.06.26-.08,0-.1.06,0,.09-.07.13a.63.63,0,0,1-.38.3c-.13,0-.15,0-.23.12s-.15.14-.13.23-.16,0-.09.1c-.08,0-.34.09-.3.19s-.36.22-.38.28-.08.12-.14.18a.39.39,0,0,1-.21.06s0,0,0,.06-.12.12-.18.14-.18,0-.27.06,0,.06-.06.09,0,0-.09,0l-.2.14c-.07,0-.11.11-.16.15a.45.45,0,0,0-.1.05.47.47,0,0,0-.09.06c-.09,0-.16,0-.22.1s-.07.14-.15.16c0,.17-.49,0-.38.25-.1,0-.18.08-.28.11s-.19.08-.14.18a.3.3,0,0,1-.21,0s0,0,0-.06a.63.63,0,0,0-.28.11c-.05,0,0,.12-.07.16s-.12,0-.18,0-.19.07-.27.06-.18-.13-.32-.12a.15.15,0,0,0,0-.06c-.08,0-.09,0-.16.06a.41.41,0,0,1-.19,0l-.19,0s0,0-.06,0-.18.07-.28.09a.13.13,0,0,0-.09-.1.87.87,0,0,1,.09-.11c-.07-.09-.2-.09-.31-.1a.6.6,0,0,1-.19,0c-.1,0,0,0-.11-.08l-.24-.19c-.13-.14,0-.23-.1-.39a.51.51,0,0,1-.21-.1c0-.07,0-.16-.09-.22a.21.21,0,0,0,0,.07s-.09,0-.1,0,0-.12,0-.15a3.1,3.1,0,0,0-.13-.4c0-.09,0-.18,0-.26s-.1-.09-.12-.16,0-.08.06-.16,0-.16,0-.22,0-.05,0-.11-.06,0-.06-.07-.06-.13,0-.15a2.78,2.78,0,0,0,.05-.39.77.77,0,0,1,0-.4s.08-.07.1-.13a1,1,0,0,0,.05-.18,3.54,3.54,0,0,0,.16-.34c0-.09,0-.2,0-.3s.07,0,.09-.09,0-.1,0-.14a.59.59,0,0,1,.15-.2,1,1,0,0,0,.14-.25.39.39,0,0,0,.09-.29.53.53,0,0,1,0-.28c0-.07.17-.15.23-.19a.52.52,0,0,0,.17-.19,2,2,0,0,1,.47-.69c.11-.1.24-.17.35-.26s.24-.17.32-.35.26-.16.41-.27.28-.23.41-.35.51-.46.78-.67a3.23,3.23,0,0,0,.27-.23,1.44,1.44,0,0,1,.33-.16c.15-.08.3-.18.44-.27a1.18,1.18,0,0,1,.3-.1c.09,0,.16-.11.26-.15a2.73,2.73,0,0,1,.52-.19,2.72,2.72,0,0,0,.3,0s0-.09,0-.12h.17a2.46,2.46,0,0,0,.29-.07c.1,0,.18,0,.27,0s.32-.11.51,0c0,0,0,.08.06.08s0-.07.07-.08.18,0,.25.07l.12,0s0,0,.08.07a.29.29,0,0,0,.25.09.19.19,0,0,1,0,.08c.19-.11.19.06.25.22l.1.19c0,.08,0,.15,0,.21s.1.09.12.16,0,.09,0,.13,0,.07.05.11a.48.48,0,0,0,.09.19.46.46,0,0,1,0,.23c.2.08.2.18.21.38s.05.32.19.3a1.13,1.13,0,0,0,0,.26C141.12,80.5,141.24,80.72,141.1,81Zm-3.86,21.79c0,.26-.48.1-.62.25a1.46,1.46,0,0,0-.1.78,2.11,2.11,0,0,0,.26.74c.09.13.13.35.25.45s.12,0,.12.09-.14.16-.19.29a1.86,1.86,0,0,0-.09.47c0,.19.18.26.19.42a1.48,1.48,0,0,1-.14.42c-.1.26-.24.42-.32.68a1.24,1.24,0,0,0-.08.41c0,.06.1.1.11.16s0,.14,0,.21a2.25,2.25,0,0,1,0,.64c-.07.22-.15.26-.11.49s.07.17.06.29-.12.13-.16.22.06.36,0,.58a3.05,3.05,0,0,1-.16.56c0,.16-.06.39-.11.56s-.2.27-.25.42a2.83,2.83,0,0,0,0,.58,8.86,8.86,0,0,1,.07,1.17,3.69,3.69,0,0,1-.11.56,2,2,0,0,0,0,.59v.56a1.62,1.62,0,0,1,0,.54c0,.06-.16.1-.19.18s0,.15,0,.27a1.73,1.73,0,0,1-.13.82l-.12.13a1.18,1.18,0,0,0,0,.62,3.32,3.32,0,0,0,0,.63,1.4,1.4,0,0,1,0,.61,1.71,1.71,0,0,1-.13.54,1.45,1.45,0,0,0-.11.26c0,.11,0,.25,0,.35H135c-.09.16,0,.47,0,.63s-.15.32-.18.51,0,.41,0,.64-.13.35-.14.54-.05.44-.07.67a1.55,1.55,0,0,1,0,.31.56.56,0,0,0-.06.29,2.84,2.84,0,0,1,0,.65,1,1,0,0,1-.05.29.47.47,0,0,0-.1.24c0,.21,0,.44,0,.66l.07,0a.59.59,0,0,1,0,.19,1.23,1.23,0,0,1,0,.2s-.06.1-.07.16a3.17,3.17,0,0,0-.13.36c0,.07,0,.05,0,.11a2.09,2.09,0,0,1,.07.36c.07.26,0,.4-.11.64.24.22.07.64.16.91.17,0,0,.25,0,.32a2.63,2.63,0,0,0-.06.39,1.05,1.05,0,0,1-.11.43c0,.07-.06.32-.13.3v0c0,.13,0,.14.07.24a.41.41,0,0,1-.06.29,2.32,2.32,0,0,0-.09.65c0,.12,0,.23,0,.35s-.07.16-.11.26,0,.44,0,.64-.26.37-.32.6a1.29,1.29,0,0,0,0,.44c0,.21-.07.17.13.15s.56-.28.55.17c0,.08-.14.2-.14.43a.21.21,0,0,1-.09.18s-.18,0-.21,0a.35.35,0,0,1-.32-.27c-.17.14-.08.46-.19.61s-.36.1-.48,0-.19.09-.35.28a3.67,3.67,0,0,1-.7.66c-.13.1-.3.19-.44.28a1.22,1.22,0,0,0-.4.35,2.64,2.64,0,0,1-.47.33,7,7,0,0,1-.79.46c-.15.08-.32.18-.48.25a2.56,2.56,0,0,0-.24.11c-.07.05-.1.17-.17.2s-.41,0-.59.06-.12.09-.26.11l-.3,0a3,3,0,0,1-1.11-.22,3,3,0,0,0-.49-.21c-.15-.05-.14,0-.23-.1s0-.17-.17-.22-.19-.25-.23-.42a2.13,2.13,0,0,0-.15-.49,3.34,3.34,0,0,1-.18-.5c0-.2.1-.39-.06-.54.12-.15,0-.57,0-.78s0-.59,0-.88c0-.56,0-1.13,0-1.68,0-.4.11-.8.11-1.18a2.28,2.28,0,0,1,0-.54,1.17,1.17,0,0,0,0-.53,3,3,0,0,1,0-.59,2.71,2.71,0,0,0,.08-.59c0-.72.1-1.39.11-2.11a7.65,7.65,0,0,0,0-1l-.1,0a.77.77,0,0,1,0-.26c0-.39.07-.77.16-1.17a11,11,0,0,0,.21-1.12c0-.23-.09-.41-.08-.59s.13-.36.11-.55-.38-1.16.09-.8c.12-.26,0-.62.09-.89,0,0,0,0,0,0-.14-.25-.06-.49,0-.8s.08-.66,0-.74a7.39,7.39,0,0,0,.23-2.21c0-.11,0-.26,0-.39a2,2,0,0,0,.06-.48c0-.33.07-.7.08-1,0-.14-.1-.4-.07-.51s.2-.16.15-.39c-.23-.12,0-1.17,0-1.42a9.31,9.31,0,0,0,.17-1.18c0-.47.1-.9.07-1.38a7.28,7.28,0,0,1,.12-1.32c.06-.41.3-.71.08-1.1a.25.25,0,0,0,0-.07c.18,0,.16-.67.23-.84a6.83,6.83,0,0,1,.29-.75c.29-.68.52-1.34.83-2a5.4,5.4,0,0,1,.58-.91c.18-.23.4-.6.67-.7,0-.17.26-.36.39-.49a2.18,2.18,0,0,1,.22-.21,1.39,1.39,0,0,1,.33-.1l-.09-.08a1.23,1.23,0,0,1,.53-.35,4.75,4.75,0,0,0,.58-.42,7.08,7.08,0,0,1,1.95-.91,3.26,3.26,0,0,1,1.15-.22c.23,0,.45.06.67.07s.3.13.47.13.08.14.41.38a1.36,1.36,0,0,1,.36.43,2.93,2.93,0,0,1,.26.79c0,.16.1.3.15.45a.63.63,0,0,0,.12.25s0,.06,0,.06c-.24,0-.21.51-.09.61S136.88,102.75,137.24,102.74ZM151,91.21a.08.08,0,0,0,.1-.1,3.13,3.13,0,0,0,.44-.1l.45-.08c.34-.05.67-.05,1-.07.05-.13.29-.12.41-.12a.41.41,0,0,0,.28,0,.71.71,0,0,1,.22-.07c.23,0,.4-.2.62-.25a2.16,2.16,0,0,0,.6-.17c.12-.07.13-.24.27-.24a1.89,1.89,0,0,1,.46-.12,1.48,1.48,0,0,0,.47-.06s0-.1,0-.11-.15.09-.22.07c0-.23.16-.17.33-.18,0,0,0-.06,0-.07a.1.1,0,0,0,.13-.06c.11,0,.3.11.42,0s0-.3.26-.27c0-.11.12-.09.2-.11a2.18,2.18,0,0,1,.23-.09l.15,0,.09,0s0,.08.09.07a.61.61,0,0,0,.27-.15s-.12,0-.13-.11.12,0,.2-.08a.24.24,0,0,1,0-.09h0s0,.16.07.18.12,0,.17-.06a.22.22,0,0,0,0-.11c-.07,0-.07-.08,0-.12s.17,0,.24,0a.53.53,0,0,0,.27-.08s0-.06.05-.08,0,0,.05,0a.5.5,0,0,1,.13,0,.39.39,0,0,1,.24-.06,1.23,1.23,0,0,0,.29-.07.64.64,0,0,1,.31-.06,2.48,2.48,0,0,0,.27,0,1,1,0,0,0,.17,0l.11,0a2.25,2.25,0,0,1,.62.15,1.81,1.81,0,0,1,.31.09,1.3,1.3,0,0,1,.23.15.72.72,0,0,1,.37.32c.07.09.14.14.19.22s0,.1,0,.14,0,.07.08.12.06.14.13.21.13.09.18.17,0,.15,0,.26.06.07.07.11,0,.1,0,.15a1.59,1.59,0,0,0,.13.22c0,.05.06,0,.08.09s0,0,0,0,0,.06,0,.07.06,0,.07,0,0,0,0,.06.06.05.09.09a1.63,1.63,0,0,1,.11.23s0,0,0,0-.07.12-.07.21a.36.36,0,0,0,.12.26c0,.11,0,.23-.08.34a.93.93,0,0,0,0,.32c0,.13-.17.69,0,.65a1.1,1.1,0,0,1-.14.53c0,.07-.09.12-.11.2a.54.54,0,0,1-.09.24c-.06.06-.13.06-.19.14a1.53,1.53,0,0,0-.14.21l-.17.45c-.29,0-.39.49-.63.64-.07,0-.14,0-.2.1s-.07.08-.08.09l-.11,0c-.12.1-.19.22-.3.32a4.82,4.82,0,0,1-.45.29,1.93,1.93,0,0,0-.24.13c-.07.06-.12.15-.19.2s-.08,0-.12.05-.05.06-.08.08l-.19.18c-.1.11-.27.22-.38.36a.69.69,0,0,1-.39.19c0,.11-.18.22-.27.27s-.18.15-.3.22,0,0,0,0-.12.06-.17.1,0,.15-.1.13a.81.81,0,0,0-.09.1c-.06,0-.1,0-.16,0s-.07.08-.11.15l-.08.09-.2.2a2,2,0,0,1-.22.14l0,0v0s-.15,0-.18,0,0,.09-.1.11-.12.17-.21.26-.21.34-.33.5-.21.29-.34.43l-.33.43a5.46,5.46,0,0,0-.36.48,1.17,1.17,0,0,0-.17.26c0,.08,0,.17-.09.26s-.17.18-.22.28a2.59,2.59,0,0,0-.17.33.76.76,0,0,0-.1.39.41.41,0,0,0,.12.33c-.08.17-.28.14-.37.3a.37.37,0,0,0-.07.27c0,.08.14.07.2.13s-.16,0-.23.11a1.06,1.06,0,0,0,0,.31,1.19,1.19,0,0,0,0,.32c0,.12.11.16,0,.27s-.26.16-.31.3,0,.21,0,.3a1.15,1.15,0,0,0-.12.25.68.68,0,0,0,0,.29c0,.1,0,.2,0,.3s.1.17.11.25a.17.17,0,0,1-.07.14c-.07,0-.07,0-.12,0s-.08,0-.18.12-.22,0-.21.14.3.23.1.31c0,.07,0,.1-.08.15a.49.49,0,0,0-.06.17c0,.1-.07.23.05.28s-.05.22-.06.33,0,.26,0,.31-.05,0-.06,0,0,.14.06.12a.21.21,0,0,1-.07.13.2.2,0,0,0,.11.06,2.36,2.36,0,0,1-.09.52,4.16,4.16,0,0,0,0,.61.59.59,0,0,0,0,.27c0,.08.1.12.09.22s-.15.28-.17.45,0,.41,0,.61.16.47-.06.46c0,.11,0,.26.08.32a.37.37,0,0,0-.1.31c0,.22,0,.43,0,.66s0,.45,0,.65a2.81,2.81,0,0,1,0,.29c0,.12,0,.23,0,.34s0,.21,0,.32,0,.19,0,.29c-.18,0,0,.16,0,.22s-.06.19-.07.29a2.26,2.26,0,0,0,0,.37c0,.25,0,.51,0,.77s0,.39,0,.59a2.1,2.1,0,0,0,0,.56c.09,0,.15,0,.1.09s-.11,0-.13.14.06.3.09.41a1,1,0,0,1,0,.43c0,.09-.06.32-.18.32a2.28,2.28,0,0,0,0,.58c0,.08-.05.16-.06.23a.75.75,0,0,0,0,.3,3,3,0,0,1,0,.6c0,.22,0,.45-.05.67a4.16,4.16,0,0,1-.1.72c0,.14-.06.25-.1.39s-.06.12-.06.17,0,.1,0,.17-.2.37-.23.47-.14.33-.21.48-.19.31-.26.47a2.4,2.4,0,0,1-.28.5l-.18.17a1.67,1.67,0,0,0-.13.2c-.16.21-.39.36-.56.55a1,1,0,0,0-.13.17c0,.09,0,.21-.06.24s-.19,0-.27,0-.13.11-.2.17-.12.06-.17.14-.07.12-.18.16a.76.76,0,0,0-.22.11c-.07,0-.17.06-.23.1s0,.08-.08.1-.09,0-.12,0a1.06,1.06,0,0,1-.11.09s-.08,0-.12,0l-.21.15a2.64,2.64,0,0,0-.46.27c-.11.08-.53,0-.55.19a.47.47,0,0,1-.24,0c0,.14-.25.1-.36.14a2.6,2.6,0,0,1-.49.18c-.09,0-.21,0-.29,0s0,0-.09.06-.06,0-.1,0a2,2,0,0,1-.6,0c-.13,0-.42-.2-.47-.05a1.17,1.17,0,0,0-.31-.12c-.11,0-.18-.13-.29-.15a.81.81,0,0,0,0-.16s0,0-.09,0a.32.32,0,0,1-.16-.09s0,0-.06-.06,0-.07,0-.07-.08-.1-.11-.14l-.13-.15c-.1-.11-.16-.11-.22-.26a1,1,0,0,1-.08-.18.65.65,0,0,0-.05-.2s-.1,0-.13-.09a.37.37,0,0,1,0-.15,2,2,0,0,0-.09-.26c0-.08,0-.18,0-.26s-.07-.15-.09-.23a4.34,4.34,0,0,1-.06-.63,4.93,4.93,0,0,1,0-.67,4.63,4.63,0,0,1,0-.65,4.53,4.53,0,0,0,0-.64,2.69,2.69,0,0,1,0-.63,1.77,1.77,0,0,0,0-.32c0-.17-.07-.21-.12-.35a.33.33,0,0,1,0-.26,2.91,2.91,0,0,0,0-.32c0-.2.17-.3.2-.49s0-.43,0-.64a6.18,6.18,0,0,0,.07-.62,2.41,2.41,0,0,0-.07-.37c0-.14-.07-.11,0-.22a.51.51,0,0,0,.06-.53V118a1.1,1.1,0,0,0-.05-.65c0-.08,0-.17-.08-.25s-.12-.1-.1-.23.1-.18.11-.28,0-.22,0-.34a3.31,3.31,0,0,0,0-.33,1.58,1.58,0,0,1,0-.31c0-.08.08-.17.11-.25s0-.19.07-.29,0-.06.06-.11a.81.81,0,0,0,0-.16c0-.16,0-.13-.07-.23s0-.35,0-.55-.16-.19-.12-.32.13-.15.2-.25.08-.33,0-.31,0-.69,0-.77.07-.24,0-.31c.08-.07,0-.2,0-.28s-.19-.54,0-.55a2.45,2.45,0,0,0,.19-.62c0-.1.12-.16.15-.26s0-.12,0-.17.05-.06.05-.12a.88.88,0,0,0-.05-.15,2.44,2.44,0,0,1,0-.38c0-.12,0-.39.1-.46-.11-.08,0-.16,0-.25a2,2,0,0,0,0-.34,5.35,5.35,0,0,1,.08-.7,3.81,3.81,0,0,0,.08-.59c0-.23,0-.44,0-.66s0-.45,0-.67,0-.45,0-.65,0-.41.06-.62,0-.17.06-.26a2,2,0,0,0,0-.34,11.5,11.5,0,0,1,.08-1.17,7,7,0,0,0,.05-1,1.33,1.33,0,0,1,0-.4c0-.07.08-.32-.07-.33a1.44,1.44,0,0,1,.08-.25,2.4,2.4,0,0,0,0-.28c0-.19,0-.37,0-.56,0-.38.05-.73.07-1.11a6.9,6.9,0,0,1,.17-1.22c.07-.25.12-.49.17-.74s.05-.43.21-.57a.32.32,0,0,1,0-.3,3.29,3.29,0,0,1,.21-.55c.09-.19.12-.4.21-.59s.16-.29.23-.46a.41.41,0,0,1,.14-.21l.1-.08.06-.09c.1-.12.17-.27.29-.4l.39-.39a8,8,0,0,1,.83-.71s0-.07.09-.09.1,0,.15-.06l.21-.14c.08,0,.14-.14.22-.19a1.08,1.08,0,0,1,.28-.11.72.72,0,0,1,.25-.12.56.56,0,0,0,.27-.1,1.16,1.16,0,0,1,.22-.13c.24-.09.46-.21.7-.28s.51-.13.76-.22c0,0,0,0,0,0S151.1,91.08,151,91.21ZM269.89,78.62c-.15,0-.16,0-.15.19s.05,0,0,.12-.33.13-.23.26.19,0,.28,0-.05.23,0,.31.18.06.23.11-.16.19-.23.18-.27,0-.27.07a.45.45,0,0,1,0,.3c0,.08-.12.13-.13.22s0,.16,0,.26,0,.12-.07.11,0-.08-.06-.11-.32.2-.24.32h0a.17.17,0,0,1-.19.17c0,.07,0,.12,0,.18s-.08.08-.1.15.15.23.1.31-.17-.07-.2-.11,0,0-.11,0,0,.07,0,.11a1.73,1.73,0,0,1-.1.24c0,.09-.1.19-.14.28s-.21.2-.3.37a6,6,0,0,1-.37.56c-.06.11-.21.11-.28.2s-.1.11-.24.17c.09.18-.13.2-.23.26s-.25.2-.21.28a.44.44,0,0,1-.19.1c-.35.12-.64.49-1,.7s-.35.22-.52.31-.83.44-1,.54a2.37,2.37,0,0,1-.42.22,9.21,9.21,0,0,0-1,.38,7.74,7.74,0,0,1-.9.37c-.21.09-.44.09-.65.17-.43.15-.86.26-1.28.4a5.35,5.35,0,0,1-.69.17c-.21.06-.43.17-.65.23-.42.14-.87.24-1.3.41-.24.1-1.2.37-1.38.44s-.39.14-.6.22a11.38,11.38,0,0,1-1.31.49,2.67,2.67,0,0,0-.42.15,3.1,3.1,0,0,0-.45.22c-.12.07-.28,0-.41.1l-.41.19c-.12.06-.26.06-.4.12s-.25.12-.38.18a2.11,2.11,0,0,1-.3.1,1.75,1.75,0,0,0-.27.16,2.65,2.65,0,0,1-.56.23,2.81,2.81,0,0,0-.5.22,1,1,0,0,1-.25.12c-.06,0-.28,0-.18.15-.06.08-.18,0-.27,0s-.14.11-.21.15a4.67,4.67,0,0,0-.51.23,2.18,2.18,0,0,1-.48.19,3.32,3.32,0,0,0-.51.23c-.19.07-.36.18-.55.26a4,4,0,0,0-.58.2c-.1.05-.11.11-.22.14a1,1,0,0,0-.21.14c-.16.11-.36.13-.51.24s0,0,0,.06-.06,0-.08,0l-.15.07c-.11.06-.22.1-.31.16a4.55,4.55,0,0,1-.55.26,3.09,3.09,0,0,0-.7.36,4.12,4.12,0,0,1-.52.24c-.08,0-.19.05-.27.09s-.17.16-.27.23-.31.1-.46.19l-.25.16a4.73,4.73,0,0,1-.46.28c-.11,0-.17,0-.27.1s-.14.18-.2.15v0c-.14.09-.29.16-.44.25s-.13.11-.2.15-.15,0-.22,0-.28.19-.44.26-.09,0-.12,0,0,.07,0,.08a.64.64,0,0,1-.24,0c0,.13-.05.1-.16.15l-.19.12-.64.29c-.06,0-.15,0-.16.1a.7.7,0,0,0-.3.12.9.9,0,0,0-.05.09c-.06,0-.12,0-.21.06a.62.62,0,0,0-.37.25,1.83,1.83,0,0,0-.7.34,4.2,4.2,0,0,1-.52.26c-.17.1-.34.16-.5.24l-.56.31c-.21.12-.46.19-.65.31s-.06.08-.11.1-.12,0-.17.06-.07.1-.19.15-.31.2-.49.25a2.66,2.66,0,0,0-.53.28c-.05,0-.11,0-.16.06s0,.08-.09.1a.66.66,0,0,1-.34,0c-.09,0-.08.14-.15.19a.7.7,0,0,1-.24.13,3.48,3.48,0,0,0-.47.24.84.84,0,0,1-.21.11c-.08,0-.12.1-.2.15s-.37.16-.43.29a3.78,3.78,0,0,0-.46.1c-.14,0-.15.06-.19.19s-.19.1-.28.15a4.63,4.63,0,0,1-.64.29.31.31,0,0,0-.2.14,4.9,4.9,0,0,1-.52.24c-.09,0-.15.16-.23.21s-.32.17-.49.28-.19.07-.28.12-.13.13-.2.18-.13,0-.19.06a.93.93,0,0,1-.15.13l-.22.16c-.06,0-.14,0-.21,0a3.62,3.62,0,0,0-.33.2c-.06,0-.08.07-.14.1s-.13,0-.2.07-.3.21-.4.24-.13.11-.2.15-.12,0-.21.07a3,3,0,0,0-.52.3,3,3,0,0,1-.49.27,1.56,1.56,0,0,1-.2.16c-.08,0-.39.18-.48.24a1.75,1.75,0,0,1-.2.16,8.78,8.78,0,0,0-1,.52,3.44,3.44,0,0,1-.56.33c-.09,0-.18.06-.28.11s-.11.11-.18.18a2.44,2.44,0,0,1-.56.28.78.78,0,0,0-.4.27.83.83,0,0,1-.22.14c-.07,0-.21,0-.28.07s0,.11-.06.12-.09,0-.14,0a.94.94,0,0,0-.24.13c-.1.06-.21.08-.31.14s-.16.14-.25.19-.31.23-.48.31-.18.07-.25.12-.12.11-.19.15-.22,0-.3.11-.15.13-.24.19-.15,0-.25.1-.13.13-.18.17a1.71,1.71,0,0,1-.5.26,2,2,0,0,0-.42.28,1.63,1.63,0,0,1-.51.3c-.19.08-.36.23-.55.33s-.36.16-.53.27-.39.21-.58.32a10.38,10.38,0,0,1-1.05.67,5.54,5.54,0,0,1-.53.3c-.17.06-.25.2-.41.29-.33.22-.7.39-1,.59l-.53.32-.23.17-.12.08c-.06,0-.13,0-.19,0s0,.08-.09.12a.39.39,0,0,1-.11.06.78.78,0,0,0-.22.15c-.07,0-.11.12-.18.17s-.32.11-.47.19a4.66,4.66,0,0,1-.53.32,5.21,5.21,0,0,0-.46.3c-.08.06-.12.11-.2.16a1.64,1.64,0,0,0-.22.14,4.92,4.92,0,0,1-.45.28c-.19.1-.31.12-.43.3-.07-.06-.33.18-.43.22s-.15.14-.26.2-.06.1-.11.15-.1,0-.14.08c-.19.12-.37.2-.55.32,0,0,0,0,0,.07s-.38.14-.53.22-.08.14-.18.2-.18,0-.26.08-.08.09-.12.13a.54.54,0,0,1-.11,0l-.21.15c-.08.07-.1.11-.2.14s-.19.05-.17.16.1,0,.1.1-.18.1-.27.09-.15,0-.26,0-.19.08-.26.13a.14.14,0,0,0-.08.1s0,.09,0,.12-.19.09-.28.1a.62.62,0,0,0-.27.09,2.46,2.46,0,0,0-.53.33,2,2,0,0,1-.44.31.54.54,0,0,0-.22.15c-.06.08-.07.12-.17.16a1.49,1.49,0,0,0-.48.26l-.21.15c-.06,0-.23,0-.2.11-.14.11-.3.15-.4.3-.11-.1-.41.31-.51.35l-.14,0a.54.54,0,0,0-.12.09.45.45,0,0,0-.14.1.21.21,0,0,1-.11.07l-.1.1s0,.07-.09.08h-.08a.42.42,0,0,0-.23.17s0,.06,0,.11-.11.08-.12,0-.21.13-.27.19l-.16.13s-.09.11-.14.12,0,0,0-.06-.14.1-.18.12l-.06,0s0,0,0,.06-.06,0-.08,0,0,0-.06,0-.07,0-.1,0,0,0,0,.06,0,0-.05,0,0,.09,0,.13-.09,0-.14,0-.24.07-.13.15-.09,0-.13,0-.08,0-.12.08-.09,0-.14.08a.52.52,0,0,1-.11.1.41.41,0,0,0-.1.09s0,0,0,0,0,0,0,.05,0,.15-.09.23-.08.16-.15.22l-.1.08s-.06.09-.1.1-.28,0-.39.06,0,.15-.07.2-.18,0-.25.06-.07.1-.1.16-.11,0-.18-.08a1.37,1.37,0,0,0-.13.2h0a.51.51,0,0,1-.23.29c-.1.06-.18,0-.21.17a.15.15,0,0,0,0,.16l.05,0s0,0,0,.07.06,0,.09.08a.14.14,0,0,1,0,.16.28.28,0,0,0-.09.18.69.69,0,0,1,0,.2c0,.09-.13.12-.15.23s.13.08.25.14,0,.08,0,.13a.41.41,0,0,1,0,.15s-.06,0-.11,0-.1-.06-.12,0,0,.07,0,.11.07,0,.1.06,0,.15,0,.22-.07.18-.09.26a.34.34,0,0,0,0,.2c0,.06.09.07.09.14a.24.24,0,0,1,0,.15c0,.06,0,0,0,.08a.22.22,0,0,1,0,.14s0,0-.07.1a.34.34,0,0,0,0,.14c0,.08,0,.25.11.21a.3.3,0,0,1,.14-.06c.07,0,.05,0,.05.12a.23.23,0,0,1-.05.15s-.08,0-.1.11,0,.1-.06.14-.09.05-.11.11,0,.07-.09.1a.23.23,0,0,0-.09.11.43.43,0,0,0,0,.16.22.22,0,0,1,0,.08s0,0-.06,0,.22.16.26.14,0-.08.08-.08.06.06.06.11-.08.15-.11.23a1,1,0,0,0,0,.35.32.32,0,0,1,0,.14c-.05,0-.08,0-.1.11s0,.24-.07.29-.09,0-.09.08,0,.07.07.1.06,0,.12,0,.09,0,.09.07,0,.1,0,.13.1,0,.13,0,0,.25,0,.33v.28a.3.3,0,0,1-.1.19.18.18,0,0,0-.06.14.37.37,0,0,1-.05.2s-.09.07-.08.13.08.07.09.12,0,.07-.06.12,0,.13,0,.19-.08,0-.12.08a.25.25,0,0,0,0,.15c0,.06.07.07.09.11s0,.19-.06.27.16,0,.22.08l.05,0s0,0,0,0a.11.11,0,0,1,0,.1c0,.07-.09.08-.11.15s.07.09.06.17-.11.18-.19.11,0-.13,0-.17-.12,0-.16,0-.11.18-.07.27a1.06,1.06,0,0,0,.1.12.17.17,0,0,1,0,.14.28.28,0,0,0,.1.27,1.25,1.25,0,0,1,.08.12s.09.06.11.11a.41.41,0,0,1-.05.28s0,0,0,.05,0,0,0,.08,0,.11,0,.16,0,.07-.09.11-.05.08-.05.14-.06.28,0,.34.24,0,.24.16-.06.08-.08.13a1.23,1.23,0,0,0,0,.19c0,.08.05.07.1.11s0,.13,0,.17a.64.64,0,0,0-.08.14c0,.06,0,.14-.05.18a.24.24,0,0,1-.08.06s0,0,0,.1a.48.48,0,0,0,0,.12c0,.05.05,0,.09.05s.06.14,0,.19-.16,0-.14.15a.79.79,0,0,1,0,.13.32.32,0,0,0,0,.09s.07,0,.08.07a.1.1,0,0,1,0,.1s-.05,0-.06.07a.53.53,0,0,0,0,.12c0,.08,0,.11,0,.19a.6.6,0,0,1,0,.23.24.24,0,0,0,0,.26.15.15,0,0,1,0,.09s0,.07,0,.11,0,.19,0,.27a1.61,1.61,0,0,1,0,.31s0,0,0,.08a.43.43,0,0,0,0,.11c0,.08,0,.14.1.15s.07,0,.09,0,0,.08,0,.12a.35.35,0,0,1-.06.19c0,.06-.08.08-.08.16s0,.1,0,.13-.06,0-.09.06.09.13.14.09,0-.08,0-.07,0,0,.06.06,0,.13.08.14,0,0,.07,0a.06.06,0,0,1,0,.07s0,.07,0,.08l-.06,0c0,.05,0,.13,0,.18s0,.06,0,.09.07,0,.11,0,.06,0,.06.07a.14.14,0,0,1,0,.09c-.07.05-.15,0-.22,0s-.21,0-.18.1a.1.1,0,0,1,.08.1.08.08,0,0,1,0,.1s-.06,0-.09,0a.35.35,0,0,0,0,.11.41.41,0,0,1,0,.11c0,.05-.05,0-.09,0h0s0,.08.06.09a.16.16,0,0,0,.09,0s0-.06.08-.07h.11c.11,0,0,.1,0,.16a.33.33,0,0,0,0,.22h.08a.74.74,0,0,0,0,.21.36.36,0,0,0,0,.11.8.8,0,0,1,0,.15.18.18,0,0,1,0,.1s0,0-.05.05,0,0,.07,0,0,0,0,.07.12,0,.09,0-.12,0-.16,0-.06,0-.06.1a1,1,0,0,1,0,.17s0,0,0,.07,0,0,0,0,0,0,0,.05a.36.36,0,0,1,0,.1s0,0-.05.08a.47.47,0,0,0,0,.26.48.48,0,0,0,0,.24s0,.06,0,.09v.06h0s0,0,0,.07l-.05.07a.46.46,0,0,1-.07.07s-.06,0-.08,0,0,.06.07,0,.09,0,.11.1a.11.11,0,0,0,0,.06l0,0a.1.1,0,0,1,0,.09s-.06,0-.08.05,0,.07,0,.1,0,.15,0,.23a.49.49,0,0,0,0,.12s0,0,0,.09,0,.07,0,.1,0,.07,0,.11a.6.6,0,0,0,0,.23.27.27,0,0,0,0,.12.41.41,0,0,1,0,.12,1,1,0,0,1,0,.24.22.22,0,0,1,0,.08s-.09,0-.12,0-.05.06,0,.09.09,0,.14,0,0,.16,0,.23,0,.2,0,.3,0,.27-.1.31,0,0-.06,0,0,.06,0,.08a.66.66,0,0,1,0,.14c0,.1-.12,0-.15.07a.09.09,0,0,0,0,.1s.05,0,.08,0,0-.06.07-.06l.08.05a.15.15,0,0,1,.07.19.09.09,0,0,1-.07.08s-.07,0-.09,0,0,.08,0,.11,0,.07,0,.11.09.11.15.16a.27.27,0,0,0,.07.08s.06,0,.08,0a.88.88,0,0,1,0,.23l0,.11s-.05,0-.05.08,0,0,0,.09a.28.28,0,0,1,0,.12.59.59,0,0,0,0,.08.34.34,0,0,0,0,.1c0,.09,0,.14-.07.18s-.11.07-.09.14,0,.07.06.07.06,0,.09,0a0,0,0,0,1,0,.08s-.11,0-.07.08.09,0,.12,0,0,.15,0,.24-.11.18-.15.28-.13.22-.06.28.14-.13.18-.18.09-.09.11-.09,0,.1,0,.12a.65.65,0,0,0-.13.23c0,.05,0,.11,0,.16s-.06.05-.06.11.06.08.11.05,0-.13.09-.1a.26.26,0,0,1-.14.2s-.08,0-.06.07.06,0,.07.06.07,0,.13.06.13,0,.06.07-.22,0-.17.2.05.08.06.12,0,.1.09.09.08,0,.14,0a.08.08,0,0,1,0,.12c-.06.06-.21.06-.29.07a.48.48,0,0,0-.26.09.38.38,0,0,0-.1.12c0,.06,0,.09,0,.16a.24.24,0,0,0,0,.09s0,0,0,.08a.19.19,0,0,1-.1.1s-.07,0-.07.1,0,0,.09.08-.08.25.06.27.1,0,.14,0a.1.1,0,0,1,0,.14s-.27,0-.17.14a.87.87,0,0,1-.08.1c0,.07,0,.05.07.1s0,.12.05.12,0-.09,0-.12.21,0,.23.05-.16.09-.16.18.23-.21.33-.16a.36.36,0,0,1,.11.13s0,.11,0,.17,0,.08,0,.12,0,.09,0,.13,0,.13,0,.14-.07-.06-.1-.07-.2-.1-.27-.08-.06.06-.11.08-.18,0-.11.14.12.09.15.17,0,.08.05.12a.58.58,0,0,0,.12.1c.08,0,.17,0,.25.12s.05.17-.07.19-.25,0-.29,0,.09.19.16.22.12,0,.14.07,0,.05,0,.08,0,0,0,0-.1.17-.07.26.09,0,.12.08a.16.16,0,0,1,0,.15c0,.09-.14.11-.22.15s0,.07-.11.08l-.16,0c-.06,0-.24-.1-.28,0s.15.08.23.07a.73.73,0,0,1,.33,0,.08.08,0,0,1,0,.12s-.1,0-.16,0a.12.12,0,0,0-.1.09c0,.1,0,.06.1.07s.09.18.08.26a.45.45,0,0,1-.16.24s-.08.05-.11.1a.81.81,0,0,1-.12.14c-.1.07-.17.14-.05.24s.08,0,.11.09a.9.9,0,0,1,0,.16c.07,0,.19.05.16.15a.71.71,0,0,0-.07.09c0,.05,0,.05,0,.11s0,.11,0,.16.1,0,.14,0a.21.21,0,0,0,.12-.07c.05,0,0-.08,0-.13s.1,0,.07,0-.07.05-.08.11.1.21,0,.29-.21,0-.19.14.13.05.16.12-.08.15,0,.19.15,0,.17-.08,0-.19.13-.14,0,.06-.06.09,0,.19-.06.28-.17.08-.14.24a.09.09,0,0,0,.18,0s0-.29.14-.22-.1.34-.26.36-.22-.07-.3,0-.08.22-.12.3-.08.06-.11.09,0,.09,0,.13-.25.13-.07.17.09,0,.12.05a.78.78,0,0,1,.05.14c0,.1-.09.18-.05.26s.22,0,.28.1,0,.21,0,.27.12.1.21.16.16.17.09.24-.62-.11-.6.09-.17.15-.11.3.19.17.2.28-.21.08-.2.23.09.08.11.13,0,.1,0,.16.15.05.24,0,.16-.12.16-.18-.15-.12,0-.19.21.05.19.12-.07,0-.09.07a.26.26,0,0,0,0,.15,2.48,2.48,0,0,1,0,.27c0,.06-.06,0,0,.12s.11,0,.13,0,.18,0,.22.09a.63.63,0,0,1-.23.17c-.14.05-.52-.06-.39.21,0,0,.08.08.1.12s0,.09,0,.13.08.1.15.19,0,.41-.07.52-.22.17-.22.27.23.2.34.25a1.43,1.43,0,0,1-.07.28c.12.06.18.08.27,0,.1.12.06.16,0,.27a.19.19,0,0,0,.1,0c.08-.09.39-.21.38,0,0,0-.06.11-.06.12s0,.05-.11.1-.05,0-.07,0,0,.05,0,.07-.08,0-.11.05.2.42-.09.55c-.08,0-.19.11-.1.23s.14,0,.23,0c.26-.06.59.05.37.16,0,0-.06,0-.08,0l-.08,0a.47.47,0,0,0-.1.1c-.06.08,0,.12,0,.23s0,.18,0,.25a.49.49,0,0,0,.25.08c.06,0,.07-.09.13,0s0,.13,0,.16-.12.11-.19.17c-.25.24.18.2.27.32s-.29.14-.2.36c0,0,.25,0,.27,0s-.07.12-.1.16a.15.15,0,0,0,0,.18c0,.06,0,.16,0,.21s.07.07,0,.18-.05.05-.06.08,0,.07,0,.1c-.07.23-.25,0,0-.06,0-.31-.4-.3-.44,0s.08.18.19.27a.24.24,0,0,1,0,.3c0,.06-.14.11-.15.17s0,.06,0,.09a.31.31,0,0,1,0,.1s-.06.05-.07.07,0,.07,0,.1-.12,0-.07.11.15,0,.19.1,0,0,0,.07l0,0a.1.1,0,0,1,0,.09s-.05.08,0,.11.08,0,.11,0,.09.1.15.15,0,.07.06.1.11,0,.15,0,0-.14,0-.2a.5.5,0,0,1,.12-.08s.07-.07.1-.07.08.12.06.17a.18.18,0,0,1-.06.09s-.06.07,0,.1.09,0,.12,0,0,.06.07.09.07,0,.09.06,0,.07,0,.1,0,.09,0,.12-.05,0-.07.07,0,.15,0,.19.07,0,.07.06,0,.08-.05.07,0-.07,0-.09-.06,0-.05.06.05.05.07.08,0,0,0,0,.06,0,.08,0,0,.15,0,.24a2.12,2.12,0,0,0,0,.24.34.34,0,0,0,0,.2s.07,0,.09,0,0,0,0,.07.15,0,.08.16-.14.08-.1.17a.17.17,0,0,0,.12,0,.47.47,0,0,0,0,.17c.08.06.15-.07.21,0s-.15.14,0,.14.09-.09.13-.11-.08.1-.1.16.12.1.17.16-.18.14-.21.21,0,.08,0,.14-.08.08-.12.11-.19.14-.21.21.1.16.17.23c-.11.1-.17.07-.31.06a1.14,1.14,0,0,0-.37,0c-.11,0-.4.2-.07.25,0,.05,0,.08.11.09s0-.27.19-.23a1.24,1.24,0,0,1,.29.2l.08,0v0a.79.79,0,0,1-.28.23c-.13,0-.32-.11-.4,0s0,.07,0,.14.08,0,.06.07-.07,0-.07,0,0,0,.11.08,0,.11-.05.14-.09,0-.12.08,0,.1,0,.13a1,1,0,0,0,0,.17s.08.08.1.11,0,.09-.05.22a1.57,1.57,0,0,0,.08.29.61.61,0,0,0,.5.24c.32-.07,0-.31.13-.48a.19.19,0,0,1,.16.11c.05.11,0,.06,0,.13a.67.67,0,0,0,0,.44c0-.09,0-.26.1-.18s.07.12.18.15c-.06.15.06.07.13.12s0,.14.13.17-.11.18-.18.17-.09-.16-.13-.19-.28.16-.4.22c.15.2.24-.2.4,0s.09.27.24.27.1.08.2.11.16,0,.21.08-.06.32-.18.33.21-.25,0-.28-.34.15-.1.18c-.05.06,0,.12-.13.13s-.13-.1-.2,0a.19.19,0,0,0,.13.07c-.1.14.11.16.14.22s-.18.11-.24.12a.54.54,0,0,1,0,.25c-.05,0-.21,0-.28,0a.23.23,0,0,1-.16-.14s.06-.17-.09-.13a.42.42,0,0,0,0,.12s0,0-.06,0,.09.05.1.08,0,.1,0,.16.19.07.28,0,0-.07.11,0a.24.24,0,0,1,.11.09c0,.09-.11.25.07.25,0,.13-.13,0-.19.06s-.05.08-.1.1-.07,0-.09,0-.06.08,0,.19,0,.17.1.18a.08.08,0,0,1-.06.09c.06.09.22,0,.29.06s0,.25.11.11h0c0,.07,0,.1-.1.15s.18-.07.19-.15c.12.1,0,.21-.07.29s.12.18.11.21-.09.08-.1.15.08.12.16.1a.14.14,0,0,1,0-.11c.08,0,.1.1.17.12s.2-.05.25,0-.1.2,0,.17.1-.12.12-.17.05.2,0,.3-.28.21-.33.23c-.27.14-.14.18-.09.31a.21.21,0,0,1,0,.2c-.05,0-.12,0-.18,0s.1.05.15.09,0,.13.13.11c.11.22-.3.11-.36.15s-.05.18-.08.23a.78.78,0,0,0-.09.21.43.43,0,0,0,0,.28c0,.05.11,0,.15.05l.09.06a2.34,2.34,0,0,1,.49.16c0,.1-.14.05-.21.09s-.07.11-.13.14-.08,0-.12,0,0,.06,0,.09-.2,0-.25,0,0,.07,0,.1l-.06.09s-.08.12-.11.18a2.28,2.28,0,0,1-.17.4.94.94,0,0,0-.06.28.71.71,0,0,1-.12.2c-.11.17-.25.32-.36.49s-.14.12-.19.2a.74.74,0,0,1-.21.18,15.44,15.44,0,0,1-1.38,1c-.09,0-.18.06-.29.11s-.12.14-.21.18-.2,0-.3,0a1.57,1.57,0,0,0-.3.12,3,3,0,0,1-1.11.1c-.35,0-.69,0-1,0a3.76,3.76,0,0,1-.67-.12,7.17,7.17,0,0,1-1.22-.37,2.45,2.45,0,0,1-.52-.24,3.82,3.82,0,0,0-.44-.3,2.49,2.49,0,0,1-.52-.4A2.32,2.32,0,0,1,185,186c-.07-.09-.18-.13-.26-.22a2,2,0,0,1-.25-.32,4.13,4.13,0,0,1-.24-.53s-.06-.08-.07-.11a.65.65,0,0,1,0-.13,1.91,1.91,0,0,0-.1-.34,3.23,3.23,0,0,1-.22-.59c0-.07,0-.15-.07-.24a3.11,3.11,0,0,0,0-.32s-.06,0-.08,0a2.43,2.43,0,0,0-.08-.55c0-.1-.09-.17-.11-.27s0-.11,0-.14-.08,0-.09-.05a1.08,1.08,0,0,1,0-.32c0-.09,0-.2,0-.3s0-.24,0-.34-.07-.07-.07-.13a.38.38,0,0,1,0-.15s0,0,0,0,0,0,0-.07,0-.08,0-.12,0-.23,0-.33-.11-.56,0-.6a1.76,1.76,0,0,0,0-.46,2.94,2.94,0,0,0,0-.42c0-.07-.09-.16-.08-.23s.07-.08.08-.13,0-.28-.1-.31a3.89,3.89,0,0,0,0-.89,2.14,2.14,0,0,1,.09-.34c0-.11,0-.21,0-.32a2.48,2.48,0,0,0,0-.27c0-.21-.06-.41,0-.62a4.91,4.91,0,0,0,.09-.85s0-.1,0-.14a.61.61,0,0,1,0-.13c0-.11,0-.18,0-.29s.06-.18.07-.28,0-.2,0-.31a4.43,4.43,0,0,0,0-.64c0-.15.07-.54-.05-.63a1.09,1.09,0,0,1,.07-.24,1.83,1.83,0,0,0,0-.33v-.56a3.51,3.51,0,0,0,0-.54,2.71,2.71,0,0,1,0-.57,4.6,4.6,0,0,0,0-.64c0-.09,0-.2,0-.32a1.22,1.22,0,0,1,0-.33c0-.1.09-.12.09-.24s0-.21,0-.32a1.44,1.44,0,0,0,.07-.5c0-.09-.07-.14-.07-.23a1.31,1.31,0,0,1,0-.28c0-.21,0-.42,0-.61s0-.43,0-.66,0-.42,0-.65a6,6,0,0,1,.08-.63.88.88,0,0,0,0-.29,1.43,1.43,0,0,1,0-.42,2.9,2.9,0,0,0,.12-.6,1.71,1.71,0,0,0,0-.32c0-.11-.13-.12-.08-.26a1.25,1.25,0,0,0,.09-.25c0-.11,0-.23,0-.35a4.31,4.31,0,0,1,0-.64,3.18,3.18,0,0,0,0-.62,4.73,4.73,0,0,1,0-.65c0-.11,0-.21,0-.32a1.82,1.82,0,0,0,.11-.4c0-.18,0-.35,0-.52a8.33,8.33,0,0,0-.11-1,2.61,2.61,0,0,1-.06-.27,1.83,1.83,0,0,1,0-.32,3.43,3.43,0,0,0,0-.64c0-.23.11-.37.11-.57s0-.33,0-.49a1.74,1.74,0,0,1,.06-.45,3.81,3.81,0,0,0-.08-.59c0-.1.05-.16.08-.25a.74.74,0,0,0,0-.33c0-.09,0-.19-.05-.28s-.1-.16-.14-.25a.61.61,0,0,1,0-.3c.07-.12.14,0,.24,0a3.87,3.87,0,0,0,.05-.69,1.56,1.56,0,0,1,0-.16c0-.07-.1-.07-.11-.11s0-.1.05-.16a1.28,1.28,0,0,0,0-.19c0-.09,0-.28-.06-.32a.1.1,0,0,1,.05-.14v0h0a3.13,3.13,0,0,0,0-.52,1.69,1.69,0,0,1,0-.5c0-.18,0-.36,0-.52s0-.43,0-.64a1.78,1.78,0,0,1,0-.46c0-.11.07-.13,0-.27a.84.84,0,0,1-.09-.28c0-.1.05-.17.05-.27s0-.22,0-.33a1.56,1.56,0,0,0,0-.31,2,2,0,0,1,0-.26c0-.21,0-.46,0-.68,0,0,0-.06,0-.12s0-.06.06-.09a.79.79,0,0,0,0-.31c0-.1,0-.19,0-.3a1,1,0,0,1-.06-.27.57.57,0,0,1,.08-.26,1.29,1.29,0,0,0,0-.34,3.55,3.55,0,0,1,0-1l0,0c.07-.17,0-.4,0-.59a4.9,4.9,0,0,1,0-.66,5,5,0,0,0,0-.67c0-.1,0-.21,0-.3a3,3,0,0,0,0-.31c0-.22,0-.41,0-.61s0-.44,0-.66,0-.39,0-.59,0-.46,0-.68c0-.06,0-.07,0-.13a.61.61,0,0,1,0-.12,1.93,1.93,0,0,0,0-.34c0-.21,0-.44,0-.66s0-.42,0-.61a.49.49,0,0,1,0-.27,2.69,2.69,0,0,0,0-.57,1.9,1.9,0,0,1,0-.25c0-.17-.09-.37,0-.51s.05,0,.05,0a2,2,0,0,0,0-.64c0-.22,0-.42,0-.64,0-.43.07-.86,0-1.28,0-.09-.07-.17-.06-.25s.09-.17.1-.27a2.2,2.2,0,0,0,0-.57v-.29c0-.06,0-.1,0-.17s0-.2,0-.3,0-.14,0-.27a.44.44,0,0,1,0-.3l0,0c-.13.08-.3.09-.41.18s0,.07-.07.09a.18.18,0,0,1-.09,0c-.08,0-.17.07-.25.12a2.71,2.71,0,0,0-.37.21,2.55,2.55,0,0,1-.38.26,1.36,1.36,0,0,0-.25.11l-.23.15a3.76,3.76,0,0,0-.46.32c-.16.14-.32.19-.49.32s-.26.15-.37.25-.16.19-.28.24a3.91,3.91,0,0,0-.45.3,1.62,1.62,0,0,0-.39.34,1,1,0,0,1-.42.3.32.32,0,0,0-.2.18.43.43,0,0,1-.18.22c-.11.05-.18,0-.26.11s-.12.15-.19.22-.38.21-.53.39a1.82,1.82,0,0,1-.45.37c-.11.06-.32.3-.44.28s-.13.15-.17.21a3.15,3.15,0,0,1-.33.22c-.13.1-.25.22-.37.31a1.43,1.43,0,0,1-.27.23,2.61,2.61,0,0,0-.27.19c-.08.06-.21.09-.27.14s-.07.15-.16.2l-.22.15a1.3,1.3,0,0,0-.23.15c-.07.1,0,.13-.15.19a.66.66,0,0,0-.19.15c-.07.06-.22.07-.21.18s-.11,0-.14,0,0,.06-.07.11a.78.78,0,0,1-.2.16s0,.06-.11.09-.1,0-.15,0-.11.15-.17.21-.29.21-.4.35a1.28,1.28,0,0,1-.41.29.49.49,0,0,0-.23.15c-.07.1,0,.12-.17.17a.66.66,0,0,0-.15,0s-.05.09-.09.13-.34.26-.5.4-.15.23-.23.23v0a.08.08,0,0,0-.08.1c-.07,0-.17,0-.24.1a1.24,1.24,0,0,0-.22.18,0,0,0,0,0,0,0c-.12.17-.29.2-.44.32s-.26.24-.41.36-.27.19-.4.3-.11.12-.2.16a1.25,1.25,0,0,0-.24.16,11,11,0,0,1-.9.76c-.17.13-.32.29-.49.41a1,1,0,0,0-.18.17.52.52,0,0,1-.11.1s-.1,0-.14,0,0,.18-.1.24-.13,0-.18.05l-.13.1-.19.17c-.07.07-.11.17-.19.22s-.13,0-.2.14a.4.4,0,0,1-.2.16,2.54,2.54,0,0,0-.44.37,4.14,4.14,0,0,1-.46.37,3.5,3.5,0,0,0-.3.24c-.06.07-.09.18-.16.22s-.11,0-.15,0-.06.07-.09.09a1,1,0,0,1-.23.18,4.81,4.81,0,0,0-.48.42l-.19.19-.13.07s0,.08-.07.1-.16.1-.23.18a1.93,1.93,0,0,1-.33.31c-.12.09-.27.12-.37.24a3.39,3.39,0,0,1-.48.44l-.44.33c-.17.12-.3.27-.46.39s-.21.08-.29.16,0,.09-.07.12-.1,0-.13,0-.3.3-.47.4a10.51,10.51,0,0,0-.86.67c-.2.17-.36.38-.56.54a3.58,3.58,0,0,1-.59.36c-.11.06-.12.19-.23.27a7.17,7.17,0,0,0-.9.73,5.71,5.71,0,0,1-.47.39,4.76,4.76,0,0,0-.47.41,1.88,1.88,0,0,1-.24.14l-.18.2a3.28,3.28,0,0,1-.46.39,2.34,2.34,0,0,0-.4.37c-.22.23-.55.36-.76.6s-.26.18-.35.28a.43.43,0,0,1,0-.05c-.1.06-.16.2-.26.27l-.3.21-.19.15c-.07.06-.1.14-.16.2s-.33.15-.45.29-.09.15-.15.21a.87.87,0,0,1-.26.16.82.82,0,0,0-.2.17c-.05.06-.06.15-.13.22s-.19,0-.27.1-.14.15-.23.2a2.2,2.2,0,0,0-.41.33c-.05.08-.05.17-.11.24s-.16.13-.23.21a3.16,3.16,0,0,1-.35.39.44.44,0,0,1-.25.15c-.13.05-.11.06-.17.18a1.59,1.59,0,0,1-.36.37c-.12.13-.21.27-.33.4s0,.13-.08.22-.18.17-.25.24l-.37.34c-.07.05-.11.14-.18.19s-.14,0-.22.12a1.26,1.26,0,0,0-.31.38c-.05.1-.07.15-.19.19s-.18,0-.17.16c-.15,0-.23.22-.37.29a4,4,0,0,0-.38.24,1.05,1.05,0,0,0-.4.27c-.24.34-.48.36-.7.58a3.58,3.58,0,0,1-.44.51,2.17,2.17,0,0,0-.3.23,1.64,1.64,0,0,0-.16.26,1.43,1.43,0,0,1-.23.26,1.59,1.59,0,0,0-.22.13s-.05,0-.08.1a.59.59,0,0,1,0,.13c0,.09-.23.15-.3.2s-.13.29-.28.43a1.7,1.7,0,0,1-.26.18c-.13.08-.15.18-.24.3s-.23.24-.34.37a.3.3,0,0,1-.2.15,1.56,1.56,0,0,0-.77.73,2.08,2.08,0,0,1-.65,1,4.13,4.13,0,0,0-.49.32,2.57,2.57,0,0,0-.34.39c-.05.07-.07.16-.12.24s-.11.09-.18.14-.17.28-.33.41a2.38,2.38,0,0,0-.38.4.66.66,0,0,1-.19.15,1.12,1.12,0,0,0-.17.21s-.06,0-.08-.05c-.13.12-.14.31-.27.41l-.18.12c-.06.06-.1.13-.16.18a1.54,1.54,0,0,0-.29.28,2.93,2.93,0,0,1-.34.43c-.12.12-.29.18-.4.29s-.09.16-.14.22a1.53,1.53,0,0,1-.18.18c-.08.08-.41.3-.37.4s-.25.17-.34.28a2.93,2.93,0,0,1-.41.38.9.9,0,0,0-.19.2c-.05.08-.14.09-.21.15s-.07.18-.14.24-.11,0-.15,0-.05.07-.07.08,0,.06,0,.08-.05,0-.07,0l-.09.07a1.56,1.56,0,0,1-.2.16c-.12.07-.11.24-.2.36a3.29,3.29,0,0,0-.23.33,2.41,2.41,0,0,1-.36.48l-.23.22c-.06.06-.16.09-.21.17s0,.17-.05.26-.21.11-.27.18-.09.17-.17.23-.17,0-.25.09a1.07,1.07,0,0,0-.15.22.75.75,0,0,1-.19.17.91.91,0,0,0-.17.17c-.07.08-.07.16-.13.23l-.17.26c0,.09-.1.08-.17.14s-.18.31-.48.41-.23.26-.38.34-.19.2-.33.35a2.51,2.51,0,0,0-.33.4.27.27,0,0,1-.06.12s-.07,0-.1.06a7.1,7.1,0,0,1-.71.63c-.17.14-.29.29-.46.41a1.45,1.45,0,0,0-.18.17c-.07.07-.08.14-.16.18s-.15,0-.23.13l-.15.2-.33.4c-.06.08-.09.16-.15.23s-.2.09-.29.16-.14.18-.24.24-.33,0-.29.23c-.07.05-.1.14-.16.19s-.16,0-.22.13-.06.12-.2.14a1.27,1.27,0,0,0-.26,0c-.08,0,0,.07-.1.1s-.07.05-.1.08-.08.14-.2.16a4.73,4.73,0,0,1-.65,0c-.11,0-.2.09-.32.09s-.2-.07-.3-.08-.18.06-.29.08a.62.62,0,0,1-.3-.06c-.14,0-.22.05-.33,0s-.09,0-.14-.05-.1,0-.15,0a3.3,3.3,0,0,1-.63-.09,2.52,2.52,0,0,1-.29-.12c-.1-.06-.22,0-.32-.08s-.15-.08-.25-.12-.2-.05-.29-.08c-.36-.15-.66-.42-1-.56-.2-.07-.25-.31-.41-.42a1.36,1.36,0,0,1-.36-.25,1.94,1.94,0,0,1-.17-.42c-.06-.1-.13-.15-.19-.24s-.16-.42-.26-.6-.08-.2-.11-.29-.1-.36-.16-.53a1.2,1.2,0,0,1-.1-.35,2.56,2.56,0,0,1,0-.39c0-.34-.24-.46-.17-.8,0-.15.23-.62.14-.72s.18-.23,0-.29a1.38,1.38,0,0,1,.29-.61c.13-.18.22-.38.36-.57s.3-.38.44-.58a8.92,8.92,0,0,1,.7-.92,7.72,7.72,0,0,0,.94-1.13,2.93,2.93,0,0,1,.47-.53c.17-.19.34-.39.53-.57.38-.35.73-.79,1.12-1.14s.61-.65.94-.94.65-.57,1-.86.33-.27.49-.43a3,3,0,0,1,.42-.45,4.07,4.07,0,0,0,.52-.41c.09-.09.12-.21.21-.31s.17-.16.25-.24c.34-.35.76-.61,1.08-1a8.48,8.48,0,0,1,1-.91A6.88,6.88,0,0,0,129,164a5.72,5.72,0,0,0,.53-.45,14,14,0,0,1,1-1c.16-.14.32-.3.48-.43l.15-.12a.47.47,0,0,0,.12-.09c.11-.08.12-.16.2-.25s.19-.1.28-.19.18-.21.28-.3a1.71,1.71,0,0,1,.26-.21,1.34,1.34,0,0,0,.27-.26,2,2,0,0,1,.53-.47c.06,0,.12,0,.17-.06s0-.12,0-.18.25-.21.35-.32.28-.21.41-.33.3-.27.47-.44c.37-.33.72-.63,1.1-.91.21-.16.36-.34.56-.5s.39-.29.57-.46.14-.19.21-.25a2.84,2.84,0,0,1,.34-.22,2.48,2.48,0,0,1,.62-.5c0-.09.4-.34.51-.43a2.35,2.35,0,0,1,.58-.46.36.36,0,0,1,.14-.18,6.71,6.71,0,0,1,.58-.48,1.22,1.22,0,0,0,.25-.2,2.43,2.43,0,0,1,.28-.2c.12-.08.13-.2.23-.3a1.54,1.54,0,0,1,.31-.17c.48-.29.8-.8,1.28-1.1s.71-.62,1.08-.91c.17-.15.35-.28.51-.42s.21-.11.31-.19.1-.25.25-.14c.09-.11.13-.31.23-.39s.23-.12.36-.22c.39-.32.75-.7,1.15-1a1.83,1.83,0,0,0,.51-.49,1.94,1.94,0,0,1,.23-.26c0-.06.21-.21.18-.28.22-.06.4,0,.53-.23s.21-.22.36-.35.72-.4.72-.67c.11-.06.07.08.18.08-.05-.29.64-.29.51-.58a1.45,1.45,0,0,0,.68-.46c.27-.26.59-.46.87-.71s.61-.51.91-.8a.64.64,0,0,1,.28-.18c.14-.06.16-.15.25-.25a5.15,5.15,0,0,1,.62-.49c.37-.29.71-.64,1.1-.91s.73-.67,1.15-.9c.22-.12.32-.3.54-.41s.27-.31.42-.45.34-.27.5-.38a6.32,6.32,0,0,0,.54-.36c.15-.15.3-.28.44-.43a2.82,2.82,0,0,1,.54-.36c.11-.08.13-.18.25-.26a3.78,3.78,0,0,0,.35-.17c.09-.07.14-.17.24-.24a.85.85,0,0,0,.26-.24c.09-.12.09-.18.22-.28l.29-.19a5.52,5.52,0,0,1,.55-.4s0-.07,0-.1a2.2,2.2,0,0,0,.25-.17c.09,0,.21-.06.32-.12a3.9,3.9,0,0,1,.46-.34c.16-.1.29-.23.45-.34s.19-.06.26-.14.06-.22.16-.23a.36.36,0,0,1,0,.1c.1,0,.12-.12.17-.18s.18-.09.24-.14a.62.62,0,0,0,.18-.14,1,1,0,0,1,.53-.31c0-.11.09-.15.17-.2a1.63,1.63,0,0,0,.2-.17,2.86,2.86,0,0,1,.41-.32.31.31,0,0,1,.13,0c.05,0,0-.1.07-.12s.19-.06.29-.11.1-.16.16-.22.2,0,.2-.16c.15-.07.28-.2.43-.29s.31-.12.43-.22a1.14,1.14,0,0,1,.15-.17l.17-.13c.08,0,.12-.14.17-.18s.14,0,.21-.1,0,0,0-.05c.26-.13.5-.35.73-.49a4.31,4.31,0,0,0,.73-.54c.15-.15.35-.27.51-.42a.7.7,0,0,1,.34-.18c.15-.05.17-.11.27-.19l.25-.21c.08-.05.21,0,.3-.13a1.71,1.71,0,0,1,.22-.25c.09-.07.28-.09.25-.22.19,0,.2-.13.33-.23s.28-.14.42-.21.2-.2.34-.3.34-.08.3-.27a.4.4,0,0,0,.27-.06c.07-.06.14-.13.21-.18a2.5,2.5,0,0,0,.24-.22c.09-.1.16-.08.28-.14s.11-.16.19-.26a.66.66,0,0,1,.25-.17,2.07,2.07,0,0,0,.52-.3,1.81,1.81,0,0,1,.23-.18c.11-.07.2-.09.2-.23a16.06,16.06,0,0,0,1.39-1,9.53,9.53,0,0,0,1.17-1l1.07-.8c.1-.07.19-.16.29-.22s.12-.06.16-.1.06-.09.1-.12a2.29,2.29,0,0,1,.31-.2,2.47,2.47,0,0,0,.27-.21c.18-.12.34-.27.53-.39a6.71,6.71,0,0,1,1.43-1s0,0,0,0,0,0,.11,0c0-.17.33-.25.45-.35a3.29,3.29,0,0,1,.42-.34,5,5,0,0,0,.59-.38c.16-.13.3-.33.48-.45s.21-.1.31-.17.18-.13.28-.18a.87.87,0,0,0,.28-.19,1.79,1.79,0,0,1,.42-.19s0,0,0-.06,0,0,0,0a.29.29,0,0,1,0-.13c.14-.06,0-.11,0-.19s.07-.17,0-.26a.8.8,0,0,0,0-.3c0-.09,0-.18,0-.15s0,0,.08-.07,0,0,0-.15a1.13,1.13,0,0,1,0-.18c0-.07,0-.14,0-.21s0-.06-.11-.14a.57.57,0,0,1,0-.29c.11,0,.2,0,.17-.14s-.09-.15-.13-.24a1,1,0,0,1,0-.39c0-.05.06-.14.05-.18s-.07-.07-.09-.13a.48.48,0,0,1,0-.37s0-.07,0-.12a.35.35,0,0,0,0-.2c0-.24-.05-.46-.07-.74s.1-.62-.21-.67c0,0-.13,0-.12,0a.31.31,0,0,0-.3.08c-.07,0-.22.17-.2.27s-.24.09-.35.15-.17.13-.27.19-.24.1-.34.17,0,.21-.14.29-.29,0-.41.08-.12.16-.22.24-.1.06-.14.09,0,.09-.09.13-.22,0-.35.09,0,.1-.08.14-.14,0-.19,0c0,.24-.21.18-.37.23a2.54,2.54,0,0,1-.47.14c-.14,0-.43,0-.55,0s-.06.11-.13.16-.17,0-.24,0a.15.15,0,0,0,.08.16c-.05.2-.22,0-.32,0s-.28.13-.4.16-.33,0-.37.13.22.09.32.13c0,.2-.32,0-.4,0s-.18.06-.25,0a2.33,2.33,0,0,1-.25-.07H177s-.06-.09-.07-.1-.07-.1-.19,0,0,.09,0,.12l-.11,0c-.09,0-.22,0-.27.07a5.71,5.71,0,0,0-.74.18c-.27.07-.54,0-.81.08a1,1,0,0,1-.34.09,3.08,3.08,0,0,0-.42,0,.09.09,0,0,1,0,0c-.19.08-.47-.09-.66,0a.17.17,0,0,0,0,.07.17.17,0,0,1-.12,0s0,0,0-.06-.21,0-.35,0-.18,0-.29-.05-.24,0-.34,0a2.72,2.72,0,0,0-.33-.07c-.15,0-.2-.09-.33-.12a2.47,2.47,0,0,0-.39,0,.67.67,0,0,1-.29-.1.51.51,0,0,0-.33-.08c0,.06,0,.06,0,.12s-.12-.1-.17-.18a.37.37,0,0,0-.2-.16c-.2-.08-.37-.13-.57-.23a4,4,0,0,1-.85-.55.18.18,0,0,1-.05.08,1.11,1.11,0,0,0-.07-.16c-.12-.18-.34-.28-.5-.44a3.47,3.47,0,0,1-.54-.61c-.07-.11-.17-.15-.25-.25s0-.25-.09-.35-.16-.12-.2-.27,0-.23-.14-.33c.12-.12-.12-.37-.16-.49a4,4,0,0,1-.14-.52c0-.08-.08-.16-.11-.25a2.46,2.46,0,0,1,0-.28,6,6,0,0,0-.21-1,1.29,1.29,0,0,1,0-.48c0-.19-.07-.33-.07-.51s0-.34-.07-.45l.09,0a3.64,3.64,0,0,1,0-.57c0-.57-.07-1.08,0-1.57,0-.27,0-.56,0-.83,0-.12,0-.24,0-.38,0-.45,0-.88,0-1.34s0-1.1,0-1.65a.79.79,0,0,0-.06-.41A1.15,1.15,0,0,1,166,104c0-.18.18-.68,0-.77a1,1,0,0,1,0-.39c0-.14,0-.26,0-.41a.86.86,0,0,1,.09-.35,3.3,3.3,0,0,0,.12-.38c0-.13.12-.16.12-.34s0-.28,0-.42a9.21,9.21,0,0,1,.06-1.29c.05-.43,0-.83.06-1.26a3.39,3.39,0,0,0,0-.64s0-.07,0-.14.06,0,.08-.09.05-.22,0-.25,0-.08,0-.12a.81.81,0,0,0,0-.16.65.65,0,0,1,0-.31c.06-.13.18-.23.19-.38s0-.31,0-.46,0-.22,0-.32a1.9,1.9,0,0,0,.14-.57c.1,0,0-.1-.05-.18s.05-.17.07-.24.07-.31.1-.5a8,8,0,0,1,.18-1c0-.19.09-.38.14-.56a3.53,3.53,0,0,1,.14-.56,2.14,2.14,0,0,0,.17-.56c0-.16.11-.32.14-.49a2.26,2.26,0,0,1,.11-.43,2.35,2.35,0,0,0,.11-.35c.09,0,.05-.12.06-.18s.14-.14.17-.22,0-.2,0-.29.09-.15.12-.24a1.53,1.53,0,0,1,.08-.26,5.37,5.37,0,0,1,.21-.56.78.78,0,0,1,.12-.22.92.92,0,0,0,.08-.27c0-.06.09-.16.12-.23s.07-.15.11-.22l.13-.23s.08-.06.1-.1a.93.93,0,0,1,0-.1s.07-.05.08-.08,0-.11,0-.15a1.21,1.21,0,0,1,.15-.22c.05-.09.13-.16.18-.25s0-.18.08-.22h.07a1.42,1.42,0,0,1,.11-.35c.07-.15.18-.21.26-.33s.13-.21.2-.3l.12-.11c0-.06-.05-.12.06-.13a.68.68,0,0,1,.12-.22s.28-.41.32-.39a2.22,2.22,0,0,1,.39-.57c.06-.1.08-.25.16-.32s.08,0,.13-.11S172,83,172,83s.21-.23.31-.36l.16-.21s.05-.09.08-.12.1,0,.12,0,.06-.17.11-.24a1.53,1.53,0,0,1,.16-.22c.1-.12.26-.22.36-.34a8,8,0,0,1,.82-.7,3.4,3.4,0,0,1,.89-.63c0-.09.2-.23.29-.26s.13,0,.19-.06,0-.14.1-.09c.06.21.13,0,.17-.08s.08-.05.14-.08a.23.23,0,0,0,.11-.08,2.13,2.13,0,0,1,.22-.21c.08-.06.2-.08.23-.19s.19-.07.18-.14a1.2,1.2,0,0,1,.45-.19c.1,0,.19-.08.27-.11a1.37,1.37,0,0,0,.29-.07,1,1,0,0,1,.23-.11l.26-.09a1.09,1.09,0,0,1,.51-.16c.21,0,.36-.1.57-.12s.1,0,.21-.1a1.47,1.47,0,0,1,.3-.08,1.67,1.67,0,0,0,.32,0,.82.82,0,0,1,.28-.07l.31,0c.09,0,.18.06.26.07s.15,0,.25,0l.25.1a1.07,1.07,0,0,0,.27.07.39.39,0,0,1,.28.09s.09.15.15.21a1.36,1.36,0,0,0,.17.17.46.46,0,0,1,.14.23c0,.1-.1.2,0,.25l.06,0a1.35,1.35,0,0,1,.05.29,2.17,2.17,0,0,0,.07.24.91.91,0,0,1,0,.59c-.15,0-.14.33-.14.44s-.1,0-.09.11a.21.21,0,0,1,.15.27c0,.21-.24.49-.25.6s0,.15,0,.24-.1.13-.13.2-.11.43,0,.46-.19.21-.27.28l-.15.15c0,.07.05.13,0,.18s-.09.17,0,.21-.14.09-.23.09a.92.92,0,0,1-.09.23s0,.15-.07.2-.17.38-.26.38-.19,0-.23.17-.13.14-.22.21-.2,0-.28.12a.2.2,0,0,1,0,.07s0,0,0,0l0,.08c-.08-.08-.36.34-.44.45a1.33,1.33,0,0,0-.19.65s-.1,0-.14,0c0,.3-.16.25-.37.42,0,0,0,0,0,0s-.11.22-.22.3-.29.19-.1.29a.63.63,0,0,0-.09.39h0c-.07.08-.13.25-.21.32-.1-.23-.24,0-.26.11s.07.44-.16.4a.64.64,0,0,1,0,.28c-.11,0-.18.19-.18.29-.24.06-.28.5-.28.7s-.17.48-.15.75-.36.38-.46.58a6,6,0,0,0-.25.58,2.29,2.29,0,0,0-.18.74,2.52,2.52,0,0,1-.16.67,2.63,2.63,0,0,1-.14.3,1,1,0,0,0-.06.3,1.19,1.19,0,0,0-.07.27,3.11,3.11,0,0,1,0,.32,3.27,3.27,0,0,1-.24.5,1.08,1.08,0,0,0-.11.3c0,.12.19.91,0,.94s-.07.17,0,.36a1.34,1.34,0,0,1,0,.35c0,.08-.06,0,0,.14s.07.08.08.11,0,.28.16.26a2.67,2.67,0,0,1,.15.68c0,.14-.1.5-.22.55a2,2,0,0,1,0,.24,1.51,1.51,0,0,0-.1.17c-.07.16,0,.31,0,.47s-.06.18-.05.29,0,.24,0,.36a1.63,1.63,0,0,1-.1.64,3.77,3.77,0,0,0-.14,1.3c0,.23.05.44,0,.66a1.45,1.45,0,0,1-.15.55c0,.07-.12.13-.14.21a1,1,0,0,0,0,.34.81.81,0,0,0,.05.31c.09.2.17.29.12.53,0,.06-.12.17-.11.23s.16.09.16.19-.05.17-.06.23a3,3,0,0,0,0,1.23,4.53,4.53,0,0,0,.29,1.26c0,.1.1.13.15.21a.69.69,0,0,1,.11.36,1.38,1.38,0,0,0,.27.56,1.79,1.79,0,0,0,.48.47,1.64,1.64,0,0,0,.29.2,2.06,2.06,0,0,0,.35.12,1.21,1.21,0,0,0,.3.11,1.38,1.38,0,0,0,.29,0,4.26,4.26,0,0,0,.63,0,7.93,7.93,0,0,0,1-.23c.11,0,.2-.12.3-.16s.22-.05.33-.1l.3-.15a1.73,1.73,0,0,1,.24-.1,2.33,2.33,0,0,0,.2-.16l.25-.17a.37.37,0,0,0,.15-.08s0-.07.07-.1l.16-.2.08,0a2.43,2.43,0,0,0,.3-.26c.18-.25.4-.45.59-.7s.22-.24.32-.37a5.44,5.44,0,0,0,.93-2.17c0-.2.06-.45.13-.64a.48.48,0,0,0,.08-.27,1.55,1.55,0,0,1,0-.31,6.91,6.91,0,0,0,.2-1.3,4.63,4.63,0,0,1,.1-.65c0-.25,0-.49.09-.74,0-.09.1-.13.13-.22a.86.86,0,0,0,0-.32,4.59,4.59,0,0,1,.1-1c0-.2,0-.39.05-.58a2.07,2.07,0,0,0,0-.54h.08a1.67,1.67,0,0,0,0-.59c0-.16.06-.34.08-.52s.09-.39.1-.6.07-.43.07-.65a.43.43,0,0,1,0-.16s.05-.06.07-.1a2.54,2.54,0,0,0,0-.39c0-.25,0-.48.06-.73a2.71,2.71,0,0,1,.08-.71,1.9,1.9,0,0,0,0-.75c0-.08-.08-.2,0-.3s.08,0,.11-.07,0-.09,0-.14a3.42,3.42,0,0,0,0-.64c-.1,0-.17,0-.19-.07s0-.21.06-.26c.07-.25.21,0,.28-.14s0-.36,0-.46a2.13,2.13,0,0,0,.1-.49c0-.19,0-.38,0-.57s0-.37,0-.59,0-.22,0-.34,0-.22.05-.34a1.66,1.66,0,0,1,0-.32.83.83,0,0,0,0-.31,7,7,0,0,1,.05-.78,2.5,2.5,0,0,1,0-.29,1.2,1.2,0,0,0,0-.33,6.17,6.17,0,0,1,.08-.62,3.8,3.8,0,0,0,0-.67,5.88,5.88,0,0,1,0-.73c0-.11,0-.23,0-.32a1.13,1.13,0,0,0,0-.15s-.06-.07-.07-.12.09-.2.1-.29l0-.32c0-.22-.06-.47,0-.69s.08-.12.05-.24-.05-.07-.05-.12.05-.08.06-.13a1.51,1.51,0,0,0,.09-.6,3.1,3.1,0,0,1,0-.43,3.39,3.39,0,0,0,0-.45,4.4,4.4,0,0,1,.07-.8c0-.21,0-.45.07-.66s.05-.2.06-.3a3.27,3.27,0,0,0,0-.44c0-.23.1-.43.13-.65s0-.42,0-.62.06-.2.09-.3,0-.2.07-.3a2.36,2.36,0,0,1,.28-.6s.07,0,.1-.1,0-.09,0-.14a.74.74,0,0,1,.2-.23s0,0,0-.09l.09,0c0-.14.24-.31.34-.41a2.06,2.06,0,0,1,.33-.33,1.56,1.56,0,0,1,.38-.27c.14-.08.21-.24.36-.26a.16.16,0,0,1,.12-.08c0,.13.23,0,.32-.06s0-.11,0-.14.23,0,.31,0,.16-.08.26-.11.31-.17.48-.23a3.19,3.19,0,0,1,1.4-.13,4.28,4.28,0,0,0,.8,0,2.15,2.15,0,0,1,.73.2c.4.15.85.22,1.1.61.1.16.26.25.36.4s.12.15.16.23.07.14.19.2a.36.36,0,0,1,.19.47c0,.1-.1.15,0,.2s.23,0,.29.06a.09.09,0,0,1-.06.06c-.1,0-.24,0-.27.1s.14.14.18.21-.06.16-.11.25,0,.19,0,.28a1.26,1.26,0,0,1,0,.34.81.81,0,0,0,0,.31c0,.11,0,.14,0,.25s0,.22.1.23c0,.07-.1.07-.13.15a1.22,1.22,0,0,0,0,.27c0,.12,0,.35.07.45s.17.1.22.19,0,.12-.08.19-.18,0-.23.07,0,.22,0,.32c.16,0,.12.14.1.25a.33.33,0,0,0,.05.27c.09.22,0,.26-.15.3s-.1.39-.1.59a1.88,1.88,0,0,0,0,.33c0,.1.12.14.09.24s-.14.09-.11.22.11.17.15.25c.12.25-.13.3-.24.47s0,.16.07.23a.27.27,0,0,1,.07.26.41.41,0,0,0,0,.29,1.61,1.61,0,0,1,.09.29c0,.11,0,.18-.06.28s0,.08,0,.13-.09,0-.12.07,0,.11,0,.2a.39.39,0,0,1,0,.28c-.12,0,0-.13-.17-.08a.16.16,0,0,0-.09.19c0,.12.24.2.12.37a.28.28,0,0,1-.13-.07c-.1.07,0,.29,0,.38s-.1.23,0,.34.18.06.21-.09c.29.17-.17.3-.27.33,0,.26,0,.51,0,.77s0,.28,0,.43a2.12,2.12,0,0,1-.1.4c0,.13.11.18.08.34s-.19.15-.17.28.11.07.13.14,0,.11-.05.16a3.13,3.13,0,0,0,0,.43c0,.31,0,.62,0,.91s0,.31,0,.46a4.13,4.13,0,0,0-.07.49c0,.58,0,1.15-.07,1.74s-.17,1.29-.19,2c-.16,0-.05.37-.06.5s0,.41,0,.62a2.88,2.88,0,0,1-.06.59c0,.14-.17.39,0,.43h0s-.09.12-.1.14a.81.81,0,0,0,0,.22c0,.15,0,.28,0,.43s-.06.57-.07.87-.08.61-.07.92a1,1,0,0,1,0,.42c0,.09-.19.25,0,.25,0,.24-.1.37-.16.56a5.67,5.67,0,0,0-.05.58c0,.21,0,.43,0,.63s-.07.25,0,.31.13,0,.23.06a.15.15,0,0,1-.16.14c0,.09-.09.15-.11.25s0,.23,0,.32a3.29,3.29,0,0,1-.06.83c0,.13-.05.27-.08.39a.49.49,0,0,0,0,.21c0,.07.11,0,.12.09s-.09.09-.1.13a.57.57,0,0,0,0,.22c0,.14,0,.27,0,.42a3.09,3.09,0,0,0,0,.43c0,.2.18.18.2.3s0,.13,0,.23,0,0,0,.1a.66.66,0,0,1,0,.15c-.05.1-.12.09-.06.22s.1.12.1.25a.86.86,0,0,1-.19.48c-.07.08-.14.09-.07.22s.19.11.17.2a1,1,0,0,1-.17,0c0,.12-.11.55.07.56,0,.07-.25.31,0,.25a.78.78,0,0,1-.12.48c-.1.19.12.19.14.36s0,.09,0,.14.06,0,.06.07,0,.1,0,.2.05.16,0,.23-.14,0-.13.14,0,.07.06.12a.48.48,0,0,1,0,.12.55.55,0,0,1-.08.29c-.1.18,0,.39-.07.58a1.53,1.53,0,0,0-.08.6c0,.2.13.35.06.56a.55.55,0,0,0,0,.54,1,1,0,0,1-.06.57c0,.16,0,.12.06.23a.47.47,0,0,1-.07.27c-.06.13,0,.14,0,.27s0,.13-.07.21c.05.15.14.34.09.48h0c.07.06.46-.12.54-.17a.54.54,0,0,0,.21-.15.54.54,0,0,1,.09-.12s.08,0,.11,0,.09-.13.16-.18.12,0,.16-.06l.1-.12a1.53,1.53,0,0,1,.22-.16.86.86,0,0,0,.23-.13c.09-.11,0-.11.17-.14a1.07,1.07,0,0,0,.24-.12,4.07,4.07,0,0,0,.49-.31.71.71,0,0,1,.22-.13.94.94,0,0,0,.25-.18c.17-.13.37-.19.54-.31a5.14,5.14,0,0,1,.51-.29c.11-.05.25-.07.33-.17s.09-.17.23-.2a.88.88,0,0,0,.28-.06c.09-.06.19-.16.27-.22a14.8,14.8,0,0,1,1.55-1c.84-.53,1.69-1,2.53-1.55a12.14,12.14,0,0,1,1.36-.88c.48-.23.91-.62,1.39-.8,0,0,0,0-.07,0s.29-.23.36-.28a3.4,3.4,0,0,0,.3-.23.71.71,0,0,1,.28-.09,1.55,1.55,0,0,0,.32-.2,2.52,2.52,0,0,1,.51-.34,1.57,1.57,0,0,0,.5-.25l.5-.38h0a.64.64,0,0,1,.4-.22l.43-.17a3,3,0,0,0,.5-.35,3.3,3.3,0,0,0,.45-.26s.09-.09.15-.13l.28-.23c.13-.14.3-.16.46-.27a3,3,0,0,1,.55-.32c.18-.08.38-.13.55-.21a2.7,2.7,0,0,1,.56-.24,1.28,1.28,0,0,0,.47-.29c.06-.06.08-.13.14-.18s.14,0,.25,0,.3-.23.43-.34.12-.06.14-.1,0-.09,0-.12a.59.59,0,0,1,.34-.18c.11,0,.12.13.22.14s.2-.09.25-.11a1.05,1.05,0,0,1,.26-.13c.13,0,.17,0,.24-.14a1,1,0,0,1,.43-.31c.06,0,.09,0,.14,0s0-.08.07-.11.09,0,.14,0a1,1,0,0,0,.09-.1.83.83,0,0,1,.13-.07s.09,0,.12,0,.11-.15.17-.21.13,0,.25-.07.17-.12.25-.16.15,0,.24-.12a.69.69,0,0,1,.25-.19,1,1,0,0,0,.25-.13,1.77,1.77,0,0,1,.22-.16,2.24,2.24,0,0,0,.36-.14,3,3,0,0,1,.37-.25c.38-.23.74-.49,1.11-.7a4.8,4.8,0,0,0,.52-.36c.1-.07.16,0,.26,0s.15-.12.23-.16.21-.27.42-.33a2.79,2.79,0,0,0,.53-.24,10,10,0,0,1,1-.5,2.55,2.55,0,0,0,.5-.3l.55-.36c.35-.24.76-.4,1.13-.61s.74-.43,1.11-.63l.23-.14c.1-.07.19-.06.28-.12s0-.08.09-.08.07,0,.13,0,.15-.15.21-.19a5.11,5.11,0,0,1,1.05-.58,8.83,8.83,0,0,1,1.07-.63c0-.12.22-.11.31-.15s.19-.15.3-.21a2.39,2.39,0,0,1,.34-.21c.06,0,.11,0,.16-.06.23-.14.5-.27.72-.43a.94.94,0,0,1,.26-.14c.07,0,.24,0,.28-.07s0,0,0,0a1.37,1.37,0,0,1,.44-.28,7.51,7.51,0,0,0,1.12-.6.7.7,0,0,1,.24-.13,3.13,3.13,0,0,0,.3-.2,4.23,4.23,0,0,1,.57-.27c.81-.41,1.51-.93,2.3-1.36.35-.19.71-.36,1.06-.53s.45-.27.68-.38.16-.11.25-.16a2,2,0,0,0,.25-.13c.09-.06.12-.14.22-.18a1.08,1.08,0,0,0,.26-.14,3,3,0,0,1,.45-.27c.17-.1.25-.21.42-.29s.44-.28.65-.41c.06,0,.13,0,.2-.06a2,2,0,0,0,.37-.24l.24-.16a.29.29,0,0,0,.16-.27c0-.29-.11-.25-.23-.29a2,2,0,0,1-.56-.28c-.08-.06-.14-.14-.21-.2s-.18-.12-.26-.18a1.87,1.87,0,0,1-.36-.43,1.78,1.78,0,0,1-.22-.26,1.66,1.66,0,0,1-.12-.31,1,1,0,0,0-.1-.27c0-.06-.12-.11-.16-.17A.49.49,0,0,1,239,83a1.13,1.13,0,0,0,0-.32,1.93,1.93,0,0,1-.11-.59c0-.23,0-.44,0-.67a6.57,6.57,0,0,1,0-1.33,4.58,4.58,0,0,0,0-.64,2.33,2.33,0,0,0-.08-.31.78.78,0,0,1,0-.34.83.83,0,0,0,0-.32c0-.12-.08-.16-.13-.28s.09-.28.1-.43,0-.27.07-.43.06,0,.08-.11a.76.76,0,0,0,0-.15l0-.33c0-.26,0-.5,0-.74a2,2,0,0,1,0-.65,1.75,1.75,0,0,0,.12-.73A2.52,2.52,0,0,0,239,74c-.05-.21-.2-.29-.12-.52a3,3,0,0,0,.13-.8c0-.12,0-.22,0-.32a.94.94,0,0,1,.1-.28,1.62,1.62,0,0,0,.16-.57c0-.05,0-.14,0-.17s-.08,0-.1-.08,0-.25-.05-.39a.33.33,0,0,0,0-.17s-.08,0-.09-.08a.41.41,0,0,1,.09-.35c.07-.07.15-.07.17-.18s0-.21,0-.31l-.12,0a.47.47,0,0,1,0-.31s0-.11,0-.15.1,0,.12,0,0-.22,0-.3a4.9,4.9,0,0,0,0-.54,1.85,1.85,0,0,1,0-.24c0-.49,0-.95.09-1.42,0-.23,0-.45,0-.66a2.21,2.21,0,0,0,0-.62s0,0,0,0-.12,0-.09-.09.08,0,.1-.06a.41.41,0,0,0,0-.29c0-.23,0-.45,0-.67-.05-.5,0-1,0-1.54s0-.91-.05-1.37a1.08,1.08,0,0,1,0-.31c0-.06.06,0,0-.1s-.1,0-.12-.07-.07-.17-.11-.25a1.2,1.2,0,0,0-.16-.27,1.35,1.35,0,0,0-1-.67c-.2,0-.44.08-.63,0,0,0-.08-.07-.1-.08s-.08.06-.12.06-.05,0-.1-.08a.24.24,0,0,0-.19,0c-.14,0-.17,0-.28.11s-.34,0-.51,0a.87.87,0,0,0-.5.28c-.1.12-.21,0-.33.11s-.14.15-.22.21-.22.06-.34.1-.12.11-.17.14-.19.41-.45.44-.17,0-.27.1-.16.1-.22.16a.74.74,0,0,0-.15.21c0,.09-.09.08-.1.19s.08.1,0,.2a1,1,0,0,1-.42.25c0,.19,0,.47-.17.59s-.15.1-.22.16a2.07,2.07,0,0,1-.24.17,2.92,2.92,0,0,0-.5.44l-.26.3c-.07.11-.1.17-.19.06s0-.1,0-.13-.13,0-.15,0,.17.16.19.24a.56.56,0,0,1-.13.57,2,2,0,0,1-.45.3l-.26.14c-.13.07-.11.11-.07.23a1,1,0,0,1-.05.63c0,.09-.08.17-.1.27s0,.18-.05.28-.07,0-.09,0,0,0,0,.07,0,.13,0,.16-.12-.07-.18,0-.06.09-.07.11,0,.14.06.26a1.62,1.62,0,0,1,0,.3c0,.12,0,.23,0,.35a.36.36,0,0,1,0,.18s-.07.07-.08.1.12.15.09.28a.24.24,0,0,1-.17.2c-.06.08-.23.22-.16.32s.25,0,.32.11-.1.22-.16.3,0,.08-.13.11-.13,0-.17,0c.25-.24-.19-.31-.22-.2s.14.13.07.24-.08,0-.11,0,0,.05-.07.1c-.13.21.08.3.29.28s.23-.05.22.06-.14.12-.19.15-.11.11-.11.21.15,0,.12.19-.26.12-.4.2c.09.06.23,0,.32.05s.14.12.19.18-.37.07-.5.08-.3.2-.29.32.09.17.11.25,0,.2,0,.29.12.07.13.21a.3.3,0,0,1-.09.25c.07.08.16.13.22.21a1.62,1.62,0,0,1,.1.18c.05.15.16.27,0,.38s0,.39-.26.36c-.06,0-.19,0-.23,0s0,.11.07.06c.21.28-.3.16-.39.27.08.13.22.15.2.33.14,0,0,.1-.06.09s-.18-.07-.27-.09a.87.87,0,0,0,0,.28h0c0,.08-.07.15-.08.23s0,.1.13.15a.56.56,0,0,0,.36.36s.12,0,.12.07,0,.06,0,.1a.28.28,0,0,0,.09.25c-.05.08-.16,0-.18.14s.09.12.11.18a1.36,1.36,0,0,1,0,.27c0,.08-.13.14-.09.23s.15.06.18.08.21.13,0,.19a.66.66,0,0,0-.27.12.28.28,0,0,1-.27,0c0-.12,0-.36-.06-.44s0,.19,0,.23-.06.13,0,.21.15,0,.07.14-.42.24-.18.29c0,.13-.17.17-.09.35s.06,0,.13.1,0,.08.13.13.1.13.08.26-.15,0-.24,0-.1,0-.12.12a1.62,1.62,0,0,1,0,.21.43.43,0,0,1,0,.16,2.79,2.79,0,0,0,0,.5c0,.19,0,.37,0,.55s0,.44,0,.66,0,.23,0,.34-.11.24-.1.31.22,0,.21.15-.16.15-.18.23.09.16.17.09.08-.21.21-.17l0,0s0,0,0,0a.2.2,0,0,1,.13,0,.43.43,0,0,1-.16.43c-.09.06-.32,0-.27.19s.15.11.12.22-.09.06-.14.1,0,.16,0,.27,0,.21.16.27.08,0,.13.06a.91.91,0,0,1,0,.17c-.1,0-.37-.06-.43.08s.3.12.39.16c-.09.18.08.09.11.12s.11.22.12.29-.2.26-.27.39-.05.05,0,.12.06.08.07.11a1.57,1.57,0,0,1-.1.28c0,.1-.17.16-.17.27s.06,0,.09.08,0,.08,0,.15,0,.19.08.29.15.24,0,.21-.15-.51-.31-.44.11.3.12.47,0,.29.08.41.17.16.21.3a1.37,1.37,0,0,1,0,.45c-.14,0-.22-.06-.26.11s.13,0,0,.16-.13.09-.16.12a1.29,1.29,0,0,0-.2.21c-.07.12.2.28-.18.25,0,.06,0,.13,0,.18s-.07,0-.1.1,0,.12,0,.18-.07.12-.07.16.28.14.07.2-.11,0-.17.06a.2.2,0,0,0-.06.13s-.06,0-.09,0,0,.1,0,.17,0,.09,0,.15a1.34,1.34,0,0,1,0,.4c-.1.15-.6.11-.41.32h.06c.11.1-.21.17-.27.06h0a.64.64,0,0,1-.2.32.69.69,0,0,0-.13.11s0,.1-.07.14-.11,0-.18,0l-.13.1c-.09.07-.18.1-.27.18a.67.67,0,0,1-.2.17,4.71,4.71,0,0,0-.52.21c-.07,0-.12.1-.18.13a1.49,1.49,0,0,1-.18,0c-.1,0-.13.21-.27.22a.43.43,0,0,0-.35.13.62.62,0,0,1-.28.17c-.28.1-.53.23-.81.34a6.83,6.83,0,0,1-.87.14,3,3,0,0,1-.79,0,1,1,0,0,0-.16.05,1.55,1.55,0,0,1-.21,0l-.39-.08a1.57,1.57,0,0,1-.73-.39A1,1,0,0,1,219,91c0-.11-.08-.25-.13-.37s-.08-.13-.11-.2,0-.07,0-.1-.07,0-.07,0a3,3,0,0,1-.14-.81c0-.14,0-.24,0-.37s0-.23,0-.34a2.32,2.32,0,0,1,0-.45c0-.08.06-.07,0-.16s-.07-.15-.06-.27a3,3,0,0,1,0-.31,4.2,4.2,0,0,1,0-.51,1.4,1.4,0,0,0,0-.64,1.38,1.38,0,0,0-.06-.16c0-.12.07-.24.07-.39s0-.27,0-.41c0-.31.05-.63.06-.93a1.12,1.12,0,0,1,0-.41c0-.07.18-.27,0-.3,0-.1,0-.2,0-.28s0-.34,0-.48,0,0-.08,0c.16-.06.09-.32.1-.47s.09-.4,0-.51l0,0,0,0a1.07,1.07,0,0,1,0-.32c0-.11,0-.2,0-.3s0-.4,0-.59,0-.4,0-.61a.42.42,0,0,1,0-.22,1,1,0,0,0,0-.24c0-.3,0-.62,0-.91s0-.6,0-.89c0-.14,0-.27,0-.42a3.11,3.11,0,0,1,0-.53c0-.08.09-.08.07-.16s-.07-.08-.09-.13.06-.22.09-.34a.77.77,0,0,0,0-.27c0-.15,0-.4.09-.51,0-.09-.14-.18,0-.26-.08-.11,0-.35,0-.49s0-.3,0-.46,0-.31,0-.43.13-.22.09-.4,0,0,0-.07v-.17c0-.31,0-.58,0-.89a6,6,0,0,1,0-.86,8.24,8.24,0,0,0,0-.85.59.59,0,0,1,0-.2c0-.06,0-.13,0-.19s-.06-.13-.06-.18,0-.09,0-.16a3.12,3.12,0,0,0,.05-.82c0-.28,0-.56,0-.84a5.14,5.14,0,0,1,0-.88,4.85,4.85,0,0,0,.06-1.14c0-.46.07-.91.13-1.37a5.08,5.08,0,0,0,0-.68,4.43,4.43,0,0,1,.09-.72,4.51,4.51,0,0,1,.4-1.19c.08-.19.14-.38.2-.57a2.53,2.53,0,0,1,.28-.54,3.23,3.23,0,0,1,.25-.49,5.15,5.15,0,0,0,.32-.45,5.09,5.09,0,0,1,.34-.47c.15-.17.25-.48.48-.53s.21-.22.29-.27.13,0,.18-.07,0-.08.07-.1.1,0,.15,0,0-.07.06-.1.21-.15.31-.22a3.86,3.86,0,0,1,.57-.3c.22-.09.36-.27.58-.34l.17,0,.3-.09a4,4,0,0,1,.61-.21,6.45,6.45,0,0,1,1.38-.18,2.12,2.12,0,0,1,.67.06c.18.06.5.14.67,0s.1-.12.2-.18a1.5,1.5,0,0,1,.25-.15,1,1,0,0,1,.63,0c.13.05.12,0,.25,0s.17,0,.22.15.06.17.18.2a1.6,1.6,0,0,0,.44,0,.66.66,0,0,1,.29.08c.09,0,.19,0,.27.06s.34,0,.55,0,.23,0,.35,0a1.53,1.53,0,0,0,.27-.11c.09-.05.16-.12.26-.17s.2,0,.29-.08.33-.19.51-.25a1.15,1.15,0,0,0,.48-.33c.06-.11.06-.15.17-.2l.21-.13a2.36,2.36,0,0,0,.42-.33c.1-.12.12-.28.21-.4s.14,0,.21-.09.05-.15.15-.17,0,0,0-.06c.14-.35.5-.56.75-.82.09-.1.17-.11.27-.18a1.9,1.9,0,0,0,.21-.19,2.51,2.51,0,0,0,.33-.4,2,2,0,0,1,.45-.46,1,1,0,0,0,.29-.24c.07-.08.06-.18.11-.26a1.86,1.86,0,0,1,.46-.31l.52-.31c.36-.21.7-.43,1.06-.63.18-.11.37-.18.55-.28s.28-.12.41-.18a2.35,2.35,0,0,0,.25-.19,2.49,2.49,0,0,1,.55-.16,3.05,3.05,0,0,0,.32-.13,1.34,1.34,0,0,1,.35,0l.2-.05h.14a1.33,1.33,0,0,1,.24-.1,3.89,3.89,0,0,1,.68-.13h.68c.23,0,.48,0,.72.06a2.15,2.15,0,0,1,.61.13,8.25,8.25,0,0,1,1.17.44c0,.07.17.17.25.22a1,1,0,0,1,.24.23c.08.1.2.4.35.4s.24-.41.26-.13c0,.09-.07.15-.08.23s0,.11.09.21a1.45,1.45,0,0,0,.19.23.23.23,0,0,1,.11.22,3.5,3.5,0,0,0,.06.48c.14.07.16-.19.23-.1s-.07.22-.08.27.08.34.11.54,0,.23,0,.29.24.06.32.09.15.27.25.42c-.05.11-.29,0-.38,0a1.17,1.17,0,0,0,0,.67c0,.11.11.15.17.23s.06.31.19.36.23,0,.32,0-.09.06-.08.14-.09.15-.14.22a.52.52,0,0,0,0,.39.85.85,0,0,0,.09.22c0,.1,0,.06.11.1s.06-.06.11,0,0,.1,0,.13-.12,0-.17,0-.07,0-.1.06a.13.13,0,0,1-.12,0c-.06,0-.07-.05-.14,0s-.12.15-.14.21a1.76,1.76,0,0,0-.08.65V58c0,.13,0,.18.12.24s0,.18,0,.23-.08.07-.11.13,0,.25,0,.29.19-.06.22-.1.27-.39.36-.28,0,.09,0,.13,0,0,0,.1,0,.16,0,.27a.83.83,0,0,0,0,.62c.17,0,.08.29.26.12,0,.09,0,.2-.09.2s-.13-.11-.21-.11-.15.09-.16.18.05.1.11.19.07.18,0,.24-.21,0-.19.1.19,0,.24.09-.1.08-.13.11a.53.53,0,0,1,0,.2c0,.09,0,.07-.07.13s0,.15.08.26a.6.6,0,0,1,.11.34c0,.2,0,.21.19.27l-.06.07a.57.57,0,0,0,0,.12c-.09.09-.09,0-.17,0s-.08,0-.19,0-.15-.05-.23,0a2,2,0,0,0,0,.68.33.33,0,0,0,.28.21c.14,0,.22,0,.15.17s-.15.13-.26.15-.16,0-.17.16,0,.32,0,.35.12,0,.16,0,0,.07,0,.11.19.1.25.17-.05.1-.15.08-.23-.09-.3,0a1.51,1.51,0,0,0,0,.48s.07.08.08.12-.08.2-.1.28a5.25,5.25,0,0,0,0,.79c0,.25,0,.5,0,.75s-.05.46,0,.71a5.62,5.62,0,0,1,0,.71,1.47,1.47,0,0,0,0,.42c.05.14.08.1.21.15s.1.12.13.24.1.15,0,.22-.25,0-.31,0,0,.09,0,.13.05,0,.05.09l-.06.11a.66.66,0,0,0,0,.14.27.27,0,0,0,.11.26c.08,0,.21,0,.15.16s-.19,0-.27.11.06.09.06.16-.07.11-.08.17,0,.14,0,.19,0,.11.05.18.26.09.36.14.06.1.05.25-.24,0-.21.2c0,.06.06.15.07.2s0,.08,0,.15a.25.25,0,0,1,.08.18c0,.08,0,.07.09.13s.06,0,0,.13a.64.64,0,0,1-.1.13s0-.2,0-.24-.13.08-.13.14a.93.93,0,0,1-.08.2c0,.07-.1.07-.06.18s.1.11.11.19a1.77,1.77,0,0,1,0,.23,1.26,1.26,0,0,1,0,.51c-.08.13-.09,0-.2-.08s-.08.06-.07.15a1.31,1.31,0,0,0,0,.28s.06.07,0,.13-.06,0-.06.09.15.11.21,0-.08-.19.09-.23.14.06.14.17,0,.06,0,.11,0,.09,0,.13-.19,0-.28,0-.16.13,0,.17.31,0,.19.11-.21,0-.29.06,0,.41.2.44.2-.06.24.09,0,.24-.1.26-.1-.15-.23-.06a.22.22,0,0,0-.07.24c.06.12.12.09.11.25a.41.41,0,0,1-.08.25c-.08.13-.06.08,0,.2s.05.07,0,.15-.07.06-.07.08.12.08.23.09a.64.64,0,0,1,.28.05c0,.07-.39.44-.12.41,0,.09-.06.24,0,.31s.17,0,.24,0,0,.07.08.1.11,0,.13,0a.22.22,0,0,1,0,.25.46.46,0,0,1-.37.35c-.14,0-.07.09,0,.16s.1,0,.08.08-.09,0-.11,0,0,.14.13.18.19,0,.23-.1.06.15.19.16a.6.6,0,0,1,0,.19s0,0,0,.07,0,0,0,0-.05.28.06.29.18-.11.21.07,0,.09,0,.13-.05.08-.05.09.08.18.16.12.28,0,.38.06,0,.26.19.42a.78.78,0,0,0,.38.22v.08c.1,0,.22.09.35.1s.27,0,.39,0a3.18,3.18,0,0,0,1.13-.32c.17-.08.38-.11.53-.18s.48-.08.49-.22a2,2,0,0,0,.23-.06,3.33,3.33,0,0,0,.5-.25c.13-.09.33-.14.48-.22s.16-.06.24-.12a2.75,2.75,0,0,1,.3-.14l.09,0s0,0,0-.06a.68.68,0,0,1,.15,0c.06,0,.2-.06.18-.12a.4.4,0,0,1,.23-.1s0,.07.08,0,0-.07,0-.08a1.59,1.59,0,0,1,.37-.18,1.59,1.59,0,0,0,.2-.07.66.66,0,0,0,.15-.14c.14-.09.27-.08.39-.2a.08.08,0,0,0,.12,0c-.06-.1.21-.1.24-.21a.44.44,0,0,0,.21-.07c.06,0,0-.1.12-.14s.13,0,.2,0,.42-.21.61-.33a3.7,3.7,0,0,1,.43-.25,5.06,5.06,0,0,1,.44-.26c.14,0,.4-.13.45-.26s0,0,.05,0,.23-.21.33-.21.09.06.12,0,.05,0,.09-.07a1.3,1.3,0,0,0,.18-.15,1.64,1.64,0,0,1,.48-.28c.35-.17.69-.3,1-.43,0-.08.1-.08.17-.09l.55-.17c.19,0,.39-.06.58-.11a2.63,2.63,0,0,0,.3-.08s.09-.06.14-.06.07,0,.12,0,.15,0,.25,0l.18,0c.31,0,.62,0,.94,0,.14,0,.26.06.41.06s.21.1.34.09a1.06,1.06,0,0,1,.38.05,2.79,2.79,0,0,1,.39.1c.13,0,.25,0,.38,0s.23.1.38,0c-.07-.06-.15-.07-.13-.19s.17.14.24,0c.17,0,.1.16.14.26a.4.4,0,0,0,.35.15c0-.09-.09-.08-.09-.15s.18.08.26.11.08.17.18.19-.06.1,0,.13l.12.06s.08.09.12.11.15.08.18.21a1,1,0,0,0,.13.23c.05.1.13.08.1.23s.07.1.14.22.15.08.2.16,0,.23.13.24a.57.57,0,0,0,0,.27s.06,0,.08.1,0,.1,0,.13.13.06.17.17-.12.16-.12.23.14.13.2.15.1,0,.1.09a.22.22,0,0,1-.05.11C269.84,78.57,270,78.6,269.89,78.62ZM201.25,98.54a1.49,1.49,0,0,1-.13-.59c0-.12,0-.2,0-.33a2.81,2.81,0,0,1,0-.71c0-.11.06-1,.07-1.09a2.53,2.53,0,0,0,0-.27c0-.11.09-.22.1-.33a4.13,4.13,0,0,0,0-.71,3.8,3.8,0,0,1,.06-.63,2.9,2.9,0,0,0,0-.72,2.93,2.93,0,0,1,.1-.66c0-.09.11-.77.12-1,0-.11,0-.22,0-.34s.1-.2,0-.23,0,0,0,0,0,0,.05,0a.15.15,0,0,0,0-.14c-.09,0,0-.11,0-.17a.58.58,0,0,0,0-.24s0,0,0,0,0-.09.06-.13a.94.94,0,0,1,0-.22c0-.05.06-.59.06-.64a.43.43,0,0,0,0-.16c0-.06-.07-.07,0-.13s.09-.13.06-.21.08-.58.08-.61.1-.3.06-.38a1.12,1.12,0,0,1,0-.32c0-.11,0-.62.06-.67a2.41,2.41,0,0,1,.07-.48.23.23,0,0,0,0-.18.52.52,0,0,0-.06-.15c0-.07,0-.09.06-.14s0-.51.06-.58a1.84,1.84,0,0,1,0-.34s0,0,.07,0,0,0,0,0a.17.17,0,0,0,0-.08s-.05,0-.06,0a.27.27,0,0,1,0-.09s.07,0,.07-.09-.06-.09-.07-.13a.17.17,0,0,1,0-.15,2.38,2.38,0,0,0,.07-.31s0-.55,0-.58,0,0,0-.05.12,0,.13,0-.05-.11-.07-.13,0,0,0,0a.11.11,0,0,1,0-.08s0,0,.06-.09-.07-.07-.06-.09.09,0,.11-.06a.14.14,0,0,0,0-.14,3.12,3.12,0,0,1,0-.43,1.24,1.24,0,0,0,.06-.27.77.77,0,0,0,0-.29.25.25,0,0,1,0-.15s0,0,.07,0,0-.05,0-.07-.12-.12-.11-.16,0,0,.07,0,0-.18,0-.24a3.08,3.08,0,0,0,0-.42s0,0,0-.08a.08.08,0,0,0,0-.07s0-.31,0-.35.11-.19.1-.23a1.1,1.1,0,0,0,0-.36.61.61,0,0,0,0-.12c0-.07,0-.12-.06-.13s0,0,0-.06.11,0,.12,0-.05-.1-.05-.17a.18.18,0,0,1,0-.12.22.22,0,0,0,0-.11c0-.05,0-.07-.05-.11a.13.13,0,0,1,0-.05s.05,0,.06,0,.05,0,.07,0,0,0,0,0-.06,0-.08,0,0-.12,0-.15,0,0,0,0,.06,0,0,0,0,0-.06,0,0-.08.05-.11,0-.15,0-.18a1.34,1.34,0,0,0,0-.2s0-.24,0-.3,0-.34,0-.39a1.23,1.23,0,0,0,0-.19s0-.06,0-.07,0,0,.06,0a.76.76,0,0,0,0-.16.25.25,0,0,0,0-.09c0-.05,0-.16,0-.19s0-.26,0-.32,0-.46,0-.52,0-.07,0-.11,0,0,0-.07,0,0,0,0,.07-.08.06-.1,0,0,0-.07a1,1,0,0,1,0-.17s0-.12,0-.15a.34.34,0,0,1,.05-.22s0,0,0,0,0-.05,0-.06-.06,0-.07,0,0-.1,0-.13,0-.15,0-.17,0,0,.06,0,0,0-.05,0-.06,0,0,0,0,0,.06,0a1.57,1.57,0,0,0,0-.32,2.26,2.26,0,0,1,.06-.3s0-.17,0-.25,0,0,.05,0a.68.68,0,0,0,0-.28s-.08-.1-.08-.14a1.71,1.71,0,0,1,.13-.27c0-.06,0-.34,0-.4s0-.15,0-.18.05,0,.06,0-.1,0-.06-.09.05,0,.07,0a.14.14,0,0,0,0-.14s-.05,0,0,0,0,0,0,0a1.67,1.67,0,0,0,0-.38c0-.06.09-.12.05-.18l0,0s.12-.48.13-.52a.54.54,0,0,1,.08-.27l.06,0a1,1,0,0,0,0-.17.34.34,0,0,1,.1-.17.12.12,0,0,0,.06-.1s0-.19,0-.21,0-.05,0-.08,0,0,0,0,.08,0,.09,0a.24.24,0,0,1,0-.09s0,0,0,0,0,0,0,0,.1,0,.1-.07,0,0-.05,0,.13-.22.13-.28,0-.09,0-.13a2.84,2.84,0,0,1,.27-.38c0-.06,0-.12.05-.21s.08,0,.08,0,.1-.21.13-.23,0,0,0,0,.07-.22.11-.25.25-.28.3-.32l.3-.35s.09,0,.11-.09l0-.07.19-.12c.05,0,0-.09.07-.13s.11,0,.14-.09.37-.34.41-.36a.32.32,0,0,0,.1-.1,3,3,0,0,1,.33-.27s.22-.09.27-.13.13,0,.15-.07.07-.11.1-.09a.11.11,0,0,0,.08,0s0,0,0,0,.11-.08.18-.09l.15,0a.23.23,0,0,1,.15-.07l.18,0h.2a.35.35,0,0,0,.14-.06l.13-.06h.14c.06,0,0,.08.08.12s.07,0,.1-.07a2.94,2.94,0,0,1,.45-.05c.07,0,.11,0,.19,0s.1,0,.14,0,0-.07.08-.06l.08,0a.65.65,0,0,0,.33,0c.06,0,.19,0,.21.06s.06.06.11.07a1,1,0,0,1,.17,0c.05,0,.09,0,.12.07l.11.08a.31.31,0,0,1,.1.1s.07.06.1.07.05,0,.06,0,0,0,0,.06,0,0,.06,0,0,0,0,.07,0,.1,0,.14,0,.12,0,.17,0,0,0,0,.05.06.05.09,0,.06,0,.09,0,.12,0,.18-.07,0-.06,0,0,0,.05,0l.06,0s0,.06,0,.09,0,0,0,.06,0,0,0,0-.05,0-.06,0,0,.09,0,.13,0,0,.06,0,0,0,0,0,.05.06.05.1,0,0,0,0,0,0,.05-.07,0,0,.05,0l.11,0s.05,0,.07,0,0,0,0,.06,0,0,0,0S212,67,212,67s.05,0,.06,0,0,0,0,0a.62.62,0,0,0,0,.22s0,.06,0,.07.1,0,.08.11,0,0,0,0,0,0,0,0a.93.93,0,0,1,.05-.1l0,0s.05.11,0,.14,0,0,0,.06,0,0,0,0,.05,0,.07,0,0,.11,0,.12a.86.86,0,0,1,0,.16,1.48,1.48,0,0,0-.08.13s0,.12,0,.13,0,.17,0,.21,0,0,0,0a.42.42,0,0,1,0,.12s0,.1,0,.11-.08,0-.1.07,0,.12,0,.17a.14.14,0,0,1-.08.1s-.13,0-.12.07a.11.11,0,0,0,.11.11s0,0,0,.07,0,0,.05,0,0,.07,0,.08,0,0-.05,0,0,0,0,0-.08,0-.09,0a.08.08,0,0,1-.07,0c-.05,0,0,.08,0,.11a.17.17,0,0,0,0,.07s0,0,.05,0,.06.09.07.1,0,.08,0,.12a2,2,0,0,1-.21.2s-.09.06-.1.1,0,0,0,.06,0,.07.05.08,0,.06,0,.07,0,0,0,.06,0,0,0,0,0,0,0,0,.09,0,.13,0,0,0,0,0-.06,0-.08,0a1,1,0,0,0-.08.2s0,0,.05,0h0s0,0,0,0,.05,0,.07,0,0,.12,0,.14-.05,0-.05,0,0,0,0,.06a.24.24,0,0,0,0,.14s.1,0,.08.09-.09,0-.12.08-.13,0-.14.06,0,0,0,.06-.07,0,0,.09l0,0s0,.07,0,.08.08,0,.12,0,0,.11,0,.14,0,0-.06,0,0,0,0,0,0,0,0,.06,0,0,0,.07a1,1,0,0,0,0,.16s.07,0,.08,0,0,.07-.08.09,0,0,0,0-.1.06-.11.1-.06.08-.07.11,0,0,0,.05h-.06s-.07.1-.05.13l0,0s0,0,0,0,.21,0,.25,0,.07,0,.09,0,0,0,.05,0,0,0,.07,0-.1,0-.12.1,0,.08,0,.13-.05,0-.09,0,0,.06.05.08,0,0,0,0a.09.09,0,0,1-.07,0s0,0,0-.07-.08.07-.07,0,0,0-.08,0l-.09,0s0,0,0,.07,0,.09,0,.12.07,0,.08,0,0,.12,0,.14a.44.44,0,0,1,0,.16s-.05.11-.08.09,0,0,0-.06h-.08s-.06.09-.05.12a.57.57,0,0,0,.1.13s.1.07.09.1,0,0,0,0,.05,0,.06,0,0,0,0,.06,0,0,0,.07l-.07,0s0,0-.06,0,0,0,0,0,0,0,0,0a.81.81,0,0,0,0,.31s-.06.15,0,.19a.34.34,0,0,1,0,.11l0,0a.13.13,0,0,0,0,.06.07.07,0,0,0,0,.06.48.48,0,0,1,0,.14s0,0,0,.07a.55.55,0,0,0,0,.18c0,.08,0,.38,0,.46s0,.22,0,.34,0,0,0,0,.07,0,.09,0l0,0s.07,0,0,0-.05,0-.07.06a.74.74,0,0,1-.08.13s-.05,0-.05,0,.05,0,.07,0,0,0,0,0,0,0,0,.06,0,0,0,0l.06,0s.05,0,.06,0,0,0-.05,0,0,.06,0,0,0,0,0,.06,0,0,0,0-.06,0,0,0l.08.1s.08.09.08.12,0,.06,0,.07,0,0,0,0,0,0,0,0,0,.26-.06.31-.12.15-.11.25-.05.29-.05.32a.23.23,0,0,0,0,.14s.09.08.12.12a.09.09,0,0,0,.06,0h.05s-.05.05,0,.09.07,0,0,.06a.33.33,0,0,1-.15.1c-.12,0-.1.2-.08.21s.16,0,.16.1,0,0,0,.06,0,.09,0,.14-.08,0-.09.09a.91.91,0,0,0,0,.17.75.75,0,0,0,0,.3c0,.06.07,0,.09.07s0,0,0,.05,0,0,0,0,.08,0,.06.07-.08.06-.11.09-.09.13-.11.15a.22.22,0,0,0,0,.16c0,.06.09.06,0,.13s-.08.07-.05.12.1,0,.12-.08a.15.15,0,0,1,.1-.09s0,.12,0,.15-.1.1-.15.14a.24.24,0,0,0-.06.09s0,.08,0,.1-.06,0-.07.1a1.94,1.94,0,0,0,0,.42s.08,0,.1.07,0,.07,0,.12.17.11.2.2-.08.06-.13.06-.09.09-.1.15a.35.35,0,0,0,.06.19c0,.07,0,.14.1.13a1.15,1.15,0,0,1,0,.18c0,.06,0,.09-.08.14a.33.33,0,0,0-.07.33c0,.09.13.08.17.17a.09.09,0,0,1,0,.12s-.07,0-.11,0-.24,0-.21.15.06.06.06.1,0,.09,0,.13,0,.1,0,.11-.09,0-.14,0a.18.18,0,0,0-.2.14.68.68,0,0,0,.1.42s.1.07.05.13-.11,0-.14,0a.41.41,0,0,0-.07.15.59.59,0,0,0,.06.3.19.19,0,0,1,0,.18.13.13,0,0,0,0,.12s0,.12,0,.17a.37.37,0,0,0,.07.14,1.31,1.31,0,0,0,.3.14l.11.1s0,.11.08.15.08,0,.07.11,0,.08-.08.12a.3.3,0,0,0-.06.18s0,0,0,.07h-.07s-.06,0-.06,0,0,0,0-.06-.08-.09-.12-.09-.08,0-.11-.06-.11.1-.09,0,.09-.06.06-.11-.05-.11-.09-.11-.13,0-.14.1,0,.13,0,.16,0,.13,0,.15.14,0,.16,0,.12,0,.07,0l0,0c0,.05,0,0,0,.05a.12.12,0,0,1,0,.17s0,.12,0,.14.17.09.21.08.08-.06.1-.08.05.08.05.12,0,.11,0,.16.05.11,0,.15-.1,0-.12,0a1.06,1.06,0,0,0-.39-.24s0,0-.07,0,0-.06,0,0,0,.11,0,.15,0,.11,0,.14-.06.19-.07.29a.57.57,0,0,1,0,.13s-.07.08-.07.08.08.06.09.12a.75.75,0,0,1-.05.16,2.75,2.75,0,0,0,0,.7,6.68,6.68,0,0,0,0,1.09,1.36,1.36,0,0,1,0,.35c0,.18-.15.46,0,.6-.13.08,0,.09,0,.17s0,.06-.06.1,0,.11,0,.11,0,0,0,.08-.08,0-.08.07a.61.61,0,0,0,0,.27,5.3,5.3,0,0,1,0,.69c0,.22,0,.45-.05.67a.35.35,0,0,0,.07.33.88.88,0,0,1,.17.17.24.24,0,0,1,0,.31.28.28,0,0,0,0,.22s.1,0,.1.06a.12.12,0,0,1-.05.11.34.34,0,0,0-.17.22c0,.06-.05.18,0,.21s.06.13,0,.24-.06,0-.08,0-.07.19.06.1a4.21,4.21,0,0,0-.09.49c0,.17,0,.34-.16.43s-.24,0-.25.15a.68.68,0,0,1-.1.36,2.37,2.37,0,0,0-.26.47,2.49,2.49,0,0,1-.57.66,3.56,3.56,0,0,0-.49.46,1.43,1.43,0,0,1-.35.42,1.42,1.42,0,0,0-.18.08s0,.08-.07.12-.2,0-.3.09a4.74,4.74,0,0,0-.45.35c-.09.06-.21,0-.3.08s0,.11-.05.14-.09,0-.14,0a3.18,3.18,0,0,0-.61.31c-.1.08-.8.43-1,.54s-.83.26-1,.32a1.69,1.69,0,0,1-.71,0,3.61,3.61,0,0,1-.65-.07,4.74,4.74,0,0,0-.58-.12c0-.13-.19-.19-.28-.25a2.27,2.27,0,0,1-.45-.37,1.16,1.16,0,0,1-.2-.4C201.42,99,201.3,98.64,201.25,98.54Zm5.58-44.67c-.05-.13-.16-.15-.17-.31s.07-.27.06-.41a.3.3,0,0,1,0-.21s.12-.17.1-.23a1.1,1.1,0,0,1,0-.31c0-.06,0-.18,0-.23s.06,0,.08-.06a.22.22,0,0,0,0-.11c0-.06,0-.19,0-.22s.15-.36.16-.41a.68.68,0,0,1,.09-.22,1.69,1.69,0,0,1,.24-.41c.06-.05.06-.07.08-.15a.51.51,0,0,1,.09-.16,1.53,1.53,0,0,1,.15-.13c0-.06,0-.12.11-.17l.21-.27.07-.07s0-.08,0-.1.13-.06.17-.08.07,0,.09-.13a.36.36,0,0,1,.1-.14c.06,0,.13,0,.19-.07s.07-.11.11-.15.19-.15.28-.24,0-.11.1-.14.13,0,.2-.08,0-.06.07-.08.06,0,.08,0,0,0,0,0a.44.44,0,0,1,.16-.1s.07-.08.12-.11.08,0,.11,0,0,0,.06-.07.07,0,.14-.07.07-.07.13-.12.1,0,.16-.07a1.91,1.91,0,0,0,.32-.16,1.1,1.1,0,0,0,.14-.09c.11-.08.24-.06.36-.11a.55.55,0,0,1,.15-.08.58.58,0,0,1,.19,0c.13,0,.21-.09.35-.12a1,1,0,0,0,.39-.1.28.28,0,0,1,.2-.06s0,0,.08,0l.1,0a3,3,0,0,1,.43,0l.22,0a1.13,1.13,0,0,1,.32,0,1.69,1.69,0,0,0,.32,0,.33.33,0,0,1,.2,0,.65.65,0,0,0,.15.1.41.41,0,0,1,.19,0,.58.58,0,0,0,.21.1.66.66,0,0,0,.39-.06c.07,0,.08-.08.15,0l.12.11c.05.06,0,.11.07.18a2.53,2.53,0,0,0,.13.22,1.27,1.27,0,0,1,.11.13.76.76,0,0,0,.09.18.47.47,0,0,0,.14.14c.08.07.12.06.13.18a2.09,2.09,0,0,1,0,.25c0,.11,0,.37.1.42s0,0,0,.1,0,.06,0,.1a.56.56,0,0,1,.09.21.68.68,0,0,0,0,.14s.05,0,.05.1,0,.1-.05.1-.14.17-.2.27a1.49,1.49,0,0,0-.14.37,3,3,0,0,0-.06.32.76.76,0,0,1,0,.15s-.07.07-.09.12,0,.13,0,.19-.08.1-.12.16-.06.12-.1.18a1,1,0,0,1-.14.15.3.3,0,0,0-.08.16c0,.08,0,.13-.05.19s-.25.08-.34.23a3,3,0,0,1-.32.45,4,4,0,0,0-.4.42,1.42,1.42,0,0,1-.21.33,2,2,0,0,0-.23.34,2.16,2.16,0,0,1-.24.35,3.79,3.79,0,0,1-.69.58,4.25,4.25,0,0,1-.39.25.55.55,0,0,0-.17.13c0,.06,0,.12-.11.17s-.26,0-.37.1a.88.88,0,0,0-.29.25c-.13.15-.42.19-.6.27s-.08.08-.14.12a.4.4,0,0,1-.37,0c-.07-.05,0-.07-.14-.07a.65.65,0,0,0-.2,0c-.16.06-.23.13-.4.09s-.41,0-.61-.09a1.87,1.87,0,0,1-.77-.2.54.54,0,0,0-.38-.14.47.47,0,0,1-.33-.19c-.21-.2-.42-.3-.54-.56a.78.78,0,0,0-.1-.15.52.52,0,0,1,0-.21,1.4,1.4,0,0,0-.11-.4C206.86,54.17,206.89,54,206.83,53.87Z"/>
  </g>
</svg>
