<svg xmlns="http://www.w3.org/2000/svg" width="66.97mm" height="12.21mm" viewBox="0 0 189.84 34.62"><defs><style>.a{fill:#b482b8;}</style></defs><title>walt-disney-world-resort</title><path class="a" d="M126.67,8.5v.43a3.21,3.21,0,0,0-1,.12.74.74,0,0,0-.51.73,1.76,1.76,0,0,0,.06.46q.06.22.18.57l3.28,9,2.39-6.66-1.07-2.92a1.75,1.75,0,0,0-.9-1.08,2.61,2.61,0,0,0-1.07-.17V8.5h6.1v.43a4.23,4.23,0,0,0-1.18.12.8.8,0,0,0-.51.82,1.35,1.35,0,0,0,0,.37c0,.11.1.33.22.65L136,19.81l2.85-8.07a7.62,7.62,0,0,0,.33-1.23,2.45,2.45,0,0,0,0-.49.92.92,0,0,0-.6-.92,2.69,2.69,0,0,0-1-.17V8.5h4.52v.43a2.61,2.61,0,0,0-.93.29,2.1,2.1,0,0,0-.86,1.18L138,17.48l-.92,2.74-1.45,4.3h-.34l-1-2.74-2.63-7.31-3.49,10h-.34l-1.69-4.94L124.24,14a29.79,29.79,0,0,0-1.66-4.24,1.7,1.7,0,0,0-1.47-.85V8.5Z"/><path class="a" d="M142.69,14.59c-.74.7-1.1,1.92-1.1,3.66a8.65,8.65,0,0,0,.88,3.87,2.72,2.72,0,0,0,2.46,1.79,2.09,2.09,0,0,0,1.9-1.2,6.52,6.52,0,0,0,.67-3.15,8.83,8.83,0,0,0-.85-3.8A2.67,2.67,0,0,0,144.19,14a2.07,2.07,0,0,0-1.5.61m-1.78.32a4.55,4.55,0,0,1,3.6-1.6,4.82,4.82,0,0,1,3.62,1.51,5.6,5.6,0,0,1,1.44,4,6.17,6.17,0,0,1-1.4,4,4.41,4.41,0,0,1-3.6,1.71A4.66,4.66,0,0,1,141,22.94a6,6,0,0,1-1.46-4.12,5.74,5.74,0,0,1,1.39-3.91"/><path class="a" d="M149.81,23.82a2.54,2.54,0,0,0,1.34-.38,1.6,1.6,0,0,0,.33-1.21V17a4.57,4.57,0,0,0-.2-1.63.74.74,0,0,0-.74-.49l-.29,0-.38.08v-.4l1.3-.47.92-.35c.37-.14.75-.31,1.14-.49a.1.1,0,0,1,.1.06,1.57,1.57,0,0,1,0,.26v1.91a8.74,8.74,0,0,1,1.36-1.62,2.08,2.08,0,0,1,1.36-.58,1.24,1.24,0,0,1,.92.36,1.31,1.31,0,0,1,.08,1.69.85.85,0,0,1-.68.33,1.24,1.24,0,0,1-.84-.41,1.16,1.16,0,0,0-.67-.4c-.25,0-.57.21-.94.65a2.08,2.08,0,0,0-.56,1.35v5.2a1.76,1.76,0,0,0,.45,1.38,2.21,2.21,0,0,0,1.47.36v.39h-5.48Z"/><path class="a" d="M157.06,23.88a2.46,2.46,0,0,0,1.4-.44,1.71,1.71,0,0,0,.37-1.3V10.87a3.12,3.12,0,0,0-.12-1,.9.9,0,0,0-.91-.48l-.34,0-.46.1V9.08c1-.28,2.2-.66,3.61-1.13a.08.08,0,0,1,.09.07,1.7,1.7,0,0,1,0,.3V22.21a1.8,1.8,0,0,0,.33,1.3,2.53,2.53,0,0,0,1.37.37v.33h-5.36Z"/><path class="a" d="M169,22.62a1.48,1.48,0,0,0,.52-1V16.68a2.56,2.56,0,0,0-.76-2.11,2.42,2.42,0,0,0-1.49-.62,2.39,2.39,0,0,0-2.15,1.29,5.93,5.93,0,0,0-.77,3.15,6.58,6.58,0,0,0,.82,3.31,2.63,2.63,0,0,0,2.44,1.45,1.91,1.91,0,0,0,1.39-.53m-.32-9a3.69,3.69,0,0,1,.84.68v-3.7a2.08,2.08,0,0,0-.15-1c-.1-.18-.34-.26-.72-.26h-.23l-.45,0V9.08l.91-.24,1-.29.88-.29.58-.22.07,0,0,1.21c0,.44,0,.89,0,1.36s0,.93,0,1.38l0,9.45a2.19,2.19,0,0,0,.18,1.05c.12.2.43.3.94.3h.25l.25,0v.4l-1.61.57-1.73.68-.08-.11V22.87a6.13,6.13,0,0,1-1.06,1,3.36,3.36,0,0,1-1.87.53,3.64,3.64,0,0,1-3-1.52,5.62,5.62,0,0,1-1.16-3.52,6.81,6.81,0,0,1,1.39-4.31,4.19,4.19,0,0,1,3.41-1.8,3.09,3.09,0,0,1,1.48.37"/><path class="a" d="M55,16.36c-.15,2.19-.18,4.61-.16,6.14a12.57,12.57,0,0,1-6.53-4.25c-.39-.61,1.06-1,1.77-1.18A22.54,22.54,0,0,1,55,16.36m65.17,1.73c-.28,1.85-2.56,3.42-3.7,3.74a3.1,3.1,0,0,1-1,.12,18.72,18.72,0,0,1,4.25-5.7c.3-.31.51,1.22.43,1.84m-92.16-2.2a20.81,20.81,0,0,0-1.26,2.6c-.07.13-.15.27,0,.27a3,3,0,0,0,1.77-.23,7.92,7.92,0,0,0-.55-2.64M44.77,14c.16.32-.28.52-.47.63a1.93,1.93,0,0,1-1.3.2,1,1,0,0,1,.39-.75c.36-.27,1-.55,1.38-.08m32.49-.43c-.44,0-.59.63-.67.95a44.33,44.33,0,0,0-.43,7.55c0,.95-.12,2.24,1.06,2.47.47.12,1.35,0,1.41-.31a61.89,61.89,0,0,0-.31-9.4,1.71,1.71,0,0,0-1.06-1.26m32.09-.12c-1.56-.22-4.87.44-7.2.79-.31,0-.23.32-.15.55.2.94,1.22.79,1.89,1.14a12.18,12.18,0,0,1-.83,1.89c-.35.12-.94,0-1,.59,0,.33.23.56.21,1a5.35,5.35,0,0,0-.77,3.13c.3,1.07.82,2.23,1.58,2.4,2.44.47,4.44-.91,6.29-2.28.32-.33-.29-1.31-.51-1.34-1.65-.2-3.19.51-4.84.47a6.53,6.53,0,0,1,.76-2.13c1.35-.19,3.35.09,4.16-.54a1.24,1.24,0,0,0-.08-1.26,9.22,9.22,0,0,0-3.39-.16c.17-.53.34-1.12.52-1.65a15,15,0,0,0,2.52,0c.84-.07,1.85.08,2.44-.59.17-.34-.5-1.25-.87-1.53a1.69,1.69,0,0,0-.75-.44m-19.78.16c-3.33-.56-7.08-.39-9.48,1.93a2.67,2.67,0,0,0-.35,1.89,1.53,1.53,0,0,0,.94.9c2.63.59,6-.12,8.26,1.65.28.36,0,.73-.31.91a11.25,11.25,0,0,1-6.74,1c-.32-.09-.82-.44-.66-.78,1-1.49,2.64,0,3.86.16a3.24,3.24,0,0,0,2.63-.75c.21-.39-.52-.64-1-.78-1.73-.47-4.17-1-5.78.08a1.79,1.79,0,0,0-.51,2,6.08,6.08,0,0,0,6.29,2.52c1.63-.26,3.58-.83,4-2.67a3.33,3.33,0,0,0-.87-3.27c-2.28-1.53-5.54-.71-8.06-1.73-.08-.12,0-.16.12-.24,2.67-.82,5.82-.51,8.57-1.18.4-.11.77-.75.6-1.06a2.49,2.49,0,0,0-1.46-.55m24.5.16c-2,2.44-4.21,5.66-2.52,8.85a31.14,31.14,0,0,0-2.24,9.16,2.67,2.67,0,0,0,1.42,2c.24.12.8.43.87.16A51.15,51.15,0,0,1,114,24.78a4.8,4.8,0,0,0,3.07-.51c2.36-1.14,4.6-3.62,4.72-6.33a4.08,4.08,0,0,0-1.77-3.66,1.24,1.24,0,0,0-1.22,0,19.33,19.33,0,0,0-6,6.13c-.12-2.79,2.24-4.56,2.43-7.11,0-.64-.85.05-1.14.43M37,12.35a1.61,1.61,0,0,0-.79,1.46c.16,1.73,2,2.48,3.35,3a18.05,18.05,0,0,0-.67,2.28c-.46,2.45-1,5.9.71,8a1.6,1.6,0,0,0,1.61.63c.22-.06.39-.16.39-.39a29,29,0,0,1,.59-9.91,6.85,6.85,0,0,0,1.89-.08,2.64,2.64,0,0,0,2-1.58c0-1.1-.2-2.43-1.34-2.95-1.65-.55-3,.71-4,1.89a6.33,6.33,0,0,1-3.46-1.57c-.16-.24,0-.59-.24-.79m-2.52-.19a4.82,4.82,0,0,0-2,3.18C31.86,17.71,31,20.42,32,23a2.29,2.29,0,0,0,1.85,1.34,4.8,4.8,0,0,0,4.28-3.15c.08-.39.15-1.16-.23-1.18a14.82,14.82,0,0,0-3.27,1.1c-.26.05-.71.3-.78-.07a19.7,19.7,0,0,1,1.06-5.83,4.21,4.21,0,0,0,.19-2.67c-.07-.21-.23-.51-.55-.35m62.86-.44c-.43-.06-.38.53-.28.87a45.54,45.54,0,0,1,1.5,6.53c0,.47.19,1.1-.12,1.49-1.69-2.08-2.68-4.56-4.72-6.37-.33-.27-.72,0-.91.35a16.52,16.52,0,0,0-1.45,6.3c-.08,1.2-.32,2.79.94,3.42.36.12.85.06,1-.28a24.37,24.37,0,0,0,.55-5.94c0-.18.12-.55.23-.39.85,1.63,1.71,3.09,2.64,4.6.47.77.89,1.51,1.77,1.46a2.83,2.83,0,0,0,2-1.5,10.42,10.42,0,0,0-1.06-8.49c-.51-.79-1.1-1.81-2-2M12,10.58c-.17-.22-.34-.24-.51-.08-1.3,1.54-1.38,3.7-1.73,5.67a15.44,15.44,0,0,0,.07,3.54,10.68,10.68,0,0,0,2.64-6.77A3.89,3.89,0,0,0,12,10.58m70.91-4c.26.69-.63,1.77-1.47,2.27A7.18,7.18,0,0,1,77,9.86,4.58,4.58,0,0,1,78.3,8.14C79.45,7,81,5.62,82.49,6.1c.18.06.28.13.39.43m-4.95-.71a12.23,12.23,0,0,0-2.8,3c-.39-.71.24-1.41.71-2a3,3,0,0,1,2.09-1m1.41-2.28c-2.4.43-5,1.89-5.82,4.37a2.65,2.65,0,0,0,.75,2.55c-.08.61-.16,1.46.51,1.89s.91-.49,1.3-.82c2.2.86,4.33-.16,6-1.46C83.35,9,84.93,7.63,84.3,5.82a2.1,2.1,0,0,0-1.85-1.14,3.23,3.23,0,0,0-3.11-1.14M67.11,6.77c-6.38-4-14.63-6.85-22.65-4.53A2.85,2.85,0,0,0,42.8,4.6c.51.63,1.3.51,2.13.51.19-.11.55-.11.59-.39-.28-.59-1.06-.39-1.5-.71.24-.23.59-.15.87-.31A29.72,29.72,0,0,1,66.44,9.36c3.23,2.33,6.3,5.78,5.23,10-1.39,4-6.84,4.65-11.09,4.61A7.22,7.22,0,0,1,58,23.44c0-2.51,0-5.63-.07-7.23a19.32,19.32,0,0,1,7.38,1.41c.43.29-.82,1.14-1.3,1.58-.26.31.7.6,1.34.55a3.09,3.09,0,0,0,2.2-1.85,2.08,2.08,0,0,0-.67-2.13c-2.39-2-5.69-2-8.92-2.11a26.44,26.44,0,0,0-.27-3.85,1.83,1.83,0,0,0-1.46-1.63,4.18,4.18,0,0,0-.79,2.44c-.13,1.1-.24,2.3-.36,3.31,0,0-1.75.34-2.79.59s-5.11,1.54-4.76,3.61c.46,1.84,3.39,4.06,5.39,5.35A16.3,16.3,0,0,0,55,24.62a4.48,4.48,0,0,0,.86,2.64c.2.19.92.11,1.46,0,.67-.28.69-1,.74-1.53.71.12,1.54.32,2.76.47,4.88.61,10.85-.79,13.53-5.67,2.24-4.68-1.65-9.22-4.57-11.74a31.36,31.36,0,0,0-2.63-2M21.88,5.51a17.56,17.56,0,0,1,.59,13.25,2.93,2.93,0,0,0,1.22.12,25.76,25.76,0,0,1,4-6.45c0-.27.08-.63.39-.71s.79-.13.95.2a31.38,31.38,0,0,1,2,12.47c0,.2-.08.43-.27.39A2.57,2.57,0,0,1,29,23.13a10.06,10.06,0,0,1-.16-1.81,18.28,18.28,0,0,1-3.15,0,22.91,22.91,0,0,0-1.29,3.62c-.14.34-.71.31-1.11.23-.94-.31-.9-1.37-1-2.2a23.26,23.26,0,0,1,.83-2.48,3.57,3.57,0,0,0-.75-1.25,15.94,15.94,0,0,1-3.07,4.32c-2.24,1.89-4.83,3.54-7.9,2.75a5.88,5.88,0,0,1-3.5-2.94,5.69,5.69,0,0,1-1.38.43,5,5,0,0,1-5.19-1.69C-1,18.84.21,14,1.5,10.62,2.84,7.44,5.24,4.17,8.55,2.68c.32-.14,1-.11.82.27-.43,1.18-1.73,1.89-2.44,3a19.68,19.68,0,0,0-4,13.81,3.24,3.24,0,0,0,1.81,2.63,2.69,2.69,0,0,0,2.56-.43c-.75-3.38-1.46-8.1,1.33-10.82a6.2,6.2,0,0,1,3.86-2A2.18,2.18,0,0,1,14,9.68c1.5,2,1.38,5.31.24,7.47a16.51,16.51,0,0,1-4,4.68,2.58,2.58,0,0,0,1.45,1.65c1.93.71,3.74-.35,5.11-1.65,2.64-2.87,3.59-6.45,3.82-10.26,0-4.25-1.26-8.3-4.52-11.17-.16-.07,0-.44.19-.4,2.44.67,4.45,3.3,5.55,5.51"/><path class="a" d="M124.71,30.63a1.29,1.29,0,0,0,.86-1.3,1.25,1.25,0,0,0-.77-1.26,2.54,2.54,0,0,0-1.09-.19,1.43,1.43,0,0,0-.56.07c-.06,0-.1.14-.1.3v2.61a5.69,5.69,0,0,0,1.66-.23m-3.66,3.63a1.24,1.24,0,0,0,.77-.24,1.45,1.45,0,0,0,.15-.83V28.62a1.11,1.11,0,0,0-.17-.72,1.34,1.34,0,0,0-.75-.21v-.2h3a4.31,4.31,0,0,1,1.54.23,1.61,1.61,0,0,1,1.17,1.61,1.46,1.46,0,0,1-.52,1.21,2.92,2.92,0,0,1-1.42.55L127,33.76a1.42,1.42,0,0,0,.41.35,1.28,1.28,0,0,0,.52.15v.19h-1.72l-2.69-3.24-.47,0v2.07c0,.39.06.64.18.74a1.61,1.61,0,0,0,.79.21v.19h-3Z"/><path class="a" d="M128.69,30.53a2,2,0,0,0-.24.69h2.2a2.22,2.22,0,0,0-.2-.76.91.91,0,0,0-.86-.45,1,1,0,0,0-.9.52m2.5-.4a1.82,1.82,0,0,1,.55,1.42h-3.31a2.71,2.71,0,0,0,.55,1.74,1.54,1.54,0,0,0,1.17.54,1.48,1.48,0,0,0,.92-.28,3.11,3.11,0,0,0,.7-.8l.18.06a2.88,2.88,0,0,1-.8,1.21,2.06,2.06,0,0,1-1.45.56,1.8,1.8,0,0,1-1.52-.73,2.82,2.82,0,0,1-.53-1.68,2.74,2.74,0,0,1,.62-1.79,2,2,0,0,1,1.62-.75,1.89,1.89,0,0,1,1.3.5"/><path class="a" d="M132.44,32.83h.17a2.81,2.81,0,0,0,.32.9,1.2,1.2,0,0,0,1.07.57.85.85,0,0,0,.61-.21.73.73,0,0,0,.23-.55.83.83,0,0,0-.13-.42,1.44,1.44,0,0,0-.46-.39l-.58-.33a3.33,3.33,0,0,1-.95-.68,1.2,1.2,0,0,1-.3-.81,1.21,1.21,0,0,1,.42-.95,1.47,1.47,0,0,1,1-.37,2,2,0,0,1,.61.1,2.64,2.64,0,0,0,.37.1.26.26,0,0,0,.14,0,.27.27,0,0,0,.07-.08h.13l0,1.43h-.16a2.5,2.5,0,0,0-.28-.77,1.05,1.05,0,0,0-.94-.51.74.74,0,0,0-.78.74q0,.47.72.84l.69.36c.74.4,1.11.86,1.11,1.39a1.23,1.23,0,0,1-.46,1,1.8,1.8,0,0,1-1.2.39,2.68,2.68,0,0,1-.7-.1,3,3,0,0,0-.47-.1.15.15,0,0,0-.11,0,.23.23,0,0,0-.07.1h-.15Z"/><path class="a" d="M137.5,30.21a2.11,2.11,0,0,0-.52,1.61,3.61,3.61,0,0,0,.42,1.71,1.28,1.28,0,0,0,1.17.79,1,1,0,0,0,.9-.53,2.66,2.66,0,0,0,.31-1.38,3.59,3.59,0,0,0-.4-1.68,1.25,1.25,0,0,0-1.16-.79,1,1,0,0,0-.72.27m-.83.13a2.22,2.22,0,0,1,1.7-.71,2.31,2.31,0,0,1,1.71.67,2.4,2.4,0,0,1,.68,1.78,2.62,2.62,0,0,1-.66,1.78,2.17,2.17,0,0,1-1.7.76,2.28,2.28,0,0,1-1.7-.73,2.53,2.53,0,0,1-.69-1.82,2.44,2.44,0,0,1,.66-1.73"/><path class="a" d="M140.81,34.28a1.29,1.29,0,0,0,.64-.16.71.71,0,0,0,.16-.54V31.25a2.07,2.07,0,0,0-.1-.73.36.36,0,0,0-.35-.22l-.14,0a1.13,1.13,0,0,0-.18,0v-.17l.6-.21.44-.16c.17-.06.35-.14.53-.22a0,0,0,0,1,.05,0v1a4.21,4.21,0,0,1,.65-.71,1,1,0,0,1,.65-.26.6.6,0,0,1,.44.16.51.51,0,0,1,.17.39.57.57,0,0,1-.13.36.45.45,0,0,1-.32.14.58.58,0,0,1-.4-.18.58.58,0,0,0-.32-.18c-.12,0-.27.1-.45.29a.9.9,0,0,0-.27.6v2.32a.75.75,0,0,0,.21.61,1,1,0,0,0,.7.16v.18h-2.58Z"/><path class="a" d="M147.34,29.71v.37h-1.06v3a2.22,2.22,0,0,0,.06.59.5.5,0,0,0,.5.35.58.58,0,0,0,.33-.09,1.2,1.2,0,0,0,.32-.27l.14.11-.12.16a1.67,1.67,0,0,1-.57.51,1.36,1.36,0,0,1-.59.15.83.83,0,0,1-.84-.54,2.23,2.23,0,0,1-.12-.81V30.08h-.57l0,0s0,0,0,0a.11.11,0,0,1,0-.08l.15-.13a4.54,4.54,0,0,0,.52-.47l.74-1h.08s0,0,0,.08v1.26Z"/><path class="a" d="M150.7,27.43a.53.53,0,0,1,.39-.16.52.52,0,0,1,.38.15.53.53,0,0,1,.16.39.49.49,0,0,1-.16.37.49.49,0,0,1-.38.16.53.53,0,0,1-.39-.16.51.51,0,0,1-.15-.37.52.52,0,0,1,.15-.38m-.83,6.88a1.22,1.22,0,0,0,.7-.19c.1-.09.14-.33.14-.74V30.93a1.62,1.62,0,0,0,0-.46.33.33,0,0,0-.33-.21h-.12l-.31.08v-.16l.22-.07c.61-.2,1-.35,1.28-.45l.19-.06a.19.19,0,0,1,0,.08v3.69a1.15,1.15,0,0,0,.15.74,1,1,0,0,0,.65.19v.14h-2.54Z"/><path class="a" d="M152.5,34.31a1,1,0,0,0,.52-.18c.1-.09.14-.29.14-.6V30.9a1.23,1.23,0,0,0-.06-.46.41.41,0,0,0-.41-.2h-.21v-.18l1-.31.49-.16a.06.06,0,0,1,.05,0v.82a5.08,5.08,0,0,1,.76-.61,1.55,1.55,0,0,1,.84-.25,1.14,1.14,0,0,1,.65.2,1.58,1.58,0,0,1,.56,1.4V33.6a.79.79,0,0,0,.15.54.66.66,0,0,0,.51.17v.14h-2.23v-.14a.84.84,0,0,0,.53-.21,1,1,0,0,0,.15-.68V31.21a1.5,1.5,0,0,0-.17-.74.65.65,0,0,0-.61-.29,1.13,1.13,0,0,0-.63.21,3.07,3.07,0,0,0-.46.39v2.9a.61.61,0,0,0,.17.5.91.91,0,0,0,.53.13v.14H152.5Z"/><path class="a" d="M159.5,34.26a1.41,1.41,0,0,0,.78-.23,1.35,1.35,0,0,0,.16-.84V28.62a1.07,1.07,0,0,0-.17-.72,1.22,1.22,0,0,0-.77-.21v-.2h5.68l0,1.5h-.29a1.31,1.31,0,0,0-.42-.91,2.43,2.43,0,0,0-1.19-.2h-1.47a.37.37,0,0,0-.28.08.44.44,0,0,0-.06.28V30.6h1.54a1.32,1.32,0,0,0,.88-.2,1.71,1.71,0,0,0,.31-.81h.24V32h-.24a1.89,1.89,0,0,0-.31-.81,1.32,1.32,0,0,0-.88-.2h-1.54v2.31a1,1,0,0,0,.18.73,1.44,1.44,0,0,0,.79.21v.19h-3Z"/><path class="a" d="M165.82,34.31a1.26,1.26,0,0,0,.66-.19.77.77,0,0,0,.17-.58v-5a1.22,1.22,0,0,0-.06-.47.41.41,0,0,0-.42-.22l-.16,0-.22,0v-.17c.47-.12,1-.28,1.7-.49a0,0,0,0,1,0,0s0,.07,0,.13v6.17c0,.3,0,.5.15.58a1.23,1.23,0,0,0,.66.17v.14h-2.54Z"/><path class="a" d="M170,30.21a2.08,2.08,0,0,0-.52,1.61,3.61,3.61,0,0,0,.42,1.71,1.28,1.28,0,0,0,1.16.79,1,1,0,0,0,.9-.53,2.66,2.66,0,0,0,.32-1.38,3.71,3.71,0,0,0-.4-1.68,1.26,1.26,0,0,0-1.17-.79,1,1,0,0,0-.71.27m-.84.13a2.23,2.23,0,0,1,1.7-.71,2.35,2.35,0,0,1,1.72.67,2.4,2.4,0,0,1,.67,1.78,2.66,2.66,0,0,1-.65,1.78,2.18,2.18,0,0,1-1.71.76,2.29,2.29,0,0,1-1.7-.73,2.53,2.53,0,0,1-.69-1.82,2.44,2.44,0,0,1,.66-1.73"/><path class="a" d="M173.31,34.28a1.26,1.26,0,0,0,.64-.16.67.67,0,0,0,.16-.54V31.25a1.86,1.86,0,0,0-.1-.73.35.35,0,0,0-.35-.22l-.14,0a1.13,1.13,0,0,0-.18,0v-.17L174,30l.43-.16.54-.22s0,0,0,0,0,.06,0,.12v.84a3.83,3.83,0,0,1,.65-.71,1,1,0,0,1,.65-.26.57.57,0,0,1,.43.16.48.48,0,0,1,.17.39.52.52,0,0,1-.13.36.42.42,0,0,1-.32.14.6.6,0,0,1-.4-.18.58.58,0,0,0-.32-.18c-.12,0-.27.1-.45.29a.94.94,0,0,0-.26.6v2.32a.75.75,0,0,0,.21.61,1,1,0,0,0,.69.16v.18h-2.58Z"/><path class="a" d="M178.19,27.43a.49.49,0,0,1,.38-.16.56.56,0,0,1,.39.15.57.57,0,0,1,.16.39.55.55,0,0,1-.55.53.49.49,0,0,1-.38-.16.49.49,0,0,1-.16-.37.49.49,0,0,1,.16-.38m-.84,6.88a1.19,1.19,0,0,0,.7-.19c.1-.09.15-.33.15-.74V30.93a1.52,1.52,0,0,0,0-.46.31.31,0,0,0-.33-.21h-.11a2.21,2.21,0,0,0-.32.08v-.16l.23-.07c.61-.2,1-.35,1.28-.45a.62.62,0,0,1,.19-.06s0,.05,0,.08v3.69c0,.4,0,.64.14.74a1.07,1.07,0,0,0,.66.19v.14h-2.55Z"/><path class="a" d="M183.16,33.75a.61.61,0,0,0,.25-.44V31.1a1.11,1.11,0,0,0-.36-.94,1.19,1.19,0,0,0-.71-.27,1.14,1.14,0,0,0-1,.57,2.51,2.51,0,0,0-.37,1.41,2.78,2.78,0,0,0,.39,1.47,1.26,1.26,0,0,0,1.16.65.89.89,0,0,0,.66-.24m-.15-4a1.76,1.76,0,0,1,.4.29V28.42a.85.85,0,0,0-.07-.43c0-.08-.16-.12-.34-.12h-.1l-.22,0v-.17l.43-.1.48-.13.41-.13.28-.1h0v.54c0,.2,0,.4,0,.6s0,.42,0,.62v4.2a.88.88,0,0,0,.09.47c0,.09.2.14.44.14H185V34l-.76.26-.82.3,0,0v-.63a2.67,2.67,0,0,1-.5.45,1.73,1.73,0,0,1-.89.23,1.78,1.78,0,0,1-1.44-.68,2.38,2.38,0,0,1-.55-1.56,2.91,2.91,0,0,1,.66-1.92,2,2,0,0,1,1.62-.8,1.51,1.51,0,0,1,.7.17"/><path class="a" d="M188.18,31.6a4.75,4.75,0,0,0-1,.43,1.28,1.28,0,0,0-.75,1,.79.79,0,0,0,.32.69.72.72,0,0,0,.45.15,1.32,1.32,0,0,0,.66-.19.57.57,0,0,0,.32-.49Zm-1.92.58a11.89,11.89,0,0,1,1.92-.83v-.44a1.76,1.76,0,0,0-.11-.73.74.74,0,0,0-.73-.34,1,1,0,0,0-.51.13.42.42,0,0,0-.24.38s0,.11,0,.21a1.29,1.29,0,0,1,0,.19.45.45,0,0,1-.19.4.55.55,0,0,1-.26.06.43.43,0,0,1-.36-.15.48.48,0,0,1-.13-.33,1.09,1.09,0,0,1,.45-.76,2,2,0,0,1,1.33-.39,1.43,1.43,0,0,1,1.37.65,2.18,2.18,0,0,1,.2,1v2.06a1.31,1.31,0,0,0,0,.41.27.27,0,0,0,.28.22.4.4,0,0,0,.2,0,1.76,1.76,0,0,0,.27-.19V34a1.53,1.53,0,0,1-.36.32,1,1,0,0,1-.59.19.58.58,0,0,1-.52-.23,1,1,0,0,1-.17-.54,5.69,5.69,0,0,1-.68.5,1.77,1.77,0,0,1-.91.28,1.09,1.09,0,0,1-.78-.31,1,1,0,0,1-.33-.79,1.49,1.49,0,0,1,.76-1.25"/></svg>